<?xml version="1.0" encoding="UTF-8" standalone="no"?>
<!DOCTYPE svg PUBLIC "-//W3C//DTD SVG 1.1//EN"
 "http://www.w3.org/Graphics/SVG/1.1/DTD/svg11.dtd">
<!-- Generated by graphviz version 10.0.1 (20240210.2158)
 -->
<!-- Title: clusteris_side_one_equal_two Pages: 1 -->
<svg width="270pt" height="249pt"
 viewBox="0.00 0.00 269.55 249.00" xmlns="http://www.w3.org/2000/svg" xmlns:xlink="http://www.w3.org/1999/xlink">
<g id="graph0" class="graph" transform="scale(1 1) rotate(0) translate(4 245)">
<title>clusteris_side_one_equal_two</title>
<polygon fill="white" stroke="none" points="-4,4 -4,-245 265.55,-245 265.55,4 -4,4"/>
<text text-anchor="middle" x="130.78" y="-6.45" font-family="Times New Roman,serif" font-size="14.00">is_side_one_equal_two</text>
<!-- 1 -->
<g id="node1" class="node">
<title>1</title>
<ellipse fill="none" stroke="black" cx="139.4" cy="-197.31" rx="85.03" ry="27.93"/>
<text text-anchor="middle" x="139.4" y="-191.89" font-family="Times New Roman,serif" font-size="14.00">1. if type_code &gt;= 0:</text>
<text text-anchor="start" x="37.12" y="-211.95" font-family="Times New Roman,serif" font-size="14.00" fill="darkorange">1,0</text>
</g>
<!-- 2 -->
<g id="node2" class="node">
<title>2</title>
<ellipse fill="none" stroke="black" cx="139.4" cy="-62.82" rx="122.15" ry="39.07"/>
<text text-anchor="middle" x="139.4" y="-65.27" font-family="Times New Roman,serif" font-size="14.00">2. type_code = type_code + 1</text>
<text text-anchor="middle" x="139.4" y="-49.52" font-family="Times New Roman,serif" font-size="14.00">return type_code</text>
<text text-anchor="start" x="0" y="-88.58" font-family="Times New Roman,serif" font-size="14.00" fill="darkorange">1,0</text>
</g>
<!-- 1&#45;&gt;2 -->
<g id="edge1" class="edge">
<title>1&#45;&gt;2</title>
<path fill="none" stroke="#429e6a" d="M139.4,-169.18C139.4,-153.19 139.4,-132.47 139.4,-113.64"/>
<polygon fill="#429e6a" stroke="#429e6a" points="142.9,-113.73 139.4,-103.73 135.9,-113.73 142.9,-113.73"/>
<text text-anchor="middle" x="190.4" y="-138.08" font-family="Times New Roman,serif" font-size="14.00">&quot;type_code &gt;= 0&quot;</text>
<text text-anchor="middle" x="190.4" y="-122.33" font-family="Times New Roman,serif" font-size="14.00">c[3]</text>
<polygon fill="white" stroke="none" points="108.4,-137.73 108.4,-161.48 137.4,-161.48 137.4,-137.73 108.4,-137.73"/>
<text text-anchor="start" x="112.4" y="-144.18" font-family="Times New Roman,serif" font-size="14.00" fill="darkmagenta">1, 0</text>
</g>
</g>
</svg>
