<?xml version="1.0" encoding="UTF-8" standalone="no"?>
<!DOCTYPE svg PUBLIC "-//W3C//DTD SVG 1.1//EN"
 "http://www.w3.org/Graphics/SVG/1.1/DTD/svg11.dtd">
<!-- Generated by graphviz version 10.0.1 (20240210.2158)
 -->
<!-- Title: clustertrityp Pages: 1 -->
<svg width="1149pt" height="1634pt"
 viewBox="0.00 0.00 1148.72 1634.39" xmlns="http://www.w3.org/2000/svg" xmlns:xlink="http://www.w3.org/1999/xlink">
<g id="graph0" class="graph" transform="scale(1 1) rotate(0) translate(4 1630.39)">
<title>clustertrityp</title>
<polygon fill="white" stroke="none" points="-4,4 -4,-1630.39 1144.72,-1630.39 1144.72,4 -4,4"/>
<text text-anchor="middle" x="570.36" y="-6.45" font-family="Times New Roman,serif" font-size="14.00">trityp</text>
<!-- 1 -->
<g id="node1" class="node">
<title>1</title>
<ellipse fill="none" stroke="black" cx="350.97" cy="-1582.7" rx="123.21" ry="27.93"/>
<text text-anchor="middle" x="350.97" y="-1577.28" font-family="Times New Roman,serif" font-size="14.00">1. if i == 0 or j == 0 or k == 0:</text>
<text text-anchor="start" x="210.51" y="-1597.34" font-family="Times New Roman,serif" font-size="14.00" fill="darkorange">4,4</text>
</g>
<!-- 4 -->
<g id="node2" class="node">
<title>4</title>
<ellipse fill="none" stroke="black" cx="350.97" cy="-1432.46" rx="69.12" ry="39.07"/>
<text text-anchor="middle" x="350.97" y="-1434.91" font-family="Times New Roman,serif" font-size="14.00">4. type_code = 0</text>
<text text-anchor="middle" x="350.97" y="-1419.16" font-family="Times New Roman,serif" font-size="14.00">if i == j:</text>
<text text-anchor="start" x="264.6" y="-1458.22" font-family="Times New Roman,serif" font-size="14.00" fill="darkorange">4,4</text>
</g>
<!-- 1&#45;&gt;4 -->
<g id="edge1" class="edge">
<title>1&#45;&gt;4</title>
<path fill="none" stroke="blue" stroke-width="3.28" d="M350.97,-1554.51C350.97,-1535.61 350.97,-1509.79 350.97,-1486.85"/>
<polygon fill="blue" stroke="blue" stroke-width="3.28" points="354.47,-1486.88 350.97,-1476.88 347.47,-1486.89 354.47,-1486.88"/>
<text text-anchor="middle" x="448.84" y="-1523.47" font-family="Times New Roman,serif" font-size="14.00">&quot;(not (i == 0 or j == 0 or k == 0))&quot;</text>
<text text-anchor="middle" x="448.84" y="-1507.72" font-family="Times New Roman,serif" font-size="14.00">c[6]</text>
<text text-anchor="middle" x="448.84" y="-1491.97" font-family="Times New Roman,serif" font-size="14.00"> Score: 0.57</text>
<text text-anchor="start" x="333.72" y="-1515.25" font-family="Times New Roman,serif" font-size="14.00" fill="darkmagenta">4,4</text>
</g>
<!-- 5 -->
<g id="node4" class="node">
<title>5</title>
<ellipse fill="none" stroke="black" cx="229.97" cy="-1297.96" rx="205.95" ry="27.93"/>
<text text-anchor="middle" x="229.97" y="-1292.53" font-family="Times New Roman,serif" font-size="14.00">5. type_code = is_side_one_equal_two(type_code)</text>
<text text-anchor="start" x="6.77" y="-1312.59" font-family="Times New Roman,serif" font-size="14.00" fill="darkorange">1,0</text>
</g>
<!-- 4&#45;&gt;5 -->
<g id="edge2" class="edge">
<title>4&#45;&gt;5</title>
<path fill="none" stroke="green" d="M319.81,-1397.34C302.12,-1377.97 280.02,-1353.76 262.16,-1334.21"/>
<polygon fill="green" stroke="green" points="264.89,-1332.01 255.56,-1326.98 259.72,-1336.73 264.89,-1332.01"/>
<text text-anchor="middle" x="318.97" y="-1362.09" font-family="Times New Roman,serif" font-size="14.00">&quot;i == j&quot;</text>
<text text-anchor="middle" x="318.97" y="-1346.34" font-family="Times New Roman,serif" font-size="14.00">c[7]</text>
<text text-anchor="start" x="269.83" y="-1363.94" font-family="Times New Roman,serif" font-size="14.00" fill="darkmagenta">1,0</text>
</g>
<!-- 6 -->
<g id="node5" class="node">
<title>6</title>
<ellipse fill="none" stroke="black" cx="350.97" cy="-1215.03" rx="52.06" ry="18"/>
<text text-anchor="middle" x="350.97" y="-1209.6" font-family="Times New Roman,serif" font-size="14.00">6. if i == k:</text>
<text text-anchor="start" x="281.66" y="-1219.73" font-family="Times New Roman,serif" font-size="14.00" fill="darkorange">4,4</text>
</g>
<!-- 4&#45;&gt;6 -->
<g id="edge3" class="edge">
<title>4&#45;&gt;6</title>
<path fill="none" stroke="blue" stroke-width="3.52" d="M390.07,-1400.24C410.66,-1381.23 433.88,-1355.02 444.97,-1325.89 453.8,-1302.69 457.41,-1291.52 444.97,-1270.03 435.61,-1253.87 419.39,-1242.12 403.03,-1233.8"/>
<polygon fill="blue" stroke="blue" stroke-width="3.52" points="404.8,-1230.76 394.25,-1229.8 401.9,-1237.13 404.8,-1230.76"/>
<text text-anchor="middle" x="486.72" y="-1300.41" font-family="Times New Roman,serif" font-size="14.00">&quot;(i != j)&quot;</text>
<text text-anchor="middle" x="486.72" y="-1284.66" font-family="Times New Roman,serif" font-size="14.00"> Score: 0.63</text>
<text text-anchor="start" x="427.73" y="-1328.32" font-family="Times New Roman,serif" font-size="14.00" fill="darkmagenta">3,4</text>
</g>
<!-- 3 -->
<g id="node3" class="node">
<title>3</title>
<ellipse fill="none" stroke="black" cx="427.97" cy="-41.75" rx="83.5" ry="18"/>
<text text-anchor="middle" x="427.97" y="-36.33" font-family="Times New Roman,serif" font-size="14.00">3. return type_code</text>
<text text-anchor="start" x="327.22" y="-46.45" font-family="Times New Roman,serif" font-size="14.00" fill="darkorange">4,4</text>
</g>
<!-- 5&#45;&gt;6 -->
<g id="edge4" class="edge">
<title>5&#45;&gt;6</title>
<path fill="none" stroke="green" d="M269.92,-1270.24C285.74,-1259.66 303.67,-1247.66 318.64,-1237.65"/>
<polygon fill="green" stroke="green" points="320.38,-1240.7 326.74,-1232.23 316.48,-1234.88 320.38,-1240.7"/>
<text text-anchor="start" x="281.63" y="-1253.32" font-family="Times New Roman,serif" font-size="14.00" fill="darkmagenta">1,0</text>
</g>
<!-- 7 -->
<g id="node6" class="node">
<title>7</title>
<ellipse fill="none" stroke="black" cx="227.97" cy="-1101.6" rx="210.19" ry="27.93"/>
<text text-anchor="middle" x="227.97" y="-1096.17" font-family="Times New Roman,serif" font-size="14.00">7. type_code = is_side_one_equal_three(type_code)</text>
<text text-anchor="start" x="0.53" y="-1116.23" font-family="Times New Roman,serif" font-size="14.00" fill="darkorange">1,0</text>
</g>
<!-- 6&#45;&gt;7 -->
<g id="edge5" class="edge">
<title>6&#45;&gt;7</title>
<path fill="none" stroke="green" d="M333.08,-1197.83C315.6,-1181.98 288.41,-1157.36 266.07,-1137.12"/>
<polygon fill="green" stroke="green" points="268.66,-1134.74 258.9,-1130.62 263.96,-1139.93 268.66,-1134.74"/>
<text text-anchor="middle" x="334.84" y="-1165.73" font-family="Times New Roman,serif" font-size="14.00">&quot;i == k&quot;</text>
<text text-anchor="middle" x="334.84" y="-1149.98" font-family="Times New Roman,serif" font-size="14.00">c[8]</text>
<text text-anchor="start" x="278.03" y="-1166.03" font-family="Times New Roman,serif" font-size="14.00" fill="darkmagenta">1,0</text>
</g>
<!-- 8 -->
<g id="node7" class="node">
<title>8</title>
<ellipse fill="none" stroke="black" cx="350.97" cy="-1018.67" rx="52.06" ry="18"/>
<text text-anchor="middle" x="350.97" y="-1013.24" font-family="Times New Roman,serif" font-size="14.00">8. if j == k:</text>
<text text-anchor="start" x="281.66" y="-1023.37" font-family="Times New Roman,serif" font-size="14.00" fill="darkorange">4,4</text>
</g>
<!-- 6&#45;&gt;8 -->
<g id="edge6" class="edge">
<title>6&#45;&gt;8</title>
<path fill="none" stroke="blue" stroke-width="3.52" d="M377.84,-1199.31C401.01,-1184.94 432.89,-1160.69 446.97,-1129.53 457.19,-1106.9 459.5,-1095.1 446.97,-1073.67 437.31,-1057.16 420.55,-1045.31 403.71,-1037"/>
<polygon fill="blue" stroke="blue" stroke-width="3.52" points="405.14,-1033.8 394.58,-1032.97 402.32,-1040.21 405.14,-1033.8"/>
<text text-anchor="middle" x="488.72" y="-1104.05" font-family="Times New Roman,serif" font-size="14.00">&quot;(i != k)&quot;</text>
<text text-anchor="middle" x="488.72" y="-1088.3" font-family="Times New Roman,serif" font-size="14.00"> Score: 0.63</text>
<text text-anchor="start" x="429.73" y="-1131.96" font-family="Times New Roman,serif" font-size="14.00" fill="darkmagenta">3,4</text>
</g>
<!-- 7&#45;&gt;8 -->
<g id="edge7" class="edge">
<title>7&#45;&gt;8</title>
<path fill="none" stroke="green" d="M268.58,-1073.87C284.66,-1063.3 302.89,-1051.3 318.11,-1041.29"/>
<polygon fill="green" stroke="green" points="319.93,-1044.28 326.36,-1035.86 316.08,-1038.43 319.93,-1044.28"/>
<text text-anchor="start" x="280.77" y="-1056.96" font-family="Times New Roman,serif" font-size="14.00" fill="darkmagenta">1,0</text>
</g>
<!-- 9 -->
<g id="node8" class="node">
<title>9</title>
<ellipse fill="none" stroke="black" cx="227.97" cy="-889.49" rx="210.72" ry="27.93"/>
<text text-anchor="middle" x="227.97" y="-884.06" font-family="Times New Roman,serif" font-size="14.00">9. type_code = is_side_two_equal_three(type_code)</text>
<text text-anchor="start" x="0" y="-904.12" font-family="Times New Roman,serif" font-size="14.00" fill="darkorange">0,4</text>
</g>
<!-- 8&#45;&gt;9 -->
<g id="edge8" class="edge">
<title>8&#45;&gt;9</title>
<path fill="none" stroke="red" stroke-width="5" d="M335.14,-1001.3C317.52,-983.08 288.44,-953.02 265.02,-928.79"/>
<polygon fill="red" stroke="red" stroke-width="5" points="268.48,-926.08 258.38,-921.93 262.19,-932.16 268.48,-926.08"/>
<text text-anchor="middle" x="340.09" y="-969.37" font-family="Times New Roman,serif" font-size="14.00">&quot;j == k&quot;</text>
<text text-anchor="middle" x="340.09" y="-953.62" font-family="Times New Roman,serif" font-size="14.00">c[9]</text>
<text text-anchor="middle" x="340.09" y="-937.87" font-family="Times New Roman,serif" font-size="14.00"> Score: 1</text>
<text text-anchor="start" x="277.38" y="-961.86" font-family="Times New Roman,serif" font-size="14.00" fill="darkmagenta">0,4</text>
</g>
<!-- 10 -->
<g id="node9" class="node">
<title>10</title>
<ellipse fill="none" stroke="black" cx="350.97" cy="-775.81" rx="93.98" ry="18"/>
<text text-anchor="middle" x="350.97" y="-770.38" font-family="Times New Roman,serif" font-size="14.00">10. if type_code == 0:</text>
<text text-anchor="start" x="239.74" y="-780.51" font-family="Times New Roman,serif" font-size="14.00" fill="darkorange">4,4</text>
</g>
<!-- 8&#45;&gt;10 -->
<g id="edge9" class="edge">
<title>8&#45;&gt;10</title>
<path fill="none" stroke="green" d="M374.21,-1002.08C397.89,-984.65 433.16,-954.01 447.97,-917.42 457.28,-894.4 458.24,-884.16 447.97,-861.56 436.1,-835.42 411.75,-814.19 390.42,-799.52"/>
<polygon fill="green" stroke="green" points="392.43,-796.65 382.15,-794.07 388.58,-802.5 392.43,-796.65"/>
<text text-anchor="middle" x="474.47" y="-884.06" font-family="Times New Roman,serif" font-size="14.00">(j != k)</text>
<text text-anchor="start" x="430.73" y="-919.85" font-family="Times New Roman,serif" font-size="14.00" fill="darkmagenta">4,0</text>
</g>
<!-- 9&#45;&gt;10 -->
<g id="edge10" class="edge">
<title>9&#45;&gt;10</title>
<path fill="none" stroke="red" stroke-width="5" d="M257.74,-861.45C276.67,-844.27 301.11,-822.08 320.22,-804.73"/>
<polygon fill="red" stroke="red" stroke-width="5" points="323.09,-808.02 327.56,-798.06 317.21,-801.55 323.09,-808.02"/>
<text text-anchor="middle" x="337.09" y="-814.26" font-family="Times New Roman,serif" font-size="14.00"> Score: 1</text>
<text text-anchor="start" x="277.76" y="-830.06" font-family="Times New Roman,serif" font-size="14.00" fill="darkmagenta">0,4</text>
</g>
<!-- 11 -->
<g id="node10" class="node">
<title>11</title>
<ellipse fill="none" stroke="black" cx="217.97" cy="-662.38" rx="160.34" ry="27.93"/>
<text text-anchor="middle" x="217.97" y="-656.95" font-family="Times New Roman,serif" font-size="14.00">11. if i + j &lt;= k or j + k &lt;= i or i + k &lt;= j:</text>
<text text-anchor="start" x="40.38" y="-677.01" font-family="Times New Roman,serif" font-size="14.00" fill="darkorange">2,0</text>
</g>
<!-- 10&#45;&gt;11 -->
<g id="edge11" class="edge">
<title>10&#45;&gt;11</title>
<path fill="none" stroke="green" d="M330.77,-757.88C311.68,-741.89 282.48,-717.42 258.57,-697.39"/>
<polygon fill="green" stroke="green" points="261.1,-694.95 251.19,-691.21 256.61,-700.31 261.1,-694.95"/>
<text text-anchor="middle" x="358.97" y="-726.51" font-family="Times New Roman,serif" font-size="14.00">&quot;type_code == 0&quot;</text>
<text text-anchor="middle" x="358.97" y="-710.76" font-family="Times New Roman,serif" font-size="14.00">c[10]</text>
<text text-anchor="start" x="273.25" y="-726.59" font-family="Times New Roman,serif" font-size="14.00" fill="darkmagenta">2,0</text>
</g>
<!-- 13 -->
<g id="node11" class="node">
<title>13</title>
<ellipse fill="none" stroke="black" cx="484.97" cy="-662.38" rx="88.49" ry="18"/>
<text text-anchor="middle" x="484.97" y="-656.95" font-family="Times New Roman,serif" font-size="14.00">13. if type_code &gt; 3:</text>
<text text-anchor="start" x="379.23" y="-667.08" font-family="Times New Roman,serif" font-size="14.00" fill="darkorange">2,4</text>
</g>
<!-- 10&#45;&gt;13 -->
<g id="edge12" class="edge">
<title>10&#45;&gt;13</title>
<path fill="none" stroke="blue" stroke-width="3.88" d="M384.58,-758.68C394.46,-753.28 405.01,-746.83 413.97,-739.81 431.57,-726.02 448.7,-707.76 461.73,-692.54"/>
<polygon fill="blue" stroke="blue" stroke-width="3.88" points="464.16,-695.08 467.87,-685.16 458.78,-690.61 464.16,-695.08"/>
<text text-anchor="middle" x="500.59" y="-726.51" font-family="Times New Roman,serif" font-size="14.00">&quot;(type_code != 0)&quot;</text>
<text text-anchor="middle" x="500.59" y="-710.76" font-family="Times New Roman,serif" font-size="14.00"> Score: 0.72</text>
<text text-anchor="start" x="414.95" y="-726.38" font-family="Times New Roman,serif" font-size="14.00" fill="darkmagenta">2,4</text>
</g>
<!-- 26 -->
<g id="node12" class="node">
<title>26</title>
<ellipse fill="none" stroke="black" cx="217.97" cy="-485.01" rx="150.79" ry="27.93"/>
<text text-anchor="middle" x="217.97" y="-479.59" font-family="Times New Roman,serif" font-size="14.00">26. type_code = display_type_code(4)</text>
<text text-anchor="start" x="49.93" y="-499.64" font-family="Times New Roman,serif" font-size="14.00" fill="darkorange">2,0</text>
</g>
<!-- 11&#45;&gt;26 -->
<g id="edge13" class="edge">
<title>11&#45;&gt;26</title>
<path fill="none" stroke="green" d="M217.97,-633.98C217.97,-604.51 217.97,-557.43 217.97,-524.3"/>
<polygon fill="green" stroke="green" points="221.47,-524.74 217.97,-514.74 214.47,-524.74 221.47,-524.74"/>
<text text-anchor="middle" x="322.22" y="-603.14" font-family="Times New Roman,serif" font-size="14.00">&quot;i + j &lt;= k or j + k &lt;= i or i + k &lt;= j&quot;</text>
<text text-anchor="middle" x="322.22" y="-587.39" font-family="Times New Roman,serif" font-size="14.00">c[11]</text>
<text text-anchor="start" x="200.72" y="-576.06" font-family="Times New Roman,serif" font-size="14.00" fill="darkmagenta">2,0</text>
</g>
<!-- 16 -->
<g id="node13" class="node">
<title>16</title>
<ellipse fill="none" stroke="black" cx="484.97" cy="-548.94" rx="141.88" ry="18"/>
<text text-anchor="middle" x="484.97" y="-543.52" font-family="Times New Roman,serif" font-size="14.00">16. if type_code == 1 and i + j &gt; k:</text>
<text text-anchor="start" x="325.84" y="-553.64" font-family="Times New Roman,serif" font-size="14.00" fill="darkorange">2,4</text>
</g>
<!-- 13&#45;&gt;16 -->
<g id="edge15" class="edge">
<title>13&#45;&gt;16</title>
<path fill="none" stroke="blue" stroke-width="3.64" d="M484.97,-643.96C484.97,-627.61 484.97,-602.72 484.97,-582.66"/>
<polygon fill="blue" stroke="blue" stroke-width="3.64" points="488.47,-582.74 484.97,-572.74 481.47,-582.74 488.47,-582.74"/>
<text text-anchor="middle" x="540.47" y="-603.14" font-family="Times New Roman,serif" font-size="14.00">&quot;(type_code &lt;= 3)&quot;</text>
<text text-anchor="middle" x="540.47" y="-587.39" font-family="Times New Roman,serif" font-size="14.00"> Score: 0.66</text>
<text text-anchor="start" x="467.72" y="-607.99" font-family="Times New Roman,serif" font-size="14.00" fill="darkmagenta">2,4</text>
</g>
<!-- 26&#45;&gt;3 -->
<g id="edge14" class="edge">
<title>26&#45;&gt;3</title>
<path fill="none" stroke="green" d="M218.65,-457.01C219.23,-431.52 219.97,-392.24 219.97,-358.15 219.97,-358.15 219.97,-358.15 219.97,-154.43 219.97,-94.65 287.48,-66.74 345.58,-53.78"/>
<polygon fill="green" stroke="green" points="346.13,-57.25 355.2,-51.77 344.69,-50.39 346.13,-57.25"/>
<text text-anchor="start" x="202.72" y="-156.88" font-family="Times New Roman,serif" font-size="14.00" fill="darkmagenta">2,0</text>
</g>
<!-- 17 -->
<g id="node14" class="node">
<title>17</title>
<ellipse fill="none" stroke="black" cx="389.97" cy="-357.15" rx="150.79" ry="27.93"/>
<text text-anchor="middle" x="389.97" y="-351.73" font-family="Times New Roman,serif" font-size="14.00">17. type_code = display_type_code(2)</text>
<text text-anchor="start" x="221.93" y="-371.78" font-family="Times New Roman,serif" font-size="14.00" fill="darkorange">1,0</text>
</g>
<!-- 16&#45;&gt;17 -->
<g id="edge16" class="edge">
<title>16&#45;&gt;17</title>
<path fill="none" stroke="green" d="M413.05,-533.15C403.59,-528.22 395.07,-521.67 388.97,-512.94 365.23,-479.02 370.43,-429.86 378.33,-396.09"/>
<polygon fill="green" stroke="green" points="381.64,-397.29 380.7,-386.74 374.85,-395.57 381.64,-397.29"/>
<text text-anchor="middle" x="475.97" y="-487.46" font-family="Times New Roman,serif" font-size="14.00">&quot;type_code == 1 and i + j &gt; k&quot;</text>
<text text-anchor="middle" x="475.97" y="-471.71" font-family="Times New Roman,serif" font-size="14.00">c[14]</text>
<text text-anchor="start" x="372.15" y="-447.96" font-family="Times New Roman,serif" font-size="14.00" fill="darkmagenta">1,0</text>
</g>
<!-- 19 -->
<g id="node15" class="node">
<title>19</title>
<ellipse fill="none" stroke="black" cx="588.97" cy="-421.08" rx="141.88" ry="18"/>
<text text-anchor="middle" x="588.97" y="-415.66" font-family="Times New Roman,serif" font-size="14.00">19. if type_code == 2 and i + k &gt; j:</text>
<text text-anchor="start" x="429.84" y="-425.78" font-family="Times New Roman,serif" font-size="14.00" fill="darkorange">1,4</text>
</g>
<!-- 16&#45;&gt;19 -->
<g id="edge17" class="edge">
<title>16&#45;&gt;19</title>
<path fill="none" stroke="blue" stroke-width="4.16" d="M541.68,-532.04C551.19,-527.21 560.17,-520.98 566.97,-512.94 580.46,-497.01 585.94,-474.15 588.07,-455.35"/>
<polygon fill="blue" stroke="blue" stroke-width="4.16" points="591.68,-455.83 588.77,-445.6 584.42,-455.31 591.68,-455.83"/>
<text text-anchor="middle" x="693.84" y="-487.46" font-family="Times New Roman,serif" font-size="14.00">&quot;(not (type_code == 1 and i + j &gt; k))&quot;</text>
<text text-anchor="middle" x="693.84" y="-471.71" font-family="Times New Roman,serif" font-size="14.00"> Score: 0.79</text>
<text text-anchor="start" x="566.64" y="-477.99" font-family="Times New Roman,serif" font-size="14.00" fill="darkmagenta">1,4</text>
</g>
<!-- 17&#45;&gt;3 -->
<g id="edge18" class="edge">
<title>17&#45;&gt;3</title>
<path fill="none" stroke="green" d="M391.63,-329.1C394.98,-279.14 403.65,-169.16 419.97,-77.75 420.36,-75.59 420.79,-73.36 421.24,-71.12"/>
<polygon fill="green" stroke="green" points="424.61,-72.13 423.33,-61.61 417.77,-70.63 424.61,-72.13"/>
<text text-anchor="start" x="386.34" y="-196.63" font-family="Times New Roman,serif" font-size="14.00" fill="darkmagenta">1,0</text>
</g>
<!-- 20 -->
<g id="node16" class="node">
<title>20</title>
<ellipse fill="none" stroke="black" cx="555.97" cy="-229.29" rx="150.79" ry="27.93"/>
<text text-anchor="middle" x="555.97" y="-223.87" font-family="Times New Roman,serif" font-size="14.00">20. type_code = display_type_code(2)</text>
<text text-anchor="start" x="387.93" y="-243.92" font-family="Times New Roman,serif" font-size="14.00" fill="darkorange">1,0</text>
</g>
<!-- 19&#45;&gt;20 -->
<g id="edge19" class="edge">
<title>19&#45;&gt;20</title>
<path fill="none" stroke="green" d="M571.68,-402.95C567.39,-397.65 563.34,-391.51 560.97,-385.08 547.04,-347.34 547.69,-300.84 550.63,-268.71"/>
<polygon fill="green" stroke="green" points="554.08,-269.38 551.63,-259.07 547.11,-268.65 554.08,-269.38"/>
<text text-anchor="middle" x="647.97" y="-359.6" font-family="Times New Roman,serif" font-size="14.00">&quot;type_code == 2 and i + k &gt; j&quot;</text>
<text text-anchor="middle" x="647.97" y="-343.85" font-family="Times New Roman,serif" font-size="14.00">c[15]</text>
<text text-anchor="start" x="549.91" y="-317.71" font-family="Times New Roman,serif" font-size="14.00" fill="darkmagenta">1,0</text>
</g>
<!-- 22 -->
<g id="node17" class="node">
<title>22</title>
<ellipse fill="none" stroke="black" cx="760.97" cy="-293.22" rx="141.88" ry="18"/>
<text text-anchor="middle" x="760.97" y="-287.8" font-family="Times New Roman,serif" font-size="14.00">22. if type_code == 3 and j + k &gt; i:</text>
<text text-anchor="start" x="601.84" y="-297.92" font-family="Times New Roman,serif" font-size="14.00" fill="darkorange">0,4</text>
</g>
<!-- 19&#45;&gt;22 -->
<g id="edge20" class="edge">
<title>19&#45;&gt;22</title>
<path fill="none" stroke="red" stroke-width="5" d="M680.02,-406.92C705.99,-401.45 729.76,-394.22 738.97,-385.08 753.97,-370.21 759.4,-346.97 761.12,-327.72"/>
<polygon fill="red" stroke="red" stroke-width="5" points="765.49,-327.93 761.55,-317.75 756.75,-327.55 765.49,-327.93"/>
<text text-anchor="middle" x="866.84" y="-359.6" font-family="Times New Roman,serif" font-size="14.00">&quot;(not (type_code == 2 and i + k &gt; j))&quot;</text>
<text text-anchor="middle" x="866.84" y="-343.85" font-family="Times New Roman,serif" font-size="14.00"> Score: 1</text>
<text text-anchor="start" x="728.91" y="-378.78" font-family="Times New Roman,serif" font-size="14.00" fill="darkmagenta">0,4</text>
</g>
<!-- 20&#45;&gt;3 -->
<g id="edge21" class="edge">
<title>20&#45;&gt;3</title>
<path fill="none" stroke="green" d="M473.42,-205.64C463.29,-199.82 454.03,-192.52 446.97,-183.36 422.13,-151.16 421.43,-102.02 424.06,-71.17"/>
<polygon fill="green" stroke="green" points="427.52,-71.75 425.08,-61.44 420.55,-71.03 427.52,-71.75"/>
<text text-anchor="start" x="409.9" y="-140.07" font-family="Times New Roman,serif" font-size="14.00" fill="darkmagenta">1,0</text>
</g>
<!-- 23 -->
<g id="node18" class="node">
<title>23</title>
<ellipse fill="none" stroke="black" cx="606.97" cy="-155.43" rx="150.79" ry="27.93"/>
<text text-anchor="middle" x="606.97" y="-150.01" font-family="Times New Roman,serif" font-size="14.00">23. type_code = display_type_code(2)</text>
<text text-anchor="start" x="438.93" y="-170.06" font-family="Times New Roman,serif" font-size="14.00" fill="darkorange">0,2</text>
</g>
<!-- 22&#45;&gt;23 -->
<g id="edge22" class="edge">
<title>22&#45;&gt;23</title>
<path fill="none" stroke="red" stroke-width="5" d="M744.23,-274.91C739.56,-269.51 734.73,-263.36 730.97,-257.22 716.94,-234.33 726.69,-220.61 707.97,-201.36 703.38,-196.64 698.2,-192.38 692.68,-188.54"/>
<polygon fill="red" stroke="red" stroke-width="5" points="695.42,-185.08 684.61,-183.58 690.84,-192.54 695.42,-185.08"/>
<text text-anchor="middle" x="817.97" y="-239.62" font-family="Times New Roman,serif" font-size="14.00">&quot;type_code == 3 and j + k &gt; i&quot;</text>
<text text-anchor="middle" x="817.97" y="-223.87" font-family="Times New Roman,serif" font-size="14.00">c[16]</text>
<text text-anchor="middle" x="817.97" y="-208.12" font-family="Times New Roman,serif" font-size="14.00"> Score: 1</text>
<text text-anchor="start" x="712.12" y="-212.19" font-family="Times New Roman,serif" font-size="14.00" fill="darkmagenta">0,2</text>
</g>
<!-- 25 -->
<g id="node19" class="node">
<title>25</title>
<ellipse fill="none" stroke="black" cx="926.97" cy="-155.43" rx="150.79" ry="27.93"/>
<text text-anchor="middle" x="926.97" y="-150.01" font-family="Times New Roman,serif" font-size="14.00">25. type_code = display_type_code(4)</text>
<text text-anchor="start" x="758.93" y="-170.06" font-family="Times New Roman,serif" font-size="14.00" fill="darkorange">0,2</text>
</g>
<!-- 22&#45;&gt;25 -->
<g id="edge23" class="edge">
<title>22&#45;&gt;25</title>
<path fill="none" stroke="red" stroke-width="5" d="M848.91,-278.73C873.7,-273.26 896.29,-266.1 904.97,-257.22 919.73,-242.11 925.56,-219.52 927.55,-199.56"/>
<polygon fill="red" stroke="red" stroke-width="5" points="931.91,-200.08 928.09,-189.85 923.17,-199.59 931.91,-200.08"/>
<text text-anchor="middle" x="1033.84" y="-239.62" font-family="Times New Roman,serif" font-size="14.00">&quot;(not (type_code == 3 and j + k &gt; i))&quot;</text>
<text text-anchor="middle" x="1033.84" y="-223.87" font-family="Times New Roman,serif" font-size="14.00">c[17]</text>
<text text-anchor="middle" x="1033.84" y="-208.12" font-family="Times New Roman,serif" font-size="14.00"> Score: 1</text>
<text text-anchor="start" x="908.85" y="-233.45" font-family="Times New Roman,serif" font-size="14.00" fill="darkmagenta">0,2</text>
</g>
<!-- 23&#45;&gt;3 -->
<g id="edge24" class="edge">
<title>23&#45;&gt;3</title>
<path fill="none" stroke="red" stroke-width="5" d="M565,-128.25C535.74,-109.99 496.93,-85.78 468.09,-67.78"/>
<polygon fill="red" stroke="red" stroke-width="5" points="470.5,-64.13 459.7,-62.55 465.87,-71.56 470.5,-64.13"/>
<text text-anchor="middle" x="558.09" y="-80.2" font-family="Times New Roman,serif" font-size="14.00"> Score: 1</text>
<text text-anchor="start" x="492.39" y="-96.15" font-family="Times New Roman,serif" font-size="14.00" fill="darkmagenta">0,2</text>
</g>
<!-- 25&#45;&gt;3 -->
<g id="edge25" class="edge">
<title>25&#45;&gt;3</title>
<path fill="none" stroke="red" stroke-width="5" d="M833.19,-133.15C764.93,-117.68 670.25,-96.31 586.97,-77.75 558.85,-71.48 527.92,-64.66 500.87,-58.71"/>
<polygon fill="red" stroke="red" stroke-width="5" points="501.82,-54.44 491.11,-56.57 499.94,-62.99 501.82,-54.44"/>
<text text-anchor="middle" x="752.09" y="-80.2" font-family="Times New Roman,serif" font-size="14.00"> Score: 1</text>
<text text-anchor="start" x="642.36" y="-96.45" font-family="Times New Roman,serif" font-size="14.00" fill="darkmagenta">0,2</text>
</g>
</g>
</svg>
