<?xml version="1.0" encoding="UTF-8" standalone="no"?>
<!DOCTYPE svg PUBLIC "-//W3C//DTD SVG 1.1//EN"
 "http://www.w3.org/Graphics/SVG/1.1/DTD/svg11.dtd">
<!-- Generated by graphviz version 10.0.1 (20240210.2158)
 -->
<!-- Title: clusters_trityp_split Pages: 1 -->
<svg width="1627pt" height="1530pt"
 viewBox="0.00 0.00 1626.79 1530.14" xmlns="http://www.w3.org/2000/svg" xmlns:xlink="http://www.w3.org/1999/xlink">
<g id="graph0" class="graph" transform="scale(1 1) rotate(0) translate(4 1526.14)">
<title>clusters_trityp_split</title>
<polygon fill="white" stroke="none" points="-4,4 -4,-1526.14 1622.79,-1526.14 1622.79,4 -4,4"/>
<text text-anchor="middle" x="809.39" y="-6.45" font-family="Times New Roman,serif" font-size="14.00">s_trityp_split</text>
<!-- 1 -->
<g id="node1" class="node">
<title>1</title>
<ellipse fill="none" stroke="black" cx="284.04" cy="-1488.39" rx="125.41" ry="18"/>
<text text-anchor="middle" x="284.04" y="-1482.96" font-family="Times New Roman,serif" font-size="14.00">1. if i == 0 or j == 0 or k == 0:</text>
<text text-anchor="start" x="141.38" y="-1493.09" font-family="Times New Roman,serif" font-size="14.00" fill="darkorange">4,4</text>
</g>
<!-- 2 -->
<g id="node2" class="node">
<title>2</title>
<ellipse fill="none" stroke="black" cx="168.04" cy="-1278.82" rx="150.79" ry="27.93"/>
<text text-anchor="middle" x="168.04" y="-1273.4" font-family="Times New Roman,serif" font-size="14.00">2. type_code = display_type_code(3)</text>
<text text-anchor="start" x="0" y="-1293.45" font-family="Times New Roman,serif" font-size="14.00" fill="darkorange">0,0</text>
</g>
<!-- 1&#45;&gt;2 -->
<g id="edge1" class="edge">
<title>1&#45;&gt;2</title>
<path fill="none" stroke="black" d="M221.51,-1472.52C211.41,-1467.6 202,-1461.07 195.04,-1452.39 164.62,-1414.43 161.72,-1356.29 163.8,-1318.16"/>
<polygon fill="black" stroke="black" points="167.26,-1318.74 164.47,-1308.52 160.28,-1318.25 167.26,-1318.74"/>
<text text-anchor="middle" x="273.04" y="-1439.09" font-family="Times New Roman,serif" font-size="14.00">&quot;i == 0 or j == 0 or k == 0&quot;</text>
<text text-anchor="middle" x="273.04" y="-1423.34" font-family="Times New Roman,serif" font-size="14.00">c[5]:(0,0) 0</text>
<text text-anchor="start" x="151.9" y="-1397.36" font-family="Times New Roman,serif" font-size="14.00" fill="darkmagenta">0,0</text>
</g>
<!-- 4 -->
<g id="node3" class="node">
<title>4</title>
<ellipse fill="none" stroke="black" cx="395.04" cy="-1363.82" rx="69.12" ry="39.07"/>
<text text-anchor="middle" x="395.04" y="-1366.27" font-family="Times New Roman,serif" font-size="14.00">4. type_code = 0</text>
<text text-anchor="middle" x="395.04" y="-1350.52" font-family="Times New Roman,serif" font-size="14.00">if i == j:</text>
<text text-anchor="start" x="308.67" y="-1389.59" font-family="Times New Roman,serif" font-size="14.00" fill="darkorange">4,4</text>
</g>
<!-- 1&#45;&gt;4 -->
<g id="edge2" class="edge">
<title>1&#45;&gt;4</title>
<path fill="none" stroke="blue" stroke-width="3.28" d="M328.82,-1471.12C338.31,-1466.17 347.67,-1459.98 355.04,-1452.39 364.87,-1442.26 372.57,-1429.28 378.47,-1416.44"/>
<polygon fill="blue" stroke="blue" stroke-width="3.28" points="381.67,-1417.86 382.28,-1407.28 375.21,-1415.17 381.67,-1417.86"/>
<text text-anchor="middle" x="472.91" y="-1439.09" font-family="Times New Roman,serif" font-size="14.00">&quot;(not (i == 0 or j == 0 or k == 0))&quot;</text>
<text text-anchor="middle" x="472.91" y="-1423.34" font-family="Times New Roman,serif" font-size="14.00">c[6]:(4,4) 0.57</text>
<text text-anchor="start" x="355.02" y="-1428.85" font-family="Times New Roman,serif" font-size="14.00" fill="darkmagenta">4,4</text>
</g>
<!-- 3 -->
<g id="node4" class="node">
<title>3</title>
<ellipse fill="none" stroke="black" cx="858.04" cy="-41.75" rx="83.5" ry="18"/>
<text text-anchor="middle" x="858.04" y="-36.33" font-family="Times New Roman,serif" font-size="14.00">3. return type_code</text>
<text text-anchor="start" x="757.29" y="-46.45" font-family="Times New Roman,serif" font-size="14.00" fill="darkorange">4,4</text>
</g>
<!-- 2&#45;&gt;3 -->
<g id="edge3" class="edge">
<title>2&#45;&gt;3</title>
<path fill="none" stroke="black" d="M165.51,-1250.48C163.51,-1226.42 161.04,-1190.43 161.04,-1159.03 161.04,-1159.03 161.04,-1159.03 161.04,-123.68 161.04,-109.03 167.31,-104 180.04,-96.75 229.58,-68.52 590.36,-52.15 764.49,-45.81"/>
<polygon fill="black" stroke="black" points="764.56,-49.31 774.43,-45.45 764.31,-42.32 764.56,-49.31"/>
<text text-anchor="start" x="143.79" y="-1032.06" font-family="Times New Roman,serif" font-size="14.00" fill="darkmagenta">0,0</text>
</g>
<!-- 5 -->
<g id="node5" class="node">
<title>5</title>
<ellipse fill="none" stroke="black" cx="395.04" cy="-1204.96" rx="205.95" ry="27.93"/>
<text text-anchor="middle" x="395.04" y="-1199.53" font-family="Times New Roman,serif" font-size="14.00">5. type_code = is_side_one_equal_two(type_code)</text>
<text text-anchor="start" x="171.84" y="-1219.59" font-family="Times New Roman,serif" font-size="14.00" fill="darkorange">1,0</text>
</g>
<!-- 4&#45;&gt;5 -->
<g id="edge4" class="edge">
<title>4&#45;&gt;5</title>
<path fill="none" stroke="green" d="M395.04,-1324.45C395.04,-1300.13 395.04,-1268.78 395.04,-1244.44"/>
<polygon fill="green" stroke="green" points="398.54,-1244.63 395.04,-1234.63 391.54,-1244.63 398.54,-1244.63"/>
<text text-anchor="middle" x="426.16" y="-1281.27" font-family="Times New Roman,serif" font-size="14.00">&quot;i == j&quot;</text>
<text text-anchor="middle" x="426.16" y="-1265.52" font-family="Times New Roman,serif" font-size="14.00">c[7]:(1,0) 0</text>
<text text-anchor="start" x="377.79" y="-1281.04" font-family="Times New Roman,serif" font-size="14.00" fill="darkmagenta">1,0</text>
</g>
<!-- 6 -->
<g id="node6" class="node">
<title>6</title>
<ellipse fill="none" stroke="black" cx="623.04" cy="-1122.03" rx="52.06" ry="18"/>
<text text-anchor="middle" x="623.04" y="-1116.6" font-family="Times New Roman,serif" font-size="14.00">6. if i == k:</text>
<text text-anchor="start" x="553.73" y="-1126.73" font-family="Times New Roman,serif" font-size="14.00" fill="darkorange">4,4</text>
</g>
<!-- 4&#45;&gt;6 -->
<g id="edge5" class="edge">
<title>4&#45;&gt;6</title>
<path fill="none" stroke="blue" d="M454.38,-1343.69C504.61,-1324.2 574.01,-1288.79 610.04,-1232.89 625.63,-1208.69 627.42,-1175.17 626.23,-1151.54"/>
<polygon fill="blue" stroke="blue" points="629.73,-1151.41 625.5,-1141.69 622.75,-1151.93 629.73,-1151.41"/>
<text text-anchor="middle" x="642.66" y="-1199.53" font-family="Times New Roman,serif" font-size="14.00">(i != j)</text>
<text text-anchor="start" x="553.25" y="-1279.83" font-family="Times New Roman,serif" font-size="14.00" fill="darkmagenta">3,4</text>
</g>
<!-- 5&#45;&gt;6 -->
<g id="edge6" class="edge">
<title>5&#45;&gt;6</title>
<path fill="none" stroke="green" d="M467.18,-1178.35C503.12,-1165.59 545.52,-1150.55 577.01,-1139.37"/>
<polygon fill="green" stroke="green" points="577.99,-1142.73 586.24,-1136.09 575.64,-1136.14 577.99,-1142.73"/>
<text text-anchor="start" x="510.52" y="-1159.3" font-family="Times New Roman,serif" font-size="14.00" fill="darkmagenta">1,0</text>
</g>
<!-- 7 -->
<g id="node7" class="node">
<title>7</title>
<ellipse fill="none" stroke="black" cx="579.04" cy="-1008.6" rx="210.19" ry="27.93"/>
<text text-anchor="middle" x="579.04" y="-1003.17" font-family="Times New Roman,serif" font-size="14.00">7. type_code = is_side_one_equal_three(type_code)</text>
<text text-anchor="start" x="351.6" y="-1023.23" font-family="Times New Roman,serif" font-size="14.00" fill="darkorange">1,0</text>
</g>
<!-- 6&#45;&gt;7 -->
<g id="edge7" class="edge">
<title>6&#45;&gt;7</title>
<path fill="none" stroke="green" d="M616.36,-1104.1C610.42,-1089.07 601.53,-1066.56 593.92,-1047.28"/>
<polygon fill="green" stroke="green" points="597.21,-1046.1 590.29,-1038.08 590.7,-1048.67 597.21,-1046.1"/>
<text text-anchor="middle" x="639.16" y="-1072.73" font-family="Times New Roman,serif" font-size="14.00">&quot;i == k&quot;</text>
<text text-anchor="middle" x="639.16" y="-1056.98" font-family="Times New Roman,serif" font-size="14.00">c[8]:(1,0) 0</text>
<text text-anchor="start" x="585.74" y="-1072.69" font-family="Times New Roman,serif" font-size="14.00" fill="darkmagenta">1,0</text>
</g>
<!-- 8 -->
<g id="node8" class="node">
<title>8</title>
<ellipse fill="none" stroke="black" cx="767.04" cy="-925.67" rx="52.06" ry="18"/>
<text text-anchor="middle" x="767.04" y="-920.24" font-family="Times New Roman,serif" font-size="14.00">8. if j == k:</text>
<text text-anchor="start" x="697.73" y="-930.37" font-family="Times New Roman,serif" font-size="14.00" fill="darkorange">4,4</text>
</g>
<!-- 6&#45;&gt;8 -->
<g id="edge8" class="edge">
<title>6&#45;&gt;8</title>
<path fill="none" stroke="blue" d="M668.68,-1113.02C710.44,-1103.01 769.88,-1081.39 798.04,-1036.53 814.19,-1010.79 799.88,-976.48 785.8,-953.09"/>
<polygon fill="blue" stroke="blue" points="788.81,-951.31 780.48,-944.77 782.91,-955.08 788.81,-951.31"/>
<text text-anchor="middle" x="824.54" y="-1003.17" font-family="Times New Roman,serif" font-size="14.00">(i != k)</text>
<text text-anchor="start" x="739.02" y="-1079.92" font-family="Times New Roman,serif" font-size="14.00" fill="darkmagenta">3,4</text>
</g>
<!-- 7&#45;&gt;8 -->
<g id="edge9" class="edge">
<title>7&#45;&gt;8</title>
<path fill="none" stroke="green" d="M639.82,-981.43C667.7,-969.43 700.05,-955.5 725.15,-944.7"/>
<polygon fill="green" stroke="green" points="726.24,-948.04 734.04,-940.87 723.48,-941.61 726.24,-948.04"/>
<text text-anchor="start" x="670.4" y="-963.29" font-family="Times New Roman,serif" font-size="14.00" fill="darkmagenta">1,0</text>
</g>
<!-- 9 -->
<g id="node9" class="node">
<title>9</title>
<ellipse fill="none" stroke="black" cx="530.04" cy="-812.24" rx="210.72" ry="27.93"/>
<text text-anchor="middle" x="530.04" y="-806.81" font-family="Times New Roman,serif" font-size="14.00">9. type_code = is_side_two_equal_three(type_code)</text>
<text text-anchor="start" x="302.07" y="-826.87" font-family="Times New Roman,serif" font-size="14.00" fill="darkorange">0,4</text>
</g>
<!-- 8&#45;&gt;9 -->
<g id="edge10" class="edge">
<title>8&#45;&gt;9</title>
<path fill="none" stroke="red" stroke-width="5" d="M736.36,-910.82C722.29,-904.44 705.42,-896.72 690.29,-889.67 660.32,-875.69 627.32,-860 599.1,-846.49"/>
<polygon fill="red" stroke="red" stroke-width="5" points="601.35,-842.72 590.44,-842.34 597.57,-850.61 601.35,-842.72"/>
<text text-anchor="middle" x="726.41" y="-876.37" font-family="Times New Roman,serif" font-size="14.00">&quot;j == k&quot;</text>
<text text-anchor="middle" x="726.41" y="-860.62" font-family="Times New Roman,serif" font-size="14.00">c[9]:(0,4) 1.0</text>
<text text-anchor="start" x="643.2" y="-878.11" font-family="Times New Roman,serif" font-size="14.00" fill="darkmagenta">0,4</text>
</g>
<!-- 10 -->
<g id="node10" class="node">
<title>10</title>
<ellipse fill="none" stroke="black" cx="709.04" cy="-729.31" rx="93.98" ry="18"/>
<text text-anchor="middle" x="709.04" y="-723.88" font-family="Times New Roman,serif" font-size="14.00">10. if type_code == 0:</text>
<text text-anchor="start" x="597.81" y="-734.01" font-family="Times New Roman,serif" font-size="14.00" fill="darkorange">4,4</text>
</g>
<!-- 8&#45;&gt;10 -->
<g id="edge11" class="edge">
<title>8&#45;&gt;10</title>
<path fill="none" stroke="green" d="M768.05,-907.43C768.99,-880.1 768.12,-825.7 750.04,-784.31 745.73,-774.43 739.25,-764.71 732.72,-756.3"/>
<polygon fill="green" stroke="green" points="735.44,-754.1 726.39,-748.59 730.03,-758.54 735.44,-754.1"/>
<text text-anchor="middle" x="783.54" y="-806.81" font-family="Times New Roman,serif" font-size="14.00">(j != k)</text>
<text text-anchor="start" x="744.85" y="-826.54" font-family="Times New Roman,serif" font-size="14.00" fill="darkmagenta">4,0</text>
</g>
<!-- 9&#45;&gt;10 -->
<g id="edge12" class="edge">
<title>9&#45;&gt;10</title>
<path fill="none" stroke="red" d="M588.16,-784.96C612.48,-773.96 640.34,-761.37 663.18,-751.04"/>
<polygon fill="red" stroke="red" points="664.58,-754.25 672.25,-746.94 661.69,-747.87 664.58,-754.25"/>
<text text-anchor="start" x="613.49" y="-768.16" font-family="Times New Roman,serif" font-size="14.00" fill="darkmagenta">0,4</text>
</g>
<!-- 11 -->
<g id="node11" class="node">
<title>11</title>
<ellipse fill="none" stroke="black" cx="576.04" cy="-272.4" rx="160.34" ry="27.93"/>
<text text-anchor="middle" x="576.04" y="-266.98" font-family="Times New Roman,serif" font-size="14.00">11. if i + j &lt;= k or j + k &lt;= i or i + k &lt;= j:</text>
<text text-anchor="start" x="398.45" y="-287.03" font-family="Times New Roman,serif" font-size="14.00" fill="darkorange">2,0</text>
</g>
<!-- 10&#45;&gt;11 -->
<g id="edge13" class="edge">
<title>10&#45;&gt;11</title>
<path fill="none" stroke="green" d="M692.18,-711.21C678,-694.96 660.04,-669.13 660.04,-642.56 660.04,-642.56 660.04,-642.56 660.04,-409.19 660.04,-370.59 635.18,-333.8 612.51,-308.28"/>
<polygon fill="green" stroke="green" points="615.32,-306.17 605.97,-301.18 610.18,-310.91 615.32,-306.17"/>
<text text-anchor="middle" x="711.04" y="-540.51" font-family="Times New Roman,serif" font-size="14.00">&quot;type_code == 0&quot;</text>
<text text-anchor="middle" x="711.04" y="-524.76" font-family="Times New Roman,serif" font-size="14.00">c[10]:(2,0) 0</text>
<text text-anchor="start" x="642.79" y="-411.64" font-family="Times New Roman,serif" font-size="14.00" fill="darkmagenta">2,0</text>
</g>
<!-- 13 -->
<g id="node12" class="node">
<title>13</title>
<ellipse fill="none" stroke="black" cx="831.04" cy="-641.56" rx="88.49" ry="18"/>
<text text-anchor="middle" x="831.04" y="-636.13" font-family="Times New Roman,serif" font-size="14.00">13. if type_code &gt; 3:</text>
<text text-anchor="start" x="725.3" y="-646.26" font-family="Times New Roman,serif" font-size="14.00" fill="darkorange">2,4</text>
</g>
<!-- 10&#45;&gt;13 -->
<g id="edge14" class="edge">
<title>10&#45;&gt;13</title>
<path fill="none" stroke="blue" d="M732.85,-711.57C751.41,-698.53 777.39,-680.26 797.97,-665.8"/>
<polygon fill="blue" stroke="blue" points="799.88,-668.74 806.05,-660.12 795.86,-663.01 799.88,-668.74"/>
<text text-anchor="middle" x="827.66" y="-680.01" font-family="Times New Roman,serif" font-size="14.00">(type_code != 0)</text>
<text text-anchor="start" x="752.75" y="-687.91" font-family="Times New Roman,serif" font-size="14.00" fill="darkmagenta">2,4</text>
</g>
<!-- 26 -->
<g id="node13" class="node">
<title>26</title>
<ellipse fill="none" stroke="black" cx="340.04" cy="-124.68" rx="150.79" ry="27.93"/>
<text text-anchor="middle" x="340.04" y="-119.26" font-family="Times New Roman,serif" font-size="14.00">26. type_code = display_type_code(4)</text>
<text text-anchor="start" x="172" y="-139.31" font-family="Times New Roman,serif" font-size="14.00" fill="darkorange">2,0</text>
</g>
<!-- 11&#45;&gt;26 -->
<g id="edge15" class="edge">
<title>11&#45;&gt;26</title>
<path fill="none" stroke="green" d="M440.58,-257.14C401.89,-250.31 366.63,-240.46 353.54,-226.47 338.24,-210.13 334.79,-185.24 335.2,-164.29"/>
<polygon fill="green" stroke="green" points="338.69,-164.5 335.72,-154.33 331.7,-164.13 338.69,-164.5"/>
<text text-anchor="middle" x="457.29" y="-200.99" font-family="Times New Roman,serif" font-size="14.00">&quot;i + j &lt;= k or j + k &lt;= i or i + k &lt;= j&quot;</text>
<text text-anchor="middle" x="457.29" y="-185.24" font-family="Times New Roman,serif" font-size="14.00">c[11]:(2,0) 0</text>
<text text-anchor="start" x="336.28" y="-228.91" font-family="Times New Roman,serif" font-size="14.00" fill="darkmagenta">2,0</text>
</g>
<!-- 28 -->
<g id="node14" class="node">
<title>28</title>
<ellipse fill="none" stroke="black" cx="660.04" cy="-124.68" rx="150.79" ry="27.93"/>
<text text-anchor="middle" x="660.04" y="-119.26" font-family="Times New Roman,serif" font-size="14.00">28. type_code = display_type_code(1)</text>
<text text-anchor="start" x="492" y="-139.31" font-family="Times New Roman,serif" font-size="14.00" fill="darkorange">0,0</text>
</g>
<!-- 11&#45;&gt;28 -->
<g id="edge16" class="edge">
<title>11&#45;&gt;28</title>
<path fill="none" stroke="black" d="M569.12,-244.13C565.25,-222.61 563.53,-192.65 576.79,-170.61 579.66,-165.85 583.22,-161.56 587.24,-157.7"/>
<polygon fill="black" stroke="black" points="589.45,-160.42 594.92,-151.35 584.98,-155.03 589.45,-160.42"/>
<text text-anchor="middle" x="700.16" y="-200.99" font-family="Times New Roman,serif" font-size="14.00">&quot;(not (i + j &lt;= k or j + k &lt;= i or i + k &lt;= j))&quot;</text>
<text text-anchor="middle" x="700.16" y="-185.24" font-family="Times New Roman,serif" font-size="14.00">c[12]:(0,0) 0</text>
<text text-anchor="start" x="559.39" y="-181.59" font-family="Times New Roman,serif" font-size="14.00" fill="darkmagenta">0,0</text>
</g>
<!-- 14 -->
<g id="node15" class="node">
<title>14</title>
<ellipse fill="none" stroke="black" cx="831.04" cy="-474.13" rx="150.79" ry="27.93"/>
<text text-anchor="middle" x="831.04" y="-468.7" font-family="Times New Roman,serif" font-size="14.00">14. type_code = display_type_code(3)</text>
<text text-anchor="start" x="663" y="-488.76" font-family="Times New Roman,serif" font-size="14.00" fill="darkorange">0,0</text>
</g>
<!-- 13&#45;&gt;14 -->
<g id="edge19" class="edge">
<title>13&#45;&gt;14</title>
<path fill="none" stroke="black" d="M831.04,-623.16C831.04,-597.3 831.04,-548.05 831.04,-513.48"/>
<polygon fill="black" stroke="black" points="834.54,-513.88 831.04,-503.88 827.54,-513.88 834.54,-513.88"/>
<text text-anchor="middle" x="877.91" y="-592.26" font-family="Times New Roman,serif" font-size="14.00">&quot;type_code &gt; 3&quot;</text>
<text text-anchor="middle" x="877.91" y="-576.51" font-family="Times New Roman,serif" font-size="14.00">c[13]:(0,0) 0</text>
<text text-anchor="start" x="813.79" y="-565.13" font-family="Times New Roman,serif" font-size="14.00" fill="darkmagenta">0,0</text>
</g>
<!-- 16 -->
<g id="node16" class="node">
<title>16</title>
<ellipse fill="none" stroke="black" cx="1005.04" cy="-538.06" rx="141.88" ry="18"/>
<text text-anchor="middle" x="1005.04" y="-532.63" font-family="Times New Roman,serif" font-size="14.00">16. if type_code == 1 and i + j &gt; k:</text>
<text text-anchor="start" x="845.91" y="-542.76" font-family="Times New Roman,serif" font-size="14.00" fill="darkorange">2,4</text>
</g>
<!-- 13&#45;&gt;16 -->
<g id="edge20" class="edge">
<title>13&#45;&gt;16</title>
<path fill="none" stroke="blue" d="M882.01,-626.4C897.66,-621.01 914.55,-614.06 929.04,-605.56 948.07,-594.38 966.76,-578.12 980.84,-564.47"/>
<polygon fill="blue" stroke="blue" points="983.28,-566.98 987.91,-557.45 978.35,-562.02 983.28,-566.98"/>
<text text-anchor="middle" x="1019.54" y="-584.38" font-family="Times New Roman,serif" font-size="14.00">(type_code &lt;= 3)</text>
<text text-anchor="start" x="940.12" y="-600.93" font-family="Times New Roman,serif" font-size="14.00" fill="darkmagenta">2,4</text>
</g>
<!-- 26&#45;&gt;3 -->
<g id="edge17" class="edge">
<title>26&#45;&gt;3</title>
<path fill="none" stroke="green" d="M449.31,-105.03C466.28,-102.21 483.63,-99.37 500.04,-96.75 595.93,-81.45 706.46,-64.95 779.04,-54.27"/>
<polygon fill="green" stroke="green" points="779.47,-57.75 788.86,-52.83 778.45,-50.82 779.47,-57.75"/>
<text text-anchor="start" x="602.8" y="-80.52" font-family="Times New Roman,serif" font-size="14.00" fill="darkmagenta">2,0</text>
</g>
<!-- 28&#45;&gt;3 -->
<g id="edge18" class="edge">
<title>28&#45;&gt;3</title>
<path fill="none" stroke="black" d="M721.06,-98.74C749.52,-87.1 782.92,-73.45 809.61,-62.54"/>
<polygon fill="black" stroke="black" points="810.9,-65.8 818.83,-58.77 808.25,-59.32 810.9,-65.8"/>
<text text-anchor="start" x="753.39" y="-80.92" font-family="Times New Roman,serif" font-size="14.00" fill="darkmagenta">0,0</text>
</g>
<!-- 14&#45;&gt;3 -->
<g id="edge21" class="edge">
<title>14&#45;&gt;3</title>
<path fill="none" stroke="black" d="M833.75,-446.15C836.07,-420.69 839.04,-381.42 839.04,-347.26 839.04,-347.26 839.04,-347.26 839.04,-123.68 839.04,-105.85 843.46,-86.39 848.04,-71.02"/>
<polygon fill="black" stroke="black" points="851.34,-72.19 851.04,-61.6 844.67,-70.06 851.34,-72.19"/>
<text text-anchor="start" x="821.79" y="-321.77" font-family="Times New Roman,serif" font-size="14.00" fill="darkmagenta">0,0</text>
</g>
<!-- 17 -->
<g id="node17" class="node">
<title>17</title>
<ellipse fill="none" stroke="black" cx="1005.04" cy="-346.26" rx="150.79" ry="27.93"/>
<text text-anchor="middle" x="1005.04" y="-340.84" font-family="Times New Roman,serif" font-size="14.00">17. type_code = display_type_code(2)</text>
<text text-anchor="start" x="837" y="-360.89" font-family="Times New Roman,serif" font-size="14.00" fill="darkorange">1,0</text>
</g>
<!-- 16&#45;&gt;17 -->
<g id="edge22" class="edge">
<title>16&#45;&gt;17</title>
<path fill="none" stroke="green" d="M1003.25,-519.63C1002.75,-514.02 1002.28,-507.78 1002.04,-502.06 1000.35,-462.53 1001.59,-417.28 1002.96,-385.96"/>
<polygon fill="green" stroke="green" points="1006.44,-386.34 1003.41,-376.19 999.45,-386.02 1006.44,-386.34"/>
<text text-anchor="middle" x="1089.04" y="-476.58" font-family="Times New Roman,serif" font-size="14.00">&quot;type_code == 1 and i + j &gt; k&quot;</text>
<text text-anchor="middle" x="1089.04" y="-460.83" font-family="Times New Roman,serif" font-size="14.00">c[14]:(1,0) 0</text>
<text text-anchor="start" x="984.03" y="-449.55" font-family="Times New Roman,serif" font-size="14.00" fill="darkmagenta">1,0</text>
</g>
<!-- 19 -->
<g id="node18" class="node">
<title>19</title>
<ellipse fill="none" stroke="black" cx="1202.04" cy="-410.19" rx="141.88" ry="18"/>
<text text-anchor="middle" x="1202.04" y="-404.77" font-family="Times New Roman,serif" font-size="14.00">19. if type_code == 2 and i + k &gt; j:</text>
<text text-anchor="start" x="1042.91" y="-414.89" font-family="Times New Roman,serif" font-size="14.00" fill="darkorange">1,4</text>
</g>
<!-- 16&#45;&gt;19 -->
<g id="edge23" class="edge">
<title>16&#45;&gt;19</title>
<path fill="none" stroke="blue" d="M1109.76,-525.62C1140.59,-520.25 1169.04,-512.63 1180.04,-502.06 1196.6,-486.15 1201.57,-460.08 1202.71,-439.94"/>
<polygon fill="blue" stroke="blue" points="1206.21,-440.19 1202.96,-430.11 1199.21,-440.02 1206.21,-440.19"/>
<text text-anchor="middle" x="1302.91" y="-468.7" font-family="Times New Roman,serif" font-size="14.00">(not (type_code == 1 and i + j &gt; k))</text>
<text text-anchor="start" x="1163.56" y="-503.75" font-family="Times New Roman,serif" font-size="14.00" fill="darkmagenta">1,4</text>
</g>
<!-- 17&#45;&gt;3 -->
<g id="edge24" class="edge">
<title>17&#45;&gt;3</title>
<path fill="none" stroke="green" d="M970.21,-318.69C944.17,-296.84 909.92,-263.53 891.04,-226.47 865.28,-175.93 859.32,-108.6 858.13,-71.08"/>
<polygon fill="green" stroke="green" points="861.63,-71.44 857.92,-61.52 854.64,-71.59 861.63,-71.44"/>
<text text-anchor="start" x="862.99" y="-203.86" font-family="Times New Roman,serif" font-size="14.00" fill="darkmagenta">1,0</text>
</g>
<!-- 20 -->
<g id="node19" class="node">
<title>20</title>
<ellipse fill="none" stroke="black" cx="1043.04" cy="-198.54" rx="150.79" ry="27.93"/>
<text text-anchor="middle" x="1043.04" y="-193.12" font-family="Times New Roman,serif" font-size="14.00">20. type_code = display_type_code(2)</text>
<text text-anchor="start" x="875" y="-213.17" font-family="Times New Roman,serif" font-size="14.00" fill="darkorange">1,0</text>
</g>
<!-- 19&#45;&gt;20 -->
<g id="edge25" class="edge">
<title>19&#45;&gt;20</title>
<path fill="none" stroke="green" d="M1187.68,-392.1C1183.54,-386.62 1179.28,-380.36 1176.04,-374.19 1163.85,-350.98 1170.66,-340.74 1157.04,-318.33 1137.51,-286.22 1107.97,-255.75 1083.85,-233.72"/>
<polygon fill="green" stroke="green" points="1086.47,-231.37 1076.69,-227.3 1081.8,-236.58 1086.47,-231.37"/>
<text text-anchor="middle" x="1263.04" y="-348.71" font-family="Times New Roman,serif" font-size="14.00">&quot;type_code == 2 and i + k &gt; j&quot;</text>
<text text-anchor="middle" x="1263.04" y="-332.96" font-family="Times New Roman,serif" font-size="14.00">c[15]:(1,0) 0</text>
<text text-anchor="start" x="1127.32" y="-302.21" font-family="Times New Roman,serif" font-size="14.00" fill="darkmagenta">1,0</text>
</g>
<!-- 22 -->
<g id="node20" class="node">
<title>22</title>
<ellipse fill="none" stroke="black" cx="1376.04" cy="-272.4" rx="141.88" ry="18"/>
<text text-anchor="middle" x="1376.04" y="-266.98" font-family="Times New Roman,serif" font-size="14.00">22. if type_code == 3 and j + k &gt; i:</text>
<text text-anchor="start" x="1216.91" y="-277.1" font-family="Times New Roman,serif" font-size="14.00" fill="darkorange">0,4</text>
</g>
<!-- 19&#45;&gt;22 -->
<g id="edge26" class="edge">
<title>19&#45;&gt;22</title>
<path fill="none" stroke="red" d="M1294.83,-396.19C1320.99,-390.75 1344.85,-383.49 1354.04,-374.19 1372.72,-355.3 1377.14,-324.46 1377.55,-301.86"/>
<polygon fill="red" stroke="red" points="1381.05,-302.07 1377.46,-292.11 1374.05,-302.14 1381.05,-302.07"/>
<text text-anchor="middle" x="1476.91" y="-340.84" font-family="Times New Roman,serif" font-size="14.00">(not (type_code == 2 and i + k &gt; j))</text>
<text text-anchor="start" x="1365.25" y="-361.1" font-family="Times New Roman,serif" font-size="14.00" fill="darkmagenta">0,4</text>
</g>
<!-- 20&#45;&gt;3 -->
<g id="edge27" class="edge">
<title>20&#45;&gt;3</title>
<path fill="none" stroke="green" d="M967.4,-174.07C955.44,-168.27 943.81,-161.18 934.04,-152.61 905.2,-127.3 913.91,-108.56 891.04,-77.75 888.55,-74.4 885.78,-71.03 882.93,-67.77"/>
<polygon fill="green" stroke="green" points="885.7,-65.61 876.36,-60.6 880.54,-70.34 885.7,-65.61"/>
<text text-anchor="start" x="894.28" y="-122.97" font-family="Times New Roman,serif" font-size="14.00" fill="darkmagenta">1,0</text>
</g>
<!-- 23 -->
<g id="node21" class="node">
<title>23</title>
<ellipse fill="none" stroke="black" cx="1094.04" cy="-124.68" rx="150.79" ry="27.93"/>
<text text-anchor="middle" x="1094.04" y="-119.26" font-family="Times New Roman,serif" font-size="14.00">23. type_code = display_type_code(2)</text>
<text text-anchor="start" x="926" y="-139.31" font-family="Times New Roman,serif" font-size="14.00" fill="darkorange">0,2</text>
</g>
<!-- 22&#45;&gt;23 -->
<g id="edge28" class="edge">
<title>22&#45;&gt;23</title>
<path fill="none" stroke="red" stroke-width="3.96" d="M1275.26,-259.5C1252.93,-252.77 1230.91,-242.4 1214.04,-226.47 1194.97,-208.47 1212.72,-189.98 1195.04,-170.61 1190.79,-165.96 1185.98,-161.76 1180.8,-157.98"/>
<polygon fill="red" stroke="red" stroke-width="3.96" points="1182.71,-155.05 1172.4,-152.63 1178.95,-160.95 1182.71,-155.05"/>
<text text-anchor="middle" x="1301.04" y="-200.99" font-family="Times New Roman,serif" font-size="14.00">&quot;type_code == 3 and j + k &gt; i&quot;</text>
<text text-anchor="middle" x="1301.04" y="-185.24" font-family="Times New Roman,serif" font-size="14.00">c[16]:(0,2) 0.74</text>
<text text-anchor="start" x="1195.73" y="-193.12" font-family="Times New Roman,serif" font-size="14.00" fill="darkmagenta">0,2</text>
</g>
<!-- 25 -->
<g id="node22" class="node">
<title>25</title>
<ellipse fill="none" stroke="black" cx="1414.04" cy="-124.68" rx="150.79" ry="27.93"/>
<text text-anchor="middle" x="1414.04" y="-119.26" font-family="Times New Roman,serif" font-size="14.00">25. type_code = display_type_code(4)</text>
<text text-anchor="start" x="1246" y="-139.31" font-family="Times New Roman,serif" font-size="14.00" fill="darkorange">0,2</text>
</g>
<!-- 22&#45;&gt;25 -->
<g id="edge29" class="edge">
<title>22&#45;&gt;25</title>
<path fill="none" stroke="red" stroke-width="3.96" d="M1382.79,-254.07C1385.87,-245.8 1389.4,-235.71 1392.04,-226.47 1397.43,-207.62 1402.23,-186.46 1405.97,-168.41"/>
<polygon fill="red" stroke="red" stroke-width="3.96" points="1409.37,-169.23 1407.9,-158.74 1402.51,-167.86 1409.37,-169.23"/>
<text text-anchor="middle" x="1511.91" y="-200.99" font-family="Times New Roman,serif" font-size="14.00">&quot;(not (type_code == 3 and j + k &gt; i))&quot;</text>
<text text-anchor="middle" x="1511.91" y="-185.24" font-family="Times New Roman,serif" font-size="14.00">c[17]:(0,2) 0.74</text>
<text text-anchor="start" x="1389.32" y="-190.81" font-family="Times New Roman,serif" font-size="14.00" fill="darkmagenta">0,2</text>
</g>
<!-- 23&#45;&gt;3 -->
<g id="edge30" class="edge">
<title>23&#45;&gt;3</title>
<path fill="none" stroke="red" d="M1023.87,-99.62C988.1,-87.35 945.28,-72.67 912.11,-61.29"/>
<polygon fill="red" stroke="red" points="913.28,-57.99 902.69,-58.06 911.01,-64.61 913.28,-57.99"/>
<text text-anchor="start" x="945.24" y="-81.02" font-family="Times New Roman,serif" font-size="14.00" fill="darkmagenta">0,2</text>
</g>
<!-- 25&#45;&gt;3 -->
<g id="edge31" class="edge">
<title>25&#45;&gt;3</title>
<path fill="none" stroke="red" d="M1305.67,-104.97C1288.41,-102.13 1270.75,-99.29 1254.04,-96.75 1145.45,-80.21 1019.73,-63.48 939.59,-53.11"/>
<polygon fill="red" stroke="red" points="940.46,-49.7 930.1,-51.89 939.57,-56.64 940.46,-49.7"/>
<text text-anchor="start" x="1099.84" y="-79.34" font-family="Times New Roman,serif" font-size="14.00" fill="darkmagenta">0,2</text>
</g>
</g>
</svg>
