<?xml version="1.0" encoding="UTF-8" standalone="no"?>
<!DOCTYPE svg PUBLIC "-//W3C//DTD SVG 1.1//EN"
 "http://www.w3.org/Graphics/SVG/1.1/DTD/svg11.dtd">
<!-- Generated by graphviz version 10.0.1 (20240210.2158)
 -->
<!-- Title: clustertrityp Pages: 1 -->
<svg width="1627pt" height="1659pt"
 viewBox="0.00 0.00 1626.79 1658.75" xmlns="http://www.w3.org/2000/svg" xmlns:xlink="http://www.w3.org/1999/xlink">
<g id="graph0" class="graph" transform="scale(1 1) rotate(0) translate(4 1654.75)">
<title>clustertrityp</title>
<polygon fill="white" stroke="none" points="-4,4 -4,-1654.75 1622.79,-1654.75 1622.79,4 -4,4"/>
<text text-anchor="middle" x="809.39" y="-6.45" font-family="Times New Roman,serif" font-size="14.00">trityp</text>
<!-- 1 -->
<g id="node1" class="node">
<title>1</title>
<ellipse fill="none" stroke="black" cx="284.04" cy="-1607.07" rx="123.21" ry="27.93"/>
<text text-anchor="middle" x="284.04" y="-1601.64" font-family="Times New Roman,serif" font-size="14.00">1. if i == 0 or j == 0 or k == 0:</text>
<text text-anchor="start" x="143.58" y="-1621.7" font-family="Times New Roman,serif" font-size="14.00" fill="darkorange">4,4</text>
</g>
<!-- 2 -->
<g id="node2" class="node">
<title>2</title>
<ellipse fill="none" stroke="black" cx="168.04" cy="-1371.82" rx="150.79" ry="27.93"/>
<text text-anchor="middle" x="168.04" y="-1366.4" font-family="Times New Roman,serif" font-size="14.00">2. type_code = display_type_code(3)</text>
<text text-anchor="start" x="0" y="-1386.45" font-family="Times New Roman,serif" font-size="14.00" fill="darkorange">0,0</text>
</g>
<!-- 1&#45;&gt;2 -->
<g id="edge1" class="edge">
<title>1&#45;&gt;2</title>
<path fill="none" stroke="black" d="M219.4,-1583.06C210.02,-1577.21 201.4,-1569.99 195.04,-1561.14 163.48,-1517.19 161.25,-1452.37 163.74,-1411.39"/>
<polygon fill="black" stroke="black" points="167.23,-1411.73 164.48,-1401.5 160.25,-1411.21 167.23,-1411.73"/>
<text text-anchor="middle" x="273.04" y="-1539.96" font-family="Times New Roman,serif" font-size="14.00">&quot;i == 0 or j == 0 or k == 0&quot;</text>
<text text-anchor="middle" x="273.04" y="-1524.21" font-family="Times New Roman,serif" font-size="14.00">c[5]</text>
<polygon fill="white" stroke="none" points="137.52,-1497.84 137.52,-1521.59 166.52,-1521.59 166.52,-1497.84 137.52,-1497.84"/>
<text text-anchor="start" x="141.52" y="-1504.29" font-family="Times New Roman,serif" font-size="14.00" fill="darkmagenta">0, 0</text>
</g>
<!-- 4 -->
<g id="node3" class="node">
<title>4</title>
<ellipse fill="none" stroke="black" cx="395.04" cy="-1456.82" rx="69.12" ry="39.07"/>
<text text-anchor="middle" x="395.04" y="-1459.27" font-family="Times New Roman,serif" font-size="14.00">4. type_code = 0</text>
<text text-anchor="middle" x="395.04" y="-1443.52" font-family="Times New Roman,serif" font-size="14.00">if i == j:</text>
<text text-anchor="start" x="308.67" y="-1482.59" font-family="Times New Roman,serif" font-size="14.00" fill="darkorange">4,4</text>
</g>
<!-- 1&#45;&gt;4 -->
<g id="edge2" class="edge">
<title>1&#45;&gt;4</title>
<path fill="none" stroke="blue" stroke-width="3.28" d="M332.85,-1581.1C341.01,-1575.36 348.83,-1568.69 355.04,-1561.14 367.22,-1546.32 375.98,-1527.37 382.14,-1509.75"/>
<polygon fill="blue" stroke="blue" stroke-width="3.28" points="385.4,-1511.03 385.11,-1500.44 378.73,-1508.9 385.4,-1511.03"/>
<text text-anchor="middle" x="476.91" y="-1547.84" font-family="Times New Roman,serif" font-size="14.00">&quot;(not (i == 0 or j == 0 or k == 0))&quot;</text>
<text text-anchor="middle" x="476.91" y="-1532.09" font-family="Times New Roman,serif" font-size="14.00">c[6]</text>
<text text-anchor="middle" x="476.91" y="-1516.34" font-family="Times New Roman,serif" font-size="14.00"> Score: 0.57</text>
<polygon fill="white" stroke="none" points="353.07,-1516.86 353.07,-1540.61 382.07,-1540.61 382.07,-1516.86 353.07,-1516.86"/>
<text text-anchor="start" x="357.07" y="-1523.31" font-family="Times New Roman,serif" font-size="14.00" fill="darkmagenta">4, 4</text>
</g>
<!-- 3 -->
<g id="node4" class="node">
<title>3</title>
<ellipse fill="none" stroke="black" cx="858.04" cy="-41.75" rx="83.5" ry="18"/>
<text text-anchor="middle" x="858.04" y="-36.33" font-family="Times New Roman,serif" font-size="14.00">3. return type_code</text>
<text text-anchor="start" x="757.29" y="-46.45" font-family="Times New Roman,serif" font-size="14.00" fill="darkorange">4,4</text>
</g>
<!-- 2&#45;&gt;3 -->
<g id="edge3" class="edge">
<title>2&#45;&gt;3</title>
<path fill="none" stroke="black" d="M165.51,-1343.48C163.51,-1319.42 161.04,-1283.43 161.04,-1252.03 161.04,-1252.03 161.04,-1252.03 161.04,-154.43 161.04,0.89 -304.22,-183.46 548.04,-77.75 624.07,-68.32 710.72,-58.63 773.04,-51.84"/>
<polygon fill="black" stroke="black" points="773.32,-55.33 782.88,-50.77 772.57,-48.37 773.32,-55.33"/>
<polygon fill="white" stroke="none" points="517.04,-79.75 517.04,-103.5 546.04,-103.5 546.04,-79.75 517.04,-79.75"/>
<text text-anchor="start" x="521.04" y="-86.2" font-family="Times New Roman,serif" font-size="14.00" fill="darkmagenta">0, 0</text>
</g>
<!-- 5 -->
<g id="node5" class="node">
<title>5</title>
<ellipse fill="none" stroke="black" cx="395.04" cy="-1297.96" rx="205.95" ry="27.93"/>
<text text-anchor="middle" x="395.04" y="-1292.53" font-family="Times New Roman,serif" font-size="14.00">5. type_code = is_side_one_equal_two(type_code)</text>
<text text-anchor="start" x="171.84" y="-1312.59" font-family="Times New Roman,serif" font-size="14.00" fill="darkorange">1,0</text>
</g>
<!-- 4&#45;&gt;5 -->
<g id="edge4" class="edge">
<title>4&#45;&gt;5</title>
<path fill="none" stroke="#429e6a" d="M395.04,-1417.45C395.04,-1393.13 395.04,-1361.78 395.04,-1337.44"/>
<polygon fill="#429e6a" stroke="#429e6a" points="398.54,-1337.63 395.04,-1327.63 391.54,-1337.63 398.54,-1337.63"/>
<text text-anchor="middle" x="416.04" y="-1374.27" font-family="Times New Roman,serif" font-size="14.00">&quot;i == j&quot;</text>
<text text-anchor="middle" x="416.04" y="-1358.52" font-family="Times New Roman,serif" font-size="14.00">c[7]</text>
<polygon fill="white" stroke="none" points="364.04,-1373.59 364.04,-1397.34 393.04,-1397.34 393.04,-1373.59 364.04,-1373.59"/>
<text text-anchor="start" x="368.04" y="-1380.04" font-family="Times New Roman,serif" font-size="14.00" fill="darkmagenta">1, 0</text>
</g>
<!-- 6 -->
<g id="node6" class="node">
<title>6</title>
<ellipse fill="none" stroke="black" cx="626.04" cy="-1215.03" rx="52.06" ry="18"/>
<text text-anchor="middle" x="626.04" y="-1209.6" font-family="Times New Roman,serif" font-size="14.00">6. if i == k:</text>
<text text-anchor="start" x="556.73" y="-1219.73" font-family="Times New Roman,serif" font-size="14.00" fill="darkorange">4,4</text>
</g>
<!-- 4&#45;&gt;6 -->
<g id="edge5" class="edge">
<title>4&#45;&gt;6</title>
<path fill="none" stroke="blue" stroke-width="3.52" d="M454.51,-1436.26C504.46,-1416.57 573.38,-1381.12 610.04,-1325.89 625.21,-1303.03 628.46,-1271.64 628.35,-1248.26"/>
<polygon fill="blue" stroke="blue" stroke-width="3.52" points="631.86,-1248.42 628.01,-1238.55 624.86,-1248.67 631.86,-1248.42"/>
<text text-anchor="middle" x="660.79" y="-1300.41" font-family="Times New Roman,serif" font-size="14.00">&quot;(i != j)&quot;</text>
<text text-anchor="middle" x="660.79" y="-1284.66" font-family="Times New Roman,serif" font-size="14.00"> Score: 0.63</text>
<polygon fill="white" stroke="none" points="539.8,-1371.44 539.8,-1395.19 568.8,-1395.19 568.8,-1371.44 539.8,-1371.44"/>
<text text-anchor="start" x="543.8" y="-1377.89" font-family="Times New Roman,serif" font-size="14.00" fill="darkmagenta">3, 4</text>
</g>
<!-- 5&#45;&gt;6 -->
<g id="edge6" class="edge">
<title>5&#45;&gt;6</title>
<path fill="none" stroke="#429e6a" d="M467.81,-1271.46C504.37,-1258.66 547.57,-1243.52 579.59,-1232.3"/>
<polygon fill="#429e6a" stroke="#429e6a" points="580.71,-1235.62 588.99,-1229.01 578.39,-1229.01 580.71,-1235.62"/>
<polygon fill="white" stroke="none" points="498.48,-1224.11 498.48,-1247.86 527.48,-1247.86 527.48,-1224.11 498.48,-1224.11"/>
<text text-anchor="start" x="502.48" y="-1230.56" font-family="Times New Roman,serif" font-size="14.00" fill="darkmagenta">1, 0</text>
</g>
<!-- 7 -->
<g id="node7" class="node">
<title>7</title>
<ellipse fill="none" stroke="black" cx="591.04" cy="-1101.6" rx="210.19" ry="27.93"/>
<text text-anchor="middle" x="591.04" y="-1096.17" font-family="Times New Roman,serif" font-size="14.00">7. type_code = is_side_one_equal_three(type_code)</text>
<text text-anchor="start" x="363.6" y="-1116.23" font-family="Times New Roman,serif" font-size="14.00" fill="darkorange">1,0</text>
</g>
<!-- 6&#45;&gt;7 -->
<g id="edge7" class="edge">
<title>6&#45;&gt;7</title>
<path fill="none" stroke="#429e6a" d="M620.72,-1197.1C616.02,-1182.14 609,-1159.77 602.96,-1140.55"/>
<polygon fill="#429e6a" stroke="#429e6a" points="606.33,-1139.61 600,-1131.12 599.65,-1141.71 606.33,-1139.61"/>
<text text-anchor="middle" x="636.91" y="-1165.73" font-family="Times New Roman,serif" font-size="14.00">&quot;i == k&quot;</text>
<text text-anchor="middle" x="636.91" y="-1149.98" font-family="Times New Roman,serif" font-size="14.00">c[8]</text>
<polygon fill="white" stroke="none" points="579.14,-1165.41 579.14,-1189.16 608.14,-1189.16 608.14,-1165.41 579.14,-1165.41"/>
<text text-anchor="start" x="583.14" y="-1171.86" font-family="Times New Roman,serif" font-size="14.00" fill="darkmagenta">1, 0</text>
</g>
<!-- 8 -->
<g id="node8" class="node">
<title>8</title>
<ellipse fill="none" stroke="black" cx="791.04" cy="-1018.67" rx="52.06" ry="18"/>
<text text-anchor="middle" x="791.04" y="-1013.24" font-family="Times New Roman,serif" font-size="14.00">8. if j == k:</text>
<text text-anchor="start" x="721.73" y="-1023.37" font-family="Times New Roman,serif" font-size="14.00" fill="darkorange">4,4</text>
</g>
<!-- 6&#45;&gt;8 -->
<g id="edge8" class="edge">
<title>6&#45;&gt;8</title>+
<path fill="none" stroke="blue" stroke-width="3.52" d="M673.11,-1206.92C717,-1197.51 780.06,-1176.28 810.04,-1129.53 825.2,-1105.89 817.07,-1073.77 807.19,-1050.36"/>
<polygon fill="blue" stroke="blue" stroke-width="3.52" points="810.49,-1049.15 803.09,-1041.57 804.15,-1052.12 810.49,-1049.15"/>
<text text-anchor="middle" x="851.79" y="-1104.05" font-family="Times New Roman,serif" font-size="14.00">&quot;(i != k)&quot;</text>
<text text-anchor="middle" x="851.79" y="-1088.3" font-family="Times New Roman,serif" font-size="14.00"> Score: 0.63</text>
<polygon fill="white" stroke="none" points="737.43,-1171.97 737.43,-1195.72 766.43,-1195.72 766.43,-1171.97 737.43,-1171.97"/>
<text text-anchor="start" x="741.43" y="-1178.42" font-family="Times New Roman,serif" font-size="14.00" fill="darkmagenta">3, 4</text>
</g>
<!-- 7&#45;&gt;8 -->
<g id="edge9" class="edge">
<title>7&#45;&gt;8</title>
<path fill="none" stroke="#429e6a" d="M655.42,-1074.55C685.53,-1062.36 720.6,-1048.17 747.53,-1037.27"/>
<polygon fill="#429e6a" stroke="#429e6a" points="748.8,-1040.54 756.76,-1033.54 746.17,-1034.05 748.8,-1040.54"/>
<polygon fill="white" stroke="none" points="675.75,-1028.02 675.75,-1051.77 704.75,-1051.77 704.75,-1028.02 675.75,-1028.02"/>
<text text-anchor="start" x="679.75" y="-1034.47" font-family="Times New Roman,serif" font-size="14.00" fill="darkmagenta">1, 0</text>
</g>
<!-- 9 -->
<g id="node9" class="node">
<title>9</title>
<ellipse fill="none" stroke="black" cx="554.04" cy="-889.49" rx="210.72" ry="27.93"/>
<text text-anchor="middle" x="554.04" y="-884.06" font-family="Times New Roman,serif" font-size="14.00">9. type_code = is_side_two_equal_three(type_code)</text>
<text text-anchor="start" x="326.07" y="-904.12" font-family="Times New Roman,serif" font-size="14.00" fill="darkorange">0,4</text>
</g>
<!-- 8&#45;&gt;9 -->
<g id="edge10" class="edge">
<title>8&#45;&gt;9</title>
<path fill="none" stroke="red" stroke-width="5" d="M763.85,-1003.08C728.48,-984.1 665.57,-950.34 617.84,-924.72"/>
<polygon fill="red" stroke="red" stroke-width="5" points="619.93,-920.88 609.05,-920.01 615.79,-928.59 619.93,-920.88"/>
<text text-anchor="middle" x="745.16" y="-969.37" font-family="Times New Roman,serif" font-size="14.00">&quot;j == k&quot;</text>
<text text-anchor="middle" x="745.16" y="-953.62" font-family="Times New Roman,serif" font-size="14.00">c[9]</text>
<text text-anchor="middle" x="745.16" y="-937.87" font-family="Times New Roman,serif" font-size="14.00"> Score: 1</text>
<polygon fill="white" stroke="none" points="652.77,-962.1 652.77,-985.85 681.77,-985.85 681.77,-962.1 652.77,-962.1"/>
<text text-anchor="start" x="656.77" y="-968.55" font-family="Times New Roman,serif" font-size="14.00" fill="darkmagenta">0, 4</text>
</g>
<!-- 10 -->
<g id="node10" class="node">
<title>10</title>
<ellipse fill="none" stroke="black" cx="709.04" cy="-775.81" rx="93.98" ry="18"/>
<text text-anchor="middle" x="709.04" y="-770.38" font-family="Times New Roman,serif" font-size="14.00">10. if type_code == 0:</text>
<text text-anchor="start" x="597.81" y="-780.51" font-family="Times New Roman,serif" font-size="14.00" fill="darkorange">4,4</text>
</g>
<!-- 8&#45;&gt;10 -->
<g id="edge11" class="edge">
    <title>8&#45;&gt;10</title>
    <path fill="none" stroke="#429e6a" d="M792.12,-1000.54C793.34,-971.02 793.12,-909.13 774.04,-861.56 765.07,-839.19 748.46,-817.7 734.28,-801.95"/>
    <polygon fill="#429e6a" stroke="#429e6a" points="737.12,-799.87 727.74,-794.93 732,-804.64 737.12,-799.87"/>
    <text text-anchor="middle" x="807.54" y="-894.06" font-family="Times New Roman,serif" font-size="14.00">(j != k)</text>
    <polygon fill="white" stroke="none" points="768.83,-865.57 768.83,-889.32 797.83,-889.32 797.83,-865.57 768.83,-865.57"/>
    <text text-anchor="start" x="772.83" y="-872.02" font-family="Times New Roman,serif" font-size="14.00" fill="darkmagenta">4, 0</text>
</g>

<!-- 9&#45;&gt;10 -->
<g id="edge12" class="edge">
<title>9&#45;&gt;10</title>
<path fill="none" stroke="red" stroke-width="5" d="M591.17,-861.74C615.84,-843.96 648.08,-820.73 672.61,-803.05"/>
<polygon fill="red" stroke="red" stroke-width="5" points="675.08,-806.67 680.63,-797.27 669.96,-799.57 675.08,-806.67"/>
<text text-anchor="middle" x="683.16" y="-814.26" font-family="Times New Roman,serif" font-size="14.00"> Score: 1</text>
<polygon fill="white" stroke="none" points="607.26,-829.8 607.26,-853.55 636.26,-853.55 636.26,-829.8 607.26,-829.8"/>
<text text-anchor="start" x="611.26" y="-836.25" font-family="Times New Roman,serif" font-size="14.00" fill="darkmagenta">0, 4</text>
</g>
<!-- 11 -->
<g id="node11" class="node">
<title>11</title>
<ellipse fill="none" stroke="black" cx="576.04" cy="-303.15" rx="160.34" ry="27.93"/>
<text text-anchor="middle" x="576.04" y="-297.73" font-family="Times New Roman,serif" font-size="14.00">11. if i + j &lt;= k or j + k &lt;= i or i + k &lt;= j:</text>
<text text-anchor="start" x="398.45" y="-317.78" font-family="Times New Roman,serif" font-size="14.00" fill="darkorange">2,0</text>
</g>
<!-- 10&#45;&gt;11 -->
<g id="edge13" class="edge">
<title>10&#45;&gt;11</title>
<path fill="none" stroke="#429e6a" d="M694.87,-757.69C680.4,-738.42 660.04,-705.59 660.04,-673.31 660.04,-673.31 660.04,-673.31 660.04,-439.94 660.04,-401.34 635.18,-364.55 612.51,-339.03"/>
<polygon fill="#429e6a" stroke="#429e6a" points="615.32,-336.92 605.97,-331.93 610.18,-341.66 615.32,-336.92"/>
<text text-anchor="middle" x="711.04" y="-571.26" font-family="Times New Roman,serif" font-size="14.00">&quot;type_code == 0&quot;</text>
<text text-anchor="middle" x="711.04" y="-555.51" font-family="Times New Roman,serif" font-size="14.00">c[10]</text>
<polygon fill="white" stroke="none" points="629.04,-441.94 629.04,-465.69 658.04,-465.69 658.04,-441.94 629.04,-441.94"/>
<text text-anchor="start" x="633.04" y="-448.39" font-family="Times New Roman,serif" font-size="14.00" fill="darkmagenta">2, 0</text>
</g>
<!-- 13 -->
<g id="node12" class="node">
<title>13</title>
<ellipse fill="none" stroke="black" cx="831.04" cy="-672.31" rx="88.49" ry="18"/>
<text text-anchor="middle" x="831.04" y="-666.88" font-family="Times New Roman,serif" font-size="14.00">13. if type_code &gt; 3:</text>
<text text-anchor="start" x="725.3" y="-677.01" font-family="Times New Roman,serif" font-size="14.00" fill="darkorange">2,4</text>
</g>
<!-- 10&#45;&gt;13 -->
<g id="edge14" class="edge">
<title>10&#45;&gt;13</title>
<path fill="none" stroke="blue" stroke-width="3.88" d="M729.46,-757.82C748.4,-742.06 776.89,-718.36 798.88,-700.06"/>
<polygon fill="blue" stroke="blue" stroke-width="3.88" points="801,-702.85 806.44,-693.77 796.52,-697.47 801,-702.85"/>
<text text-anchor="middle" x="841.66" y="-726.51" font-family="Times New Roman,serif" font-size="14.00">&quot;(type_code != 0)&quot;</text>
<text text-anchor="middle" x="841.66" y="-710.76" font-family="Times New Roman,serif" font-size="14.00"> Score: 0.72</text>
<polygon fill="white" stroke="none" points="739.23,-725.9 739.23,-749.65 768.23,-749.65 768.23,-725.9 739.23,-725.9"/>
<text text-anchor="start" x="743.23" y="-732.35" font-family="Times New Roman,serif" font-size="14.00" fill="darkmagenta">2, 4</text>
</g>
<!-- 26 -->
<g id="node13" class="node">
<title>26</title>
<ellipse fill="none" stroke="black" cx="340.04" cy="-155.43" rx="150.79" ry="27.93"/>
<text text-anchor="middle" x="340.04" y="-150.01" font-family="Times New Roman,serif" font-size="14.00">26. type_code = display_type_code(4)</text>
<text text-anchor="start" x="172" y="-170.06" font-family="Times New Roman,serif" font-size="14.00" fill="darkorange">2,0</text>
</g>
<!-- 11&#45;&gt;26 -->
<g id="edge15" class="edge">
<title>11&#45;&gt;26</title>
<path fill="none" stroke="#429e6a" d="M440.58,-287.89C401.89,-281.06 366.63,-271.21 353.54,-257.22 338.24,-240.88 334.79,-215.99 335.2,-195.04"/>
<polygon fill="#429e6a" stroke="#429e6a" points="338.69,-195.25 335.72,-185.08 331.7,-194.88 338.69,-195.25"/>
<text text-anchor="middle" x="457.29" y="-231.74" font-family="Times New Roman,serif" font-size="14.00">&quot;i + j &lt;= k or j + k &lt;= i or i + k &lt;= j&quot;</text>
<text text-anchor="middle" x="457.29" y="-215.99" font-family="Times New Roman,serif" font-size="14.00">c[11]</text>
<polygon fill="white" stroke="none" points="322.53,-259.21 322.53,-282.96 351.53,-282.96 351.53,-259.21 322.53,-259.21"/>
<text text-anchor="start" x="326.53" y="-265.66" font-family="Times New Roman,serif" font-size="14.00" fill="darkmagenta">2, 0</text>
</g>
<!-- 28 -->
<g id="node14" class="node">
<title>28</title>
<ellipse fill="none" stroke="black" cx="660.04" cy="-155.43" rx="150.79" ry="27.93"/>
<text text-anchor="middle" x="660.04" y="-150.01" font-family="Times New Roman,serif" font-size="14.00">28. type_code = display_type_code(1)</text>
<text text-anchor="start" x="492" y="-170.06" font-family="Times New Roman,serif" font-size="14.00" fill="darkorange">0,0</text>
</g>
<!-- 11&#45;&gt;28 -->
<g id="edge16" class="edge">
<title>11&#45;&gt;28</title>
<path fill="none" stroke="black" d="M569.12,-274.88C565.25,-253.36 563.53,-223.4 576.79,-201.36 579.66,-196.6 583.22,-192.31 587.24,-188.45"/>
<polygon fill="black" stroke="black" points="589.45,-191.17 594.92,-182.1 584.98,-185.78 589.45,-191.17"/>
<text text-anchor="middle" x="700.16" y="-231.74" font-family="Times New Roman,serif" font-size="14.00">&quot;(not (i + j &lt;= k or j + k &lt;= i or i + k &lt;= j))&quot;</text>
<text text-anchor="middle" x="700.16" y="-215.99" font-family="Times New Roman,serif" font-size="14.00">c[12]</text>
<polygon fill="white" stroke="none" points="553.51,-199.89 553.51,-223.64 582.51,-223.64 582.51,-199.89 553.51,-199.89"/>
<text text-anchor="start" x="557.51" y="-206.34" font-family="Times New Roman,serif" font-size="14.00" fill="darkmagenta">0, 0</text>
</g>
<!-- 14 -->
<g id="node15" class="node">
<title>14</title>
<ellipse fill="none" stroke="black" cx="831.04" cy="-504.88" rx="150.79" ry="27.93"/>
<text text-anchor="middle" x="831.04" y="-499.45" font-family="Times New Roman,serif" font-size="14.00">14. type_code = display_type_code(3)</text>
<text text-anchor="start" x="663" y="-519.51" font-family="Times New Roman,serif" font-size="14.00" fill="darkorange">0,0</text>
</g>
<!-- 13&#45;&gt;14 -->
<g id="edge19" class="edge">
<title>13&#45;&gt;14</title>
<path fill="none" stroke="black" d="M831.04,-653.91C831.04,-628.05 831.04,-578.8 831.04,-544.23"/>
<polygon fill="black" stroke="black" points="834.54,-544.63 831.04,-534.63 827.54,-544.63 834.54,-544.63"/>
<text text-anchor="middle" x="877.91" y="-623.01" font-family="Times New Roman,serif" font-size="14.00">&quot;type_code &gt; 3&quot;</text>
<text text-anchor="middle" x="877.91" y="-607.26" font-family="Times New Roman,serif" font-size="14.00">c[13]</text>
<polygon fill="white" stroke="none" points="800.04,-595.43 800.04,-619.18 829.04,-619.18 829.04,-595.43 800.04,-595.43"/>
<text text-anchor="start" x="804.04" y="-601.88" font-family="Times New Roman,serif" font-size="14.00" fill="darkmagenta">0, 0</text>
</g>
<!-- 16 -->
<g id="node16" class="node">
<title>16</title>
<ellipse fill="none" stroke="black" cx="1005.04" cy="-568.81" rx="141.88" ry="18"/>
<text text-anchor="middle" x="1005.04" y="-563.38" font-family="Times New Roman,serif" font-size="14.00">16. if type_code == 1 and i + j &gt; k:</text>
<text text-anchor="start" x="845.91" y="-573.51" font-family="Times New Roman,serif" font-size="14.00" fill="darkorange">2,4</text>
</g>
<!-- 13&#45;&gt;16 -->
<g id="edge20" class="edge">
<title>13&#45;&gt;16</title>
<path fill="none" stroke="blue" stroke-width="3.64" d="M882.01,-657.15C897.66,-651.76 914.55,-644.81 929.04,-636.31 946.81,-625.87 964.29,-610.99 978,-597.96"/>
<polygon fill="blue" stroke="blue" stroke-width="3.64" points="980.39,-600.51 985.06,-591 975.48,-595.53 980.39,-600.51"/>
<text text-anchor="middle" x="1025.54" y="-623.01" font-family="Times New Roman,serif" font-size="14.00">&quot;(type_code &lt;= 3)&quot;</text>
<text text-anchor="middle" x="1025.54" y="-607.26" font-family="Times New Roman,serif" font-size="14.00"> Score: 0.66</text>
<polygon fill="white" stroke="none" points="933.96,-603.42 933.96,-627.17 962.96,-627.17 962.96,-603.42 933.96,-603.42"/>
<text text-anchor="start" x="937.96" y="-609.87" font-family="Times New Roman,serif" font-size="14.00" fill="darkmagenta">2, 4</text>
</g>
<!-- 26&#45;&gt;3 -->
<g id="edge17" class="edge">
<title>26&#45;&gt;3</title>
<path fill="none" stroke="#429e6a" d="M436.56,-133.62C539.16,-111.5 698.81,-77.08 789.32,-57.57"/>
<polygon fill="#429e6a" stroke="#429e6a" points="790.02,-60.99 799.06,-55.47 788.55,-54.15 790.02,-60.99"/>
<polygon fill="white" stroke="none" points="587.6,-96.37 587.6,-120.12 616.6,-120.12 616.6,-96.37 587.6,-96.37"/>
<text text-anchor="start" x="591.6" y="-102.82" font-family="Times New Roman,serif" font-size="14.00" fill="darkmagenta">2, 0</text>
</g>
<!-- 28&#45;&gt;3 -->
<g id="edge18" class="edge">
<title>28&#45;&gt;3</title>
<path fill="none" stroke="black" d="M706.21,-128.39C740.55,-109.02 786.88,-82.89 819.29,-64.6"/>
<polygon fill="black" stroke="black" points="820.99,-67.67 827.98,-59.71 817.55,-61.57 820.99,-67.67"/>
<polygon fill="white" stroke="none" points="736.67,-95.72 736.67,-119.47 765.67,-119.47 765.67,-95.72 736.67,-95.72"/>
<text text-anchor="start" x="740.67" y="-102.17" font-family="Times New Roman,serif" font-size="14.00" fill="darkmagenta">0, 0</text>
</g>
<!-- 14&#45;&gt;3 -->
<g id="edge21" class="edge">
<title>14&#45;&gt;3</title>
<path fill="none" stroke="black" d="M833.75,-476.9C836.07,-451.44 839.04,-412.17 839.04,-378.01 839.04,-378.01 839.04,-378.01 839.04,-154.43 839.04,-125.76 845.2,-93.52 850.51,-71.08"/>
<polygon fill="black" stroke="black" points="853.88,-72.02 852.88,-61.47 847.08,-70.34 853.88,-72.02"/>
<polygon fill="white" stroke="none" points="808.04,-352.07 808.04,-375.82 837.04,-375.82 837.04,-352.07 808.04,-352.07"/>
<text text-anchor="start" x="812.04" y="-358.52" font-family="Times New Roman,serif" font-size="14.00" fill="darkmagenta">0, 0</text>
</g>
<!-- 17 -->
<g id="node17" class="node">
<title>17</title>
<ellipse fill="none" stroke="black" cx="1005.04" cy="-377.01" rx="150.79" ry="27.93"/>
<text text-anchor="middle" x="1005.04" y="-371.59" font-family="Times New Roman,serif" font-size="14.00">17. type_code = display_type_code(2)</text>
<text text-anchor="start" x="837" y="-391.64" font-family="Times New Roman,serif" font-size="14.00" fill="darkorange">1,0</text>
</g>
<!-- 16&#45;&gt;17 -->
<g id="edge22" class="edge">
<title>16&#45;&gt;17</title>
<path fill="none" stroke="#429e6a" d="M1003.25,-550.38C1002.75,-544.77 1002.28,-538.53 1002.04,-532.81 1000.35,-493.28 1001.59,-448.03 1002.96,-416.71"/>
<polygon fill="#429e6a" stroke="#429e6a" points="1006.44,-417.09 1003.41,-406.94 999.45,-416.77 1006.44,-417.09"/>
<text text-anchor="middle" x="1089.04" y="-507.33" font-family="Times New Roman,serif" font-size="14.00">&quot;type_code == 1 and i + j &gt; k&quot;</text>
<text text-anchor="middle" x="1089.04" y="-491.58" font-family="Times New Roman,serif" font-size="14.00">c[14]</text>
<polygon fill="white" stroke="none" points="1003.28,-452.1 1003.28,-475.85 1032.28,-475.85 1032.28,-452.1 1003.28,-452.1"/>
<text text-anchor="start" x="1007.28" y="-458.55" font-family="Times New Roman,serif" font-size="14.00" fill="darkmagenta">1, 0</text>
</g>
<!-- 19 -->
<g id="node18" class="node">
<title>19</title>
<ellipse fill="none" stroke="black" cx="1202.04" cy="-440.94" rx="141.88" ry="18"/>
<text text-anchor="middle" x="1202.04" y="-435.52" font-family="Times New Roman,serif" font-size="14.00">19. if type_code == 2 and i + k &gt; j:</text>
<text text-anchor="start" x="1042.91" y="-445.64" font-family="Times New Roman,serif" font-size="14.00" fill="darkorange">1,4</text>
</g>
<!-- 16&#45;&gt;19 -->
<g id="edge23" class="edge">
<title>16&#45;&gt;19</title>
<path fill="none" stroke="blue" stroke-width="4.16" d="M1109.76,-556.37C1140.59,-551 1169.04,-543.38 1180.04,-532.81 1195.35,-518.1 1200.76,-494.69 1202.39,-475.32"/>
<polygon fill="blue" stroke="blue" stroke-width="4.16" points="1206.02,-475.55 1202.76,-465.42 1198.75,-475.28 1206.02,-475.55"/>
<text text-anchor="middle" x="1308.91" y="-507.33" font-family="Times New Roman,serif" font-size="14.00">&quot;(not (type_code == 1 and i + j &gt; k))&quot;</text>
<text text-anchor="middle" x="1308.91" y="-491.58" font-family="Times New Roman,serif" font-size="14.00"> Score: 0.79</text>
<polygon fill="white" stroke="none" points="1149.75,-534.11 1149.75,-557.86 1178.75,-557.86 1178.75,-534.11 1149.75,-534.11"/>
<text text-anchor="start" x="1153.75" y="-540.56" font-family="Times New Roman,serif" font-size="14.00" fill="darkmagenta">1, 4</text>
</g>
<!-- 17&#45;&gt;3 -->
<g id="edge24" class="edge">
<title>17&#45;&gt;3</title>
<path fill="none" stroke="#429e6a" d="M969.95,-349.57C943.76,-327.79 909.46,-294.51 891.04,-257.22 860.9,-196.2 856.87,-114.49 857.1,-71.68"/>
<polygon fill="#429e6a" stroke="#429e6a" points="860.6,-71.77 857.25,-61.72 853.6,-71.66 860.6,-71.77"/>
<polygon fill="white" stroke="none" points="844.25,-218.4 844.25,-242.15 873.25,-242.15 873.25,-218.4 844.25,-218.4"/>
<text text-anchor="start" x="848.25" y="-224.85" font-family="Times New Roman,serif" font-size="14.00" fill="darkmagenta">1, 0</text>
</g>
<!-- 20 -->
<g id="node19" class="node">
<title>20</title>
<ellipse fill="none" stroke="black" cx="1043.04" cy="-229.29" rx="150.79" ry="27.93"/>
<text text-anchor="middle" x="1043.04" y="-223.87" font-family="Times New Roman,serif" font-size="14.00">20. type_code = display_type_code(2)</text>
<text text-anchor="start" x="875" y="-243.92" font-family="Times New Roman,serif" font-size="14.00" fill="darkorange">1,0</text>
</g>
<!-- 19&#45;&gt;20 -->
<g id="edge25" class="edge">
<title>19&#45;&gt;20</title>
<path fill="none" stroke="#429e6a" d="M1187.68,-422.85C1183.54,-417.37 1179.28,-411.11 1176.04,-404.94 1163.85,-381.73 1170.66,-371.49 1157.04,-349.08 1137.51,-316.97 1107.97,-286.5 1083.85,-264.47"/>
<polygon fill="#429e6a" stroke="#429e6a" points="1086.47,-262.12 1076.69,-258.05 1081.8,-267.33 1086.47,-262.12"/>
<text text-anchor="middle" x="1263.04" y="-379.46" font-family="Times New Roman,serif" font-size="14.00">&quot;type_code == 2 and i + k &gt; j&quot;</text>
<text text-anchor="middle" x="1263.04" y="-363.71" font-family="Times New Roman,serif" font-size="14.00">c[15]</text>
<polygon fill="white" stroke="none" points="1113.57,-304.76 1113.57,-328.51 1142.57,-328.51 1142.57,-304.76 1113.57,-304.76"/>
<text text-anchor="start" x="1117.57" y="-311.21" font-family="Times New Roman,serif" font-size="14.00" fill="darkmagenta">1, 0</text>
</g>
<!-- 22 -->
<g id="node20" class="node">
<title>22</title>
<ellipse fill="none" stroke="black" cx="1376.04" cy="-303.15" rx="141.88" ry="18"/>
<text text-anchor="middle" x="1376.04" y="-297.73" font-family="Times New Roman,serif" font-size="14.00">22. if type_code == 3 and j + k &gt; i:</text>
<text text-anchor="start" x="1216.91" y="-307.85" font-family="Times New Roman,serif" font-size="14.00" fill="darkorange">0,4</text>
</g>
<!-- 19&#45;&gt;22 -->
<g id="edge26" class="edge">
<title>19&#45;&gt;22</title>
<path fill="none" stroke="red" stroke-width="5" d="M1294.83,-426.94C1320.99,-421.5 1344.85,-414.24 1354.04,-404.94 1371.43,-387.36 1376.46,-359.42 1377.4,-337.41"/>
<polygon fill="red" stroke="red" stroke-width="5" points="1381.78,-337.59 1377.43,-327.58 1373.03,-337.57 1381.78,-337.59"/>
<text text-anchor="middle" x="1482.91" y="-379.46" font-family="Times New Roman,serif" font-size="14.00">&quot;(not (type_code == 2 and i + k &gt; j))&quot;</text>
<text text-anchor="middle" x="1482.91" y="-363.71" font-family="Times New Roman,serif" font-size="14.00"> Score: 1</text>
<polygon fill="white" stroke="none" points="1333.75,-392.32 1333.75,-416.07 1362.75,-416.07 1362.75,-392.32 1333.75,-392.32"/>
<text text-anchor="start" x="1337.75" y="-398.77" font-family="Times New Roman,serif" font-size="14.00" fill="darkmagenta">0, 4</text>
</g>
<!-- 20&#45;&gt;3 -->
<g id="edge27" class="edge">
<title>20&#45;&gt;3</title>
<path fill="none" stroke="#429e6a" d="M964.71,-205.06C953.47,-199.27 942.78,-192.14 934.04,-183.36 898.28,-147.45 918.44,-120.38 891.04,-77.75 888.9,-74.42 886.42,-71.12 883.79,-67.95"/>
<polygon fill="#429e6a" stroke="#429e6a" points="886.49,-65.72 877.21,-60.61 881.28,-70.39 886.49,-65.72"/>
<polygon fill="white" stroke="none" points="878.61,-136.24 878.61,-159.99 907.61,-159.99 907.61,-136.24 878.61,-136.24"/>
<text text-anchor="start" x="882.61" y="-142.69" font-family="Times New Roman,serif" font-size="14.00" fill="darkmagenta">1, 0</text>
</g>
<!-- 23 -->
<g id="node21" class="node">
<title>23</title>
<ellipse fill="none" stroke="black" cx="1094.04" cy="-155.43" rx="150.79" ry="27.93"/>
<text text-anchor="middle" x="1094.04" y="-150.01" font-family="Times New Roman,serif" font-size="14.00">23. type_code = display_type_code(2)</text>
<text text-anchor="start" x="926" y="-170.06" font-family="Times New Roman,serif" font-size="14.00" fill="darkorange">0,2</text>
</g>
<!-- 22&#45;&gt;23 -->
<g id="edge28" class="edge">
<title>22&#45;&gt;23</title>
<path fill="none" stroke="red" stroke-width="5" d="M1275.26,-290.25C1252.93,-283.52 1230.91,-273.15 1214.04,-257.22 1194.97,-239.22 1212.72,-220.73 1195.04,-201.36 1190.79,-196.71 1185.98,-192.51 1180.8,-188.73"/>
<polygon fill="red" stroke="red" stroke-width="5" points="1183.39,-185.19 1172.6,-183.51 1178.69,-192.57 1183.39,-185.19"/>
<text text-anchor="middle" x="1301.04" y="-239.62" font-family="Times New Roman,serif" font-size="14.00">&quot;type_code == 3 and j + k &gt; i&quot;</text>
<text text-anchor="middle" x="1301.04" y="-223.87" font-family="Times New Roman,serif" font-size="14.00">c[16]</text>
<text text-anchor="middle" x="1301.04" y="-208.12" font-family="Times New Roman,serif" font-size="14.00"> Score: 1</text>
<polygon fill="white" stroke="none" points="1189.85,-211.42 1189.85,-235.17 1218.85,-235.17 1218.85,-211.42 1189.85,-211.42"/>
<text text-anchor="start" x="1193.85" y="-217.87" font-family="Times New Roman,serif" font-size="14.00" fill="darkmagenta">0, 2</text>
</g>
<!-- 25 -->
<g id="node22" class="node">
<title>25</title>
<ellipse fill="none" stroke="black" cx="1414.04" cy="-155.43" rx="150.79" ry="27.93"/>
<text text-anchor="middle" x="1414.04" y="-150.01" font-family="Times New Roman,serif" font-size="14.00">25. type_code = display_type_code(4)</text>
<text text-anchor="start" x="1246" y="-170.06" font-family="Times New Roman,serif" font-size="14.00" fill="darkorange">0,2</text>
</g>
<!-- 22&#45;&gt;25 -->
<g id="edge29" class="edge">
<title>22&#45;&gt;25</title>
<path fill="none" stroke="red" stroke-width="5" d="M1382.79,-284.82C1385.87,-276.55 1389.4,-266.46 1392.04,-257.22 1397.4,-238.46 1402.19,-217.42 1405.91,-199.43"/>
<polygon fill="red" stroke="red" stroke-width="5" points="1410.18,-200.39 1407.85,-189.73 1401.6,-198.68 1410.18,-200.39"/>
<text text-anchor="middle" x="1511.91" y="-239.62" font-family="Times New Roman,serif" font-size="14.00">&quot;(not (type_code == 3 and j + k &gt; i))&quot;</text>
<text text-anchor="middle" x="1511.91" y="-223.87" font-family="Times New Roman,serif" font-size="14.00">c[17]</text>
<text text-anchor="middle" x="1511.91" y="-208.12" font-family="Times New Roman,serif" font-size="14.00"> Score: 1</text>
<polygon fill="white" stroke="none" points="1375.28,-208.76 1375.28,-232.51 1404.28,-232.51 1404.28,-208.76 1375.28,-208.76"/>
<text text-anchor="start" x="1379.28" y="-215.21" font-family="Times New Roman,serif" font-size="14.00" fill="darkmagenta">0, 2</text>
</g>
<!-- 23&#45;&gt;3 -->
<g id="edge30" class="edge">
<title>23&#45;&gt;3</title>
<path fill="none" stroke="red" stroke-width="5" d="M1040.19,-128.95C999.84,-109.85 945.1,-83.95 906.2,-65.54"/>
<polygon fill="red" stroke="red" stroke-width="5" points="908.16,-61.63 897.25,-61.3 904.42,-69.54 908.16,-61.63"/>
<text text-anchor="middle" x="1022.16" y="-80.2" font-family="Times New Roman,serif" font-size="14.00"> Score: 1</text>
<polygon fill="white" stroke="none" points="934.75,-95.72 934.75,-119.47 963.75,-119.47 963.75,-95.72 934.75,-95.72"/>
<text text-anchor="start" x="938.75" y="-102.17" font-family="Times New Roman,serif" font-size="14.00" fill="darkmagenta">0, 2</text>
</g>
<!-- 25&#45;&gt;3 -->
<g id="edge31" class="edge">
<title>25&#45;&gt;3</title>
<path fill="none" stroke="red" stroke-width="5" d="M1318.66,-133.5C1245.53,-117.64 1142.06,-95.61 1051.04,-77.75 1013.66,-70.41 972.09,-62.81 937.14,-56.56"/>
<polygon fill="red" stroke="red" stroke-width="5" points="938.33,-52.33 927.72,-54.89 936.8,-60.95 938.33,-52.33"/>
<text text-anchor="middle" x="1225.16" y="-80.2" font-family="Times New Roman,serif" font-size="14.00"> Score: 1</text>
<polygon fill="white" stroke="none" points="1089.42,-93.65 1089.42,-117.4 1118.42,-117.4 1118.42,-93.65 1089.42,-93.65"/>
<text text-anchor="start" x="1093.42" y="-100.1" font-family="Times New Roman,serif" font-size="14.00" fill="darkmagenta">0, 2</text>
</g>
</g>
</svg>
