<?xml version="1.0" encoding="UTF-8" standalone="no"?>
<!DOCTYPE svg PUBLIC "-//W3C//DTD SVG 1.1//EN"
 "http://www.w3.org/Graphics/SVG/1.1/DTD/svg11.dtd">
<!-- Generated by graphviz version 10.0.1 (20240210.2158)
 -->
<!-- Pages: 1 -->
<svg width="1037pt" height="156pt"
 viewBox="0.00 0.00 1036.71 155.72" xmlns="http://www.w3.org/2000/svg" xmlns:xlink="http://www.w3.org/1999/xlink">
<g id="graph0" class="graph" transform="scale(1 1) rotate(0) translate(4 151.72)">
<polygon fill="white" stroke="none" points="-4,4 -4,-151.72 1032.71,-151.72 1032.71,4 -4,4"/>
<!-- trityp.trityp -->
<g id="node1" class="node">
<title>trityp.trityp</title>
<ellipse fill="none" stroke="red" stroke-width="2" cx="538.76" cy="-119.79" rx="71.77" ry="27.93"/>
<text text-anchor="middle" x="538.76" y="-122.24" font-family="Times New Roman,serif" font-size="14.00">trityp.trityp</text>
<text text-anchor="middle" x="538.76" y="-106.49" font-family="Times New Roman,serif" font-size="14.00">Max Score: 1.0</text>
</g>
<!-- trityp.is_side_two_equal_three -->
<g id="node2" class="node">
<title>trityp.is_side_two_equal_three</title>
<ellipse fill="none" stroke="red" stroke-width="2" cx="132.76" cy="-27.93" rx="132.76" ry="27.93"/>
<text text-anchor="middle" x="132.76" y="-30.38" font-family="Times New Roman,serif" font-size="14.00">trityp.is_side_two_equal_three</text>
<text text-anchor="middle" x="132.76" y="-14.63" font-family="Times New Roman,serif" font-size="14.00">Max Score: 1.0</text>
</g>
<!-- trityp.trityp&#45;&gt;trityp.is_side_two_equal_three -->
<g id="edge1" class="edge">
<title>trityp.trityp&#45;&gt;trityp.is_side_two_equal_three</title>
<path fill="none" stroke="black" d="M476.65,-105.05C412.4,-90.82 310.97,-68.38 234.89,-51.54"/>
<polygon fill="black" stroke="black" points="235.86,-48.17 225.34,-49.42 234.34,-55 235.86,-48.17"/>
</g>
<!-- trityp.is_side_one_equal_three -->
<g id="node3" class="node">
<title>trityp.is_side_one_equal_three</title>
<ellipse fill="none" stroke="black" stroke-width="2" cx="407.76" cy="-27.93" rx="124.42" ry="18"/>
<text text-anchor="middle" x="407.76" y="-22.51" font-family="Times New Roman,serif" font-size="14.00">trityp.is_side_one_equal_three</text>
</g>
<!-- trityp.trityp&#45;&gt;trityp.is_side_one_equal_three -->
<g id="edge2" class="edge">
<title>trityp.trityp&#45;&gt;trityp.is_side_one_equal_three</title>
<path fill="none" stroke="black" d="M503.65,-94.71C484.81,-81.78 461.65,-65.9 442.81,-52.98"/>
<polygon fill="black" stroke="black" points="444.88,-50.15 434.65,-47.38 440.92,-55.92 444.88,-50.15"/>
</g>
<!-- trityp.is_side_one_equal_two -->
<g id="node4" class="node">
<title>trityp.is_side_one_equal_two</title>
<ellipse fill="none" stroke="black" stroke-width="2" cx="670.76" cy="-27.93" rx="120.42" ry="18"/>
<text text-anchor="middle" x="670.76" y="-22.51" font-family="Times New Roman,serif" font-size="14.00">trityp.is_side_one_equal_two</text>
</g>
<!-- trityp.trityp&#45;&gt;trityp.is_side_one_equal_two -->
<g id="edge3" class="edge">
<title>trityp.trityp&#45;&gt;trityp.is_side_one_equal_two</title>
<path fill="none" stroke="black" d="M574.13,-94.71C593.25,-81.7 616.78,-65.68 635.83,-52.71"/>
<polygon fill="black" stroke="black" points="637.79,-55.61 644.08,-47.09 633.85,-49.82 637.79,-55.61"/>
</g>
<!-- trityp.display_type_code -->
<g id="node5" class="node">
<title>trityp.display_type_code</title>
<ellipse fill="none" stroke="black" stroke-width="2" cx="918.76" cy="-27.93" rx="109.96" ry="27.93"/>
<text text-anchor="middle" x="918.76" y="-30.38" font-family="Times New Roman,serif" font-size="14.00">trityp.display_type_code</text>
<text text-anchor="middle" x="918.76" y="-14.63" font-family="Times New Roman,serif" font-size="14.00">Max Score: 0.57</text>
</g>
<!-- trityp.trityp&#45;&gt;trityp.display_type_code -->
<g id="edge4" class="edge">
<title>trityp.trityp&#45;&gt;trityp.display_type_code</title>
<path fill="none" stroke="black" d="M599.81,-104.35C661.35,-89.8 757.05,-67.17 827.58,-50.49"/>
<polygon fill="black" stroke="black" points="828.28,-53.92 837.2,-48.22 826.67,-47.11 828.28,-53.92"/>
</g>
</g>
</svg>
