<?xml version="1.0" encoding="UTF-8" standalone="no"?>
<!DOCTYPE svg PUBLIC "-//W3C//DTD SVG 1.1//EN"
 "http://www.w3.org/Graphics/SVG/1.1/DTD/svg11.dtd">
<!-- Generated by graphviz version 10.0.1 (20240210.2158)
 -->
<!-- Title: clusters_trityp_split Pages: 1 -->
<svg width="1149pt" height="1522pt"
 viewBox="0.00 0.00 1148.72 1521.52" xmlns="http://www.w3.org/2000/svg" xmlns:xlink="http://www.w3.org/1999/xlink">
<g id="graph0" class="graph" transform="scale(1 1) rotate(0) translate(4 1517.52)">
<title>clusters_trityp_split</title>
<polygon fill="white" stroke="none" points="-4,4 -4,-1517.52 1144.72,-1517.52 1144.72,4 -4,4"/>
<text text-anchor="middle" x="570.36" y="-6.45" font-family="Times New Roman,serif" font-size="14.00">s_trityp_split</text>
<!-- 1 -->
<g id="node1" class="node">
<title>1</title>
<ellipse fill="none" stroke="black" cx="351.97" cy="-1479.77" rx="125.41" ry="18"/>
<text text-anchor="middle" x="351.97" y="-1474.35" font-family="Times New Roman,serif" font-size="14.00">1. if i == 0 or j == 0 or k == 0:</text>
<text text-anchor="start" x="209.3" y="-1484.47" font-family="Times New Roman,serif" font-size="14.00" fill="darkorange">4,4</text>
</g>
<!-- 4 -->
<g id="node2" class="node">
<title>4</title>
<ellipse fill="none" stroke="black" cx="351.97" cy="-1355.21" rx="69.12" ry="39.07"/>
<text text-anchor="middle" x="351.97" y="-1357.66" font-family="Times New Roman,serif" font-size="14.00">4. type_code = 0</text>
<text text-anchor="middle" x="351.97" y="-1341.91" font-family="Times New Roman,serif" font-size="14.00">if i == j:</text>
<text text-anchor="start" x="265.6" y="-1380.97" font-family="Times New Roman,serif" font-size="14.00" fill="darkorange">4,4</text>
</g>
<!-- 1&#45;&gt;4 -->
<g id="edge1" class="edge">
<title>1&#45;&gt;4</title>
<path fill="none" stroke="blue" stroke-width="3.28" d="M351.97,-1461.47C351.97,-1447.9 351.97,-1428.24 351.97,-1409.58"/>
<polygon fill="blue" stroke="blue" stroke-width="3.28" points="355.47,-1409.59 351.97,-1399.59 348.47,-1409.59 355.47,-1409.59"/>
<text text-anchor="middle" x="449.84" y="-1430.47" font-family="Times New Roman,serif" font-size="14.00">&quot;(not (i == 0 or j == 0 or k == 0))&quot;</text>
<text text-anchor="middle" x="449.84" y="-1414.72" font-family="Times New Roman,serif" font-size="14.00">c[6]:(4,4) 0.57</text>
<text text-anchor="start" x="334.72" y="-1430.47" font-family="Times New Roman,serif" font-size="14.00" fill="darkmagenta">4,4</text>
</g>
<!-- 5 -->
<g id="node4" class="node">
<title>5</title>
<ellipse fill="none" stroke="black" cx="230.97" cy="-1220.71" rx="205.95" ry="27.93"/>
<text text-anchor="middle" x="230.97" y="-1215.28" font-family="Times New Roman,serif" font-size="14.00">5. type_code = is_side_one_equal_two(type_code)</text>
<text text-anchor="start" x="7.77" y="-1235.34" font-family="Times New Roman,serif" font-size="14.00" fill="darkorange">1,0</text>
</g>
<!-- 4&#45;&gt;5 -->
<g id="edge2" class="edge">
<title>4&#45;&gt;5</title>
<path fill="none" stroke="green" d="M320.81,-1320.09C303.12,-1300.72 281.02,-1276.51 263.16,-1256.96"/>
<polygon fill="green" stroke="green" points="265.89,-1254.76 256.56,-1249.73 260.72,-1259.48 265.89,-1254.76"/>
<text text-anchor="middle" x="330.09" y="-1284.84" font-family="Times New Roman,serif" font-size="14.00">&quot;i == j&quot;</text>
<text text-anchor="middle" x="330.09" y="-1269.09" font-family="Times New Roman,serif" font-size="14.00">c[7]:(1,0) 0</text>
<text text-anchor="start" x="270.83" y="-1286.69" font-family="Times New Roman,serif" font-size="14.00" fill="darkmagenta">1,0</text>
</g>
<!-- 6 -->
<g id="node5" class="node">
<title>6</title>
<ellipse fill="none" stroke="black" cx="351.97" cy="-1137.78" rx="52.06" ry="18"/>
<text text-anchor="middle" x="351.97" y="-1132.35" font-family="Times New Roman,serif" font-size="14.00">6. if i == k:</text>
<text text-anchor="start" x="282.66" y="-1142.48" font-family="Times New Roman,serif" font-size="14.00" fill="darkorange">4,4</text>
</g>
<!-- 4&#45;&gt;6 -->
<g id="edge3" class="edge">
<title>4&#45;&gt;6</title>
<path fill="none" stroke="blue" d="M391.07,-1322.99C411.66,-1303.98 434.88,-1277.77 445.97,-1248.64 454.8,-1225.44 458.41,-1214.27 445.97,-1192.78 435.96,-1175.49 418.09,-1163.25 400.59,-1154.85"/>
<polygon fill="blue" stroke="blue" points="402.34,-1151.8 391.78,-1150.95 399.51,-1158.2 402.34,-1151.8"/>
<text text-anchor="middle" x="471.59" y="-1215.28" font-family="Times New Roman,serif" font-size="14.00">(i != j)</text>
<text text-anchor="start" x="428.73" y="-1251.07" font-family="Times New Roman,serif" font-size="14.00" fill="darkmagenta">3,4</text>
</g>
<!-- 3 -->
<g id="node3" class="node">
<title>3</title>
<ellipse fill="none" stroke="black" cx="427.97" cy="-41.75" rx="83.5" ry="18"/>
<text text-anchor="middle" x="427.97" y="-36.33" font-family="Times New Roman,serif" font-size="14.00">3. return type_code</text>
<text text-anchor="start" x="327.22" y="-46.45" font-family="Times New Roman,serif" font-size="14.00" fill="darkorange">4,4</text>
</g>
<!-- 5&#45;&gt;6 -->
<g id="edge4" class="edge">
<title>5&#45;&gt;6</title>
<path fill="none" stroke="green" d="M270.92,-1192.99C286.74,-1182.41 304.67,-1170.41 319.64,-1160.4"/>
<polygon fill="green" stroke="green" points="321.38,-1163.45 327.74,-1154.98 317.48,-1157.63 321.38,-1163.45"/>
<text text-anchor="start" x="282.63" y="-1176.07" font-family="Times New Roman,serif" font-size="14.00" fill="darkmagenta">1,0</text>
</g>
<!-- 7 -->
<g id="node6" class="node">
<title>7</title>
<ellipse fill="none" stroke="black" cx="228.97" cy="-1024.35" rx="210.19" ry="27.93"/>
<text text-anchor="middle" x="228.97" y="-1018.92" font-family="Times New Roman,serif" font-size="14.00">7. type_code = is_side_one_equal_three(type_code)</text>
<text text-anchor="start" x="1.53" y="-1038.98" font-family="Times New Roman,serif" font-size="14.00" fill="darkorange">1,0</text>
</g>
<!-- 6&#45;&gt;7 -->
<g id="edge5" class="edge">
<title>6&#45;&gt;7</title>
<path fill="none" stroke="green" d="M334.08,-1120.58C316.6,-1104.73 289.41,-1080.11 267.07,-1059.87"/>
<polygon fill="green" stroke="green" points="269.66,-1057.49 259.9,-1053.37 264.96,-1062.68 269.66,-1057.49"/>
<text text-anchor="middle" x="344.09" y="-1088.48" font-family="Times New Roman,serif" font-size="14.00">&quot;i == k&quot;</text>
<text text-anchor="middle" x="344.09" y="-1072.73" font-family="Times New Roman,serif" font-size="14.00">c[8]:(1,0) 0</text>
<text text-anchor="start" x="279.03" y="-1088.78" font-family="Times New Roman,serif" font-size="14.00" fill="darkmagenta">1,0</text>
</g>
<!-- 8 -->
<g id="node7" class="node">
<title>8</title>
<ellipse fill="none" stroke="black" cx="351.97" cy="-941.42" rx="52.06" ry="18"/>
<text text-anchor="middle" x="351.97" y="-935.99" font-family="Times New Roman,serif" font-size="14.00">8. if j == k:</text>
<text text-anchor="start" x="282.66" y="-946.12" font-family="Times New Roman,serif" font-size="14.00" fill="darkorange">4,4</text>
</g>
<!-- 6&#45;&gt;8 -->
<g id="edge6" class="edge">
<title>6&#45;&gt;8</title>
<path fill="none" stroke="blue" d="M378.84,-1122.06C402.01,-1107.69 433.89,-1083.44 447.97,-1052.28 458.19,-1029.65 460.5,-1017.85 447.97,-996.42 437.64,-978.76 419.17,-966.42 401.18,-958.05"/>
<polygon fill="blue" stroke="blue" points="402.66,-954.88 392.09,-954.17 399.91,-961.32 402.66,-954.88"/>
<text text-anchor="middle" x="475.47" y="-1018.92" font-family="Times New Roman,serif" font-size="14.00">(i != k)</text>
<text text-anchor="start" x="430.73" y="-1054.71" font-family="Times New Roman,serif" font-size="14.00" fill="darkmagenta">3,4</text>
</g>
<!-- 7&#45;&gt;8 -->
<g id="edge7" class="edge">
<title>7&#45;&gt;8</title>
<path fill="none" stroke="green" d="M269.58,-996.62C285.66,-986.05 303.89,-974.05 319.11,-964.04"/>
<polygon fill="green" stroke="green" points="320.93,-967.03 327.36,-958.61 317.08,-961.18 320.93,-967.03"/>
<text text-anchor="start" x="281.77" y="-979.71" font-family="Times New Roman,serif" font-size="14.00" fill="darkmagenta">1,0</text>
</g>
<!-- 9 -->
<g id="node8" class="node">
<title>9</title>
<ellipse fill="none" stroke="black" cx="227.97" cy="-827.99" rx="210.72" ry="27.93"/>
<text text-anchor="middle" x="227.97" y="-822.56" font-family="Times New Roman,serif" font-size="14.00">9. type_code = is_side_two_equal_three(type_code)</text>
<text text-anchor="start" x="0" y="-842.62" font-family="Times New Roman,serif" font-size="14.00" fill="darkorange">0,4</text>
</g>
<!-- 8&#45;&gt;9 -->
<g id="edge8" class="edge">
<title>8&#45;&gt;9</title>
<path fill="none" stroke="red" stroke-width="5" d="M333.94,-924.21C317.24,-909.21 291.78,-886.33 269.99,-866.75"/>
<polygon fill="red" stroke="red" stroke-width="5" points="273.02,-863.59 262.66,-860.16 267.17,-870.1 273.02,-863.59"/>
<text text-anchor="middle" x="348.34" y="-892.12" font-family="Times New Roman,serif" font-size="14.00">&quot;j == k&quot;</text>
<text text-anchor="middle" x="348.34" y="-876.37" font-family="Times New Roman,serif" font-size="14.00">c[9]:(0,4) 1.0</text>
<text text-anchor="start" x="278.68" y="-892.51" font-family="Times New Roman,serif" font-size="14.00" fill="darkmagenta">0,4</text>
</g>
<!-- 10 -->
<g id="node9" class="node">
<title>10</title>
<ellipse fill="none" stroke="black" cx="350.97" cy="-745.06" rx="93.98" ry="18"/>
<text text-anchor="middle" x="350.97" y="-739.63" font-family="Times New Roman,serif" font-size="14.00">10. if type_code == 0:</text>
<text text-anchor="start" x="239.74" y="-749.76" font-family="Times New Roman,serif" font-size="14.00" fill="darkorange">4,4</text>
</g>
<!-- 8&#45;&gt;10 -->
<g id="edge9" class="edge">
<title>8&#45;&gt;10</title>
<path fill="none" stroke="green" d="M378.84,-925.7C402.01,-911.33 433.89,-887.08 447.97,-855.92 458.19,-833.29 460.55,-821.46 447.97,-800.06 439.16,-785.06 424.5,-773.93 409.22,-765.8"/>
<polygon fill="green" stroke="green" points="411.03,-762.79 400.51,-761.54 407.96,-769.08 411.03,-762.79"/>
<text text-anchor="middle" x="475.47" y="-822.56" font-family="Times New Roman,serif" font-size="14.00">(j != k)</text>
<text text-anchor="start" x="430.73" y="-858.35" font-family="Times New Roman,serif" font-size="14.00" fill="darkmagenta">4,0</text>
</g>
<!-- 9&#45;&gt;10 -->
<g id="edge10" class="edge">
<title>9&#45;&gt;10</title>
<path fill="none" stroke="red" d="M268.58,-800.26C283.97,-790.14 301.33,-778.72 316.13,-768.98"/>
<polygon fill="red" stroke="red" points="317.75,-772.1 324.18,-763.68 313.91,-766.25 317.75,-772.1"/>
<text text-anchor="start" x="279.88" y="-783.93" font-family="Times New Roman,serif" font-size="14.00" fill="darkmagenta">0,4</text>
</g>
<!-- 11 -->
<g id="node10" class="node">
<title>11</title>
<ellipse fill="none" stroke="black" cx="217.97" cy="-631.63" rx="160.34" ry="27.93"/>
<text text-anchor="middle" x="217.97" y="-626.2" font-family="Times New Roman,serif" font-size="14.00">11. if i + j &lt;= k or j + k &lt;= i or i + k &lt;= j:</text>
<text text-anchor="start" x="40.38" y="-646.26" font-family="Times New Roman,serif" font-size="14.00" fill="darkorange">2,0</text>
</g>
<!-- 10&#45;&gt;11 -->
<g id="edge11" class="edge">
<title>10&#45;&gt;11</title>
<path fill="none" stroke="green" d="M330.77,-727.13C311.68,-711.14 282.48,-686.67 258.57,-666.64"/>
<polygon fill="green" stroke="green" points="261.1,-664.2 251.19,-660.46 256.61,-669.56 261.1,-664.2"/>
<text text-anchor="middle" x="358.97" y="-695.76" font-family="Times New Roman,serif" font-size="14.00">&quot;type_code == 0&quot;</text>
<text text-anchor="middle" x="358.97" y="-680.01" font-family="Times New Roman,serif" font-size="14.00">c[10]:(2,0) 0</text>
<text text-anchor="start" x="273.25" y="-695.84" font-family="Times New Roman,serif" font-size="14.00" fill="darkmagenta">2,0</text>
</g>
<!-- 13 -->
<g id="node11" class="node">
<title>13</title>
<ellipse fill="none" stroke="black" cx="484.97" cy="-631.63" rx="88.49" ry="18"/>
<text text-anchor="middle" x="484.97" y="-626.2" font-family="Times New Roman,serif" font-size="14.00">13. if type_code &gt; 3:</text>
<text text-anchor="start" x="379.23" y="-636.33" font-family="Times New Roman,serif" font-size="14.00" fill="darkorange">2,4</text>
</g>
<!-- 10&#45;&gt;13 -->
<g id="edge12" class="edge">
<title>10&#45;&gt;13</title>
<path fill="none" stroke="blue" d="M384.58,-727.93C394.46,-722.53 405.01,-716.08 413.97,-709.06 432.8,-694.3 451.1,-674.43 464.4,-658.64"/>
<polygon fill="blue" stroke="blue" points="466.99,-661 470.66,-651.06 461.6,-656.54 466.99,-661"/>
<text text-anchor="middle" x="494.59" y="-687.88" font-family="Times New Roman,serif" font-size="14.00">(type_code != 0)</text>
<text text-anchor="start" x="414.92" y="-695.65" font-family="Times New Roman,serif" font-size="14.00" fill="darkmagenta">2,4</text>
</g>
<!-- 26 -->
<g id="node12" class="node">
<title>26</title>
<ellipse fill="none" stroke="black" cx="217.97" cy="-454.26" rx="150.79" ry="27.93"/>
<text text-anchor="middle" x="217.97" y="-448.84" font-family="Times New Roman,serif" font-size="14.00">26. type_code = display_type_code(4)</text>
<text text-anchor="start" x="49.93" y="-468.89" font-family="Times New Roman,serif" font-size="14.00" fill="darkorange">2,0</text>
</g>
<!-- 11&#45;&gt;26 -->
<g id="edge13" class="edge">
<title>11&#45;&gt;26</title>
<path fill="none" stroke="green" d="M217.97,-603.23C217.97,-573.76 217.97,-526.68 217.97,-493.55"/>
<polygon fill="green" stroke="green" points="221.47,-493.99 217.97,-483.99 214.47,-493.99 221.47,-493.99"/>
<text text-anchor="middle" x="322.22" y="-572.39" font-family="Times New Roman,serif" font-size="14.00">&quot;i + j &lt;= k or j + k &lt;= i or i + k &lt;= j&quot;</text>
<text text-anchor="middle" x="322.22" y="-556.64" font-family="Times New Roman,serif" font-size="14.00">c[11]:(2,0) 0</text>
<text text-anchor="start" x="200.72" y="-545.31" font-family="Times New Roman,serif" font-size="14.00" fill="darkmagenta">2,0</text>
</g>
<!-- 16 -->
<g id="node13" class="node">
<title>16</title>
<ellipse fill="none" stroke="black" cx="484.97" cy="-518.19" rx="141.88" ry="18"/>
<text text-anchor="middle" x="484.97" y="-512.77" font-family="Times New Roman,serif" font-size="14.00">16. if type_code == 1 and i + j &gt; k:</text>
<text text-anchor="start" x="325.84" y="-522.89" font-family="Times New Roman,serif" font-size="14.00" fill="darkorange">2,4</text>
</g>
<!-- 13&#45;&gt;16 -->
<g id="edge15" class="edge">
<title>13&#45;&gt;16</title>
<path fill="none" stroke="blue" d="M484.97,-613.21C484.97,-595.71 484.97,-568.44 484.97,-547.77"/>
<polygon fill="blue" stroke="blue" points="488.47,-548 484.97,-538 481.47,-548 488.47,-548"/>
<text text-anchor="middle" x="534.47" y="-564.52" font-family="Times New Roman,serif" font-size="14.00">(type_code &lt;= 3)</text>
<text text-anchor="start" x="467.72" y="-577.04" font-family="Times New Roman,serif" font-size="14.00" fill="darkmagenta">2,4</text>
</g>
<!-- 26&#45;&gt;3 -->
<g id="edge14" class="edge">
<title>26&#45;&gt;3</title>
<path fill="none" stroke="green" d="M218.65,-426.26C219.23,-400.77 219.97,-361.49 219.97,-327.4 219.97,-327.4 219.97,-327.4 219.97,-123.68 219.97,-93.77 295.62,-70.5 355.68,-56.74"/>
<polygon fill="green" stroke="green" points="356.21,-60.21 365.21,-54.61 354.69,-53.38 356.21,-60.21"/>
<text text-anchor="start" x="202.72" y="-304.39" font-family="Times New Roman,serif" font-size="14.00" fill="darkmagenta">2,0</text>
</g>
<!-- 17 -->
<g id="node14" class="node">
<title>17</title>
<ellipse fill="none" stroke="black" cx="389.97" cy="-326.4" rx="150.79" ry="27.93"/>
<text text-anchor="middle" x="389.97" y="-320.98" font-family="Times New Roman,serif" font-size="14.00">17. type_code = display_type_code(2)</text>
<text text-anchor="start" x="221.93" y="-341.03" font-family="Times New Roman,serif" font-size="14.00" fill="darkorange">1,0</text>
</g>
<!-- 16&#45;&gt;17 -->
<g id="edge16" class="edge">
<title>16&#45;&gt;17</title>
<path fill="none" stroke="green" d="M413.05,-502.4C403.59,-497.47 395.07,-490.92 388.97,-482.19 365.23,-448.27 370.43,-399.11 378.33,-365.34"/>
<polygon fill="green" stroke="green" points="381.64,-366.54 380.7,-355.99 374.85,-364.82 381.64,-366.54"/>
<text text-anchor="middle" x="475.97" y="-456.71" font-family="Times New Roman,serif" font-size="14.00">&quot;type_code == 1 and i + j &gt; k&quot;</text>
<text text-anchor="middle" x="475.97" y="-440.96" font-family="Times New Roman,serif" font-size="14.00">c[14]:(1,0) 0</text>
<text text-anchor="start" x="372.15" y="-417.21" font-family="Times New Roman,serif" font-size="14.00" fill="darkmagenta">1,0</text>
</g>
<!-- 19 -->
<g id="node15" class="node">
<title>19</title>
<ellipse fill="none" stroke="black" cx="588.97" cy="-390.33" rx="141.88" ry="18"/>
<text text-anchor="middle" x="588.97" y="-384.91" font-family="Times New Roman,serif" font-size="14.00">19. if type_code == 2 and i + k &gt; j:</text>
<text text-anchor="start" x="429.84" y="-395.03" font-family="Times New Roman,serif" font-size="14.00" fill="darkorange">1,4</text>
</g>
<!-- 16&#45;&gt;19 -->
<g id="edge17" class="edge">
<title>16&#45;&gt;19</title>
<path fill="none" stroke="blue" d="M541.68,-501.29C551.19,-496.46 560.17,-490.23 566.97,-482.19 581.56,-464.96 586.79,-439.62 588.52,-420.08"/>
<polygon fill="blue" stroke="blue" points="592,-420.49 589.11,-410.3 585.02,-420.07 592,-420.49"/>
<text text-anchor="middle" x="687.84" y="-448.84" font-family="Times New Roman,serif" font-size="14.00">(not (type_code == 1 and i + j &gt; k))</text>
<text text-anchor="start" x="566.61" y="-447.32" font-family="Times New Roman,serif" font-size="14.00" fill="darkmagenta">1,4</text>
</g>
<!-- 17&#45;&gt;3 -->
<g id="edge18" class="edge">
<title>17&#45;&gt;3</title>
<path fill="none" stroke="green" d="M391.68,-298.2C393.8,-267.21 397.89,-215.13 403.97,-170.61 409.64,-129.04 413.08,-118.96 420.97,-77.75 421.36,-75.69 421.77,-73.57 422.19,-71.44"/>
<polygon fill="green" stroke="green" points="425.62,-72.16 424.13,-61.67 418.75,-70.8 425.62,-72.16"/>
<text text-anchor="start" x="386.72" y="-173.03" font-family="Times New Roman,serif" font-size="14.00" fill="darkmagenta">1,0</text>
</g>
<!-- 20 -->
<g id="node16" class="node">
<title>20</title>
<ellipse fill="none" stroke="black" cx="555.97" cy="-198.54" rx="150.79" ry="27.93"/>
<text text-anchor="middle" x="555.97" y="-193.12" font-family="Times New Roman,serif" font-size="14.00">20. type_code = display_type_code(2)</text>
<text text-anchor="start" x="387.93" y="-213.17" font-family="Times New Roman,serif" font-size="14.00" fill="darkorange">1,0</text>
</g>
<!-- 19&#45;&gt;20 -->
<g id="edge19" class="edge">
<title>19&#45;&gt;20</title>
<path fill="none" stroke="green" d="M571.68,-372.2C567.39,-366.9 563.34,-360.76 560.97,-354.33 547.04,-316.59 547.69,-270.09 550.63,-237.96"/>
<polygon fill="green" stroke="green" points="554.08,-238.63 551.63,-228.32 547.11,-237.9 554.08,-238.63"/>
<text text-anchor="middle" x="647.97" y="-328.85" font-family="Times New Roman,serif" font-size="14.00">&quot;type_code == 2 and i + k &gt; j&quot;</text>
<text text-anchor="middle" x="647.97" y="-313.1" font-family="Times New Roman,serif" font-size="14.00">c[15]:(1,0) 0</text>
<text text-anchor="start" x="549.91" y="-286.96" font-family="Times New Roman,serif" font-size="14.00" fill="darkmagenta">1,0</text>
</g>
<!-- 22 -->
<g id="node17" class="node">
<title>22</title>
<ellipse fill="none" stroke="black" cx="760.97" cy="-262.47" rx="141.88" ry="18"/>
<text text-anchor="middle" x="760.97" y="-257.05" font-family="Times New Roman,serif" font-size="14.00">22. if type_code == 3 and j + k &gt; i:</text>
<text text-anchor="start" x="601.84" y="-267.17" font-family="Times New Roman,serif" font-size="14.00" fill="darkorange">0,4</text>
</g>
<!-- 19&#45;&gt;22 -->
<g id="edge20" class="edge">
<title>19&#45;&gt;22</title>
<path fill="none" stroke="red" d="M680.02,-376.17C705.99,-370.7 729.76,-363.47 738.97,-354.33 755.27,-338.17 760.27,-312.13 761.49,-292.06"/>
<polygon fill="red" stroke="red" points="764.98,-292.38 761.78,-282.28 757.98,-292.17 764.98,-292.38"/>
<text text-anchor="middle" x="860.84" y="-320.98" font-family="Times New Roman,serif" font-size="14.00">(not (type_code == 2 and i + k &gt; j))</text>
<text text-anchor="start" x="729.16" y="-347.65" font-family="Times New Roman,serif" font-size="14.00" fill="darkmagenta">0,4</text>
</g>
<!-- 20&#45;&gt;3 -->
<g id="edge21" class="edge">
<title>20&#45;&gt;3</title>
<path fill="none" stroke="green" d="M474,-174.81C463.71,-168.99 454.26,-161.72 446.97,-152.61 428.64,-129.74 425.35,-95.49 425.71,-71.32"/>
<polygon fill="green" stroke="green" points="429.2,-71.68 426.1,-61.55 422.21,-71.41 429.2,-71.68"/>
<text text-anchor="start" x="414.64" y="-125" font-family="Times New Roman,serif" font-size="14.00" fill="darkmagenta">1,0</text>
</g>
<!-- 23 -->
<g id="node18" class="node">
<title>23</title>
<ellipse fill="none" stroke="black" cx="606.97" cy="-124.68" rx="150.79" ry="27.93"/>
<text text-anchor="middle" x="606.97" y="-119.26" font-family="Times New Roman,serif" font-size="14.00">23. type_code = display_type_code(2)</text>
<text text-anchor="start" x="438.93" y="-139.31" font-family="Times New Roman,serif" font-size="14.00" fill="darkorange">0,2</text>
</g>
<!-- 22&#45;&gt;23 -->
<g id="edge22" class="edge">
<title>22&#45;&gt;23</title>
<path fill="none" stroke="red" stroke-width="3.96" d="M744.23,-244.16C739.56,-238.76 734.73,-232.61 730.97,-226.47 716.94,-203.58 726.69,-189.86 707.97,-170.61 703.38,-165.89 698.2,-161.63 692.68,-157.79"/>
<polygon fill="red" stroke="red" stroke-width="3.96" points="694.75,-154.95 684.4,-152.7 691.09,-160.91 694.75,-154.95"/>
<text text-anchor="middle" x="817.97" y="-200.99" font-family="Times New Roman,serif" font-size="14.00">&quot;type_code == 3 and j + k &gt; i&quot;</text>
<text text-anchor="middle" x="817.97" y="-185.24" font-family="Times New Roman,serif" font-size="14.00">c[16]:(0,2) 0.74</text>
<text text-anchor="start" x="712.12" y="-181.44" font-family="Times New Roman,serif" font-size="14.00" fill="darkmagenta">0,2</text>
</g>
<!-- 25 -->
<g id="node19" class="node">
<title>25</title>
<ellipse fill="none" stroke="black" cx="926.97" cy="-124.68" rx="150.79" ry="27.93"/>
<text text-anchor="middle" x="926.97" y="-119.26" font-family="Times New Roman,serif" font-size="14.00">25. type_code = display_type_code(4)</text>
<text text-anchor="start" x="758.93" y="-139.31" font-family="Times New Roman,serif" font-size="14.00" fill="darkorange">0,2</text>
</g>
<!-- 22&#45;&gt;25 -->
<g id="edge23" class="edge">
<title>22&#45;&gt;25</title>
<path fill="none" stroke="red" stroke-width="3.96" d="M848.91,-247.98C873.7,-242.51 896.29,-235.35 904.97,-226.47 919.73,-211.36 925.56,-188.77 927.55,-168.81"/>
<polygon fill="red" stroke="red" stroke-width="3.96" points="931.05,-169.04 928.11,-158.86 924.06,-168.65 931.05,-169.04"/>
<text text-anchor="middle" x="1033.84" y="-200.99" font-family="Times New Roman,serif" font-size="14.00">&quot;(not (type_code == 3 and j + k &gt; i))&quot;</text>
<text text-anchor="middle" x="1033.84" y="-185.24" font-family="Times New Roman,serif" font-size="14.00">c[17]:(0,2) 0.74</text>
<text text-anchor="start" x="895.92" y="-218.45" font-family="Times New Roman,serif" font-size="14.00" fill="darkmagenta">0,2</text>
</g>
<!-- 23&#45;&gt;3 -->
<g id="edge24" class="edge">
<title>23&#45;&gt;3</title>
<path fill="none" stroke="red" d="M550.82,-98.3C525.84,-87 496.81,-73.87 473.24,-63.22"/>
<polygon fill="red" stroke="red" points="474.77,-60.07 464.21,-59.14 471.88,-66.45 474.77,-60.07"/>
<text text-anchor="start" x="489.89" y="-80.99" font-family="Times New Roman,serif" font-size="14.00" fill="darkmagenta">0,2</text>
</g>
<!-- 25&#45;&gt;3 -->
<g id="edge25" class="edge">
<title>25&#45;&gt;3</title>
<path fill="none" stroke="red" d="M817.68,-105.15C800.71,-102.32 783.37,-99.44 766.97,-96.75 677.13,-82.04 573.82,-65.66 505.08,-54.84"/>
<polygon fill="red" stroke="red" points="505.85,-51.41 495.43,-53.32 504.77,-58.33 505.85,-51.41"/>
<text text-anchor="start" x="638.41" y="-81.19" font-family="Times New Roman,serif" font-size="14.00" fill="darkmagenta">0,2</text>
</g>
</g>
</svg>
