<?xml version="1.0" encoding="UTF-8" standalone="no"?>
<!DOCTYPE svg PUBLIC "-//W3C//DTD SVG 1.1//EN"
 "http://www.w3.org/Graphics/SVG/1.1/DTD/svg11.dtd">
<!-- Generated by graphviz version 10.0.1 (20240210.2158)
 -->
<!-- Pages: 1 -->
<svg width="309pt" height="152pt"
 viewBox="0.00 0.00 308.51 151.61" xmlns="http://www.w3.org/2000/svg" xmlns:xlink="http://www.w3.org/1999/xlink">
<g id="graph0" class="graph" transform="scale(1 1) rotate(0) translate(4 147.61)">
<polygon fill="white" stroke="none" points="-4,4 -4,-147.61 304.51,-147.61 304.51,4 -4,4"/>
<!-- equilateral_area.equilateral_area -->
<g id="node1" class="node">
<title>equilateral_area.equilateral_area</title>
<g id="a_node1"><a xlink:href="simp_fault_report.html#equilateral_area" xlink:title="equilateral_area.equilateral_area\nMax Score: 0.62">
<ellipse fill="none" stroke="red" stroke-width="2" cx="165.63" cy="-99.93" rx="134.88" ry="27.93"/>
<text text-anchor="middle" x="165.63" y="-102.38" font-family="Times New Roman,serif" font-size="14.00">equilateral_area.equilateral_area</text>
<text text-anchor="middle" x="165.63" y="-86.63" font-family="Times New Roman,serif" font-size="14.00">Max Score: 0.62</text>
</a>
</g>
<text text-anchor="start" x="0" y="-114.56" font-family="Times New Roman,serif" font-size="14.00" fill="darkorange">10,10</text>
</g>
<!-- math.pow -->
<g id="node2" class="node">
<title>math.pow</title>
<g id="a_node2"><a xlink:href="simp_fault_report.html#pow" xlink:title="math.pow">
<ellipse fill="none" stroke="black" stroke-width="2" cx="110.63" cy="-18" rx="47.57" ry="18"/>
<text text-anchor="middle" x="110.63" y="-12.57" font-family="Times New Roman,serif" font-size="14.00">math.pow</text>
</a>
</g>
</g>
<!-- equilateral_area.equilateral_area&#45;&gt;math.pow -->
<g id="edge1" class="edge">
<title>equilateral_area.equilateral_area&#45;&gt;math.pow</title>
<path fill="none" stroke="black" d="M146.7,-71.42C140.9,-62.98 134.52,-53.72 128.77,-45.36"/>
<polygon fill="black" stroke="black" points="131.78,-43.57 123.23,-37.31 126.02,-47.53 131.78,-43.57"/>
</g>
<!-- math.sqrt -->
<g id="node3" class="node">
<title>math.sqrt</title>
<g id="a_node3"><a xlink:href="simp_fault_report.html#sqrt" xlink:title="math.sqrt">
<ellipse fill="none" stroke="black" stroke-width="2" cx="221.63" cy="-18" rx="45.57" ry="18"/>
<text text-anchor="middle" x="221.63" y="-12.57" font-family="Times New Roman,serif" font-size="14.00">math.sqrt</text>
</a>
</g>
</g>
<!-- equilateral_area.equilateral_area&#45;&gt;math.sqrt -->
<g id="edge2" class="edge">
<title>equilateral_area.equilateral_area&#45;&gt;math.sqrt</title>
<path fill="none" stroke="black" d="M184.9,-71.42C190.82,-62.98 197.3,-53.72 203.16,-45.36"/>
<polygon fill="black" stroke="black" points="205.94,-47.5 208.81,-37.3 200.2,-43.49 205.94,-47.5"/>
</g>
</g>
</svg>
