<?xml version="1.0" encoding="UTF-8" standalone="no"?>
<!DOCTYPE svg PUBLIC "-//W3C//DTD SVG 1.1//EN"
 "http://www.w3.org/Graphics/SVG/1.1/DTD/svg11.dtd">
<!-- Generated by graphviz version 10.0.1 (20240210.2158)
 -->
<!-- Pages: 1 -->
<svg width="255pt" height="171pt"
 viewBox="0.00 0.00 255.16 171.47" xmlns="http://www.w3.org/2000/svg" xmlns:xlink="http://www.w3.org/1999/xlink">
<g id="graph0" class="graph" transform="scale(1 1) rotate(0) translate(4 167.47)">
<polygon fill="white" stroke="none" points="-4,4 -4,-167.47 251.16,-167.47 251.16,4 -4,4"/>
<!-- mergesort.mergesort -->
<g id="node1" class="node">
<title>mergesort.mergesort</title>
<g id="a_node1"><a xlink:href="fault_report.html#mergesort" xlink:title="mergesort.mergesort\nMax Score: 0.5">
<ellipse fill="none" stroke="red" stroke-width="2" cx="136.7" cy="-119.79" rx="92.45" ry="27.93"/>
<text text-anchor="middle" x="136.7" y="-122.24" font-family="Times New Roman,serif" font-size="14.00">mergesort.mergesort</text>
<text text-anchor="middle" x="136.7" y="-106.49" font-family="Times New Roman,serif" font-size="14.00">Max Score: 0.5</text>
</a>
</g>
<text text-anchor="start" x="0" y="-134.42" font-family="Times New Roman,serif" font-size="14.00" fill="darkorange">182,146</text>
</g>
<!-- mergesort.mergesort&#45;&gt;mergesort.mergesort -->
<g id="edge2" class="edge">
<title>mergesort.mergesort&#45;&gt;mergesort.mergesort</title>
<path fill="none" stroke="black" d="M212.08,-136.86C232.04,-135.89 247.16,-130.2 247.16,-119.79 247.16,-111.42 237.37,-106.1 223.14,-103.83"/>
<polygon fill="black" stroke="black" points="223.88,-100.39 213.58,-102.87 223.18,-107.35 223.88,-100.39"/>
</g>
<!-- mergesort.merge -->
<g id="node2" class="node">
<title>mergesort.merge</title>
<g id="a_node2"><a xlink:href="fault_report.html#merge" xlink:title="mergesort.merge\nMax Score: 0.48">
<ellipse fill="none" stroke="black" stroke-width="2" cx="136.7" cy="-27.93" rx="77.07" ry="27.93"/>
<text text-anchor="middle" x="136.7" y="-30.38" font-family="Times New Roman,serif" font-size="14.00">mergesort.merge</text>
<text text-anchor="middle" x="136.7" y="-14.63" font-family="Times New Roman,serif" font-size="14.00">Max Score: 0.48</text>
</a>
</g>
<text text-anchor="start" x="28.88" y="-42.56" font-family="Times New Roman,serif" font-size="14.00" fill="darkorange">83,65</text>
</g>
<!-- mergesort.mergesort&#45;&gt;mergesort.merge -->
<g id="edge1" class="edge">
<title>mergesort.mergesort&#45;&gt;mergesort.merge</title>
<path fill="none" stroke="black" d="M136.7,-91.34C136.7,-84.08 136.7,-76.09 136.7,-68.32"/>
<polygon fill="black" stroke="black" points="140.2,-68.35 136.7,-58.35 133.2,-68.35 140.2,-68.35"/>
</g>
</g>
</svg>
