<?xml version="1.0" encoding="UTF-8" standalone="no"?>
<!DOCTYPE svg PUBLIC "-//W3C//DTD SVG 1.1//EN"
 "http://www.w3.org/Graphics/SVG/1.1/DTD/svg11.dtd">
<!-- Generated by graphviz version 10.0.1 (20240210.2158)
 -->
<!-- Title: clustertrityp Pages: 1 -->
<svg width="856pt" height="1363pt"
 viewBox="0.00 0.00 855.88 1362.52" xmlns="http://www.w3.org/2000/svg" xmlns:xlink="http://www.w3.org/1999/xlink">
<g id="graph0" class="graph" transform="scale(1 1) rotate(0) translate(4 1358.52)">
<title>clustertrityp</title>
<polygon fill="white" stroke="none" points="-4,4 -4,-1358.52 851.88,-1358.52 851.88,4 -4,4"/>
<text text-anchor="middle" x="423.94" y="-5.75" font-family="Times New Roman,serif" font-size="10.00">trityp</text>
<!-- 1 -->
<g id="node1" class="node">
<title>1</title>
<ellipse fill="none" stroke="black" cx="345.97" cy="-1315.34" rx="123.21" ry="27.93"/>
<text text-anchor="middle" x="345.97" y="-1311.47" font-family="Times New Roman,serif" font-size="10.00">1. if i == 0 or j == 0 or k == 0:</text>
<text text-anchor="start" x="211.51" y="-1333.77" font-family="Times New Roman,serif" font-size="10.00" fill="darkorange">4,4</text>
</g>
<!-- 4 -->
<g id="node2" class="node">
<title>4</title>
<ellipse fill="none" stroke="black" cx="345.97" cy="-1191.35" rx="69.12" ry="39.07"/>
<text text-anchor="middle" x="345.97" y="-1193.1" font-family="Times New Roman,serif" font-size="10.00">4. type_code = 0</text>
<text text-anchor="middle" x="345.97" y="-1181.85" font-family="Times New Roman,serif" font-size="10.00">if i == j:</text>
<text text-anchor="start" x="265.6" y="-1220.91" font-family="Times New Roman,serif" font-size="10.00" fill="darkorange">4,4</text>
</g>
<!-- 1&#45;&gt;4 -->
<g id="edge1" class="edge">
<title>1&#45;&gt;4</title>
<path fill="none" stroke="blue" d="M345.97,-1286.96C345.97,-1273.75 345.97,-1257.48 345.97,-1242.18"/>
<polygon fill="blue" stroke="blue" points="349.47,-1242.25 345.97,-1232.25 342.47,-1242.25 349.47,-1242.25"/>
<text text-anchor="middle" x="406.34" y="-1261.81" font-family="Times New Roman,serif" font-size="8.00">&quot;(not (i == 0 or j == 0 or k == 0))&quot;</text>
<text text-anchor="middle" x="406.34" y="-1251.31" font-family="Times New Roman,serif" font-size="8.00">c[6]</text>
<text text-anchor="start" x="318.97" y="-1251.27" font-family="Times New Roman,serif" font-size="8.00" fill="darkmagenta"> &#160;&#160;&#160;&#160;4,4 &#160;</text>
</g>
<!-- 5 -->
<g id="node4" class="node">
<title>5</title>
<ellipse fill="none" stroke="black" cx="224.97" cy="-1067.35" rx="205.95" ry="27.93"/>
<text text-anchor="middle" x="224.97" y="-1063.47" font-family="Times New Roman,serif" font-size="10.00">5. type_code = is_side_one_equal_two(type_code)</text>
<text text-anchor="start" x="7.77" y="-1085.78" font-family="Times New Roman,serif" font-size="10.00" fill="darkorange">1,0</text>
</g>
<!-- 4&#45;&gt;5 -->
<g id="edge2" class="edge">
<title>4&#45;&gt;5</title>
<path fill="none" stroke="#429e6a" d="M312.58,-1156.69C296.11,-1140.08 276.26,-1120.06 259.62,-1103.29"/>
<polygon fill="#429e6a" stroke="#429e6a" points="262.33,-1101.05 252.81,-1096.41 257.36,-1105.98 262.33,-1101.05"/>
<text text-anchor="middle" x="302.72" y="-1126.68" font-family="Times New Roman,serif" font-size="8.00">&quot;i == j&quot;</text>
<text text-anchor="middle" x="302.72" y="-1116.18" font-family="Times New Roman,serif" font-size="8.00">c[7]</text>
<text text-anchor="start" x="255.33" y="-1118.58" font-family="Times New Roman,serif" font-size="8.00" fill="darkmagenta"> &#160;&#160;&#160;&#160;1,0 &#160;</text>
</g>
<!-- 6 -->
<g id="node5" class="node">
<title>6</title>
<ellipse fill="none" stroke="black" cx="345.97" cy="-984.42" rx="42.58" ry="18"/>
<text text-anchor="middle" x="345.97" y="-980.54" font-family="Times New Roman,serif" font-size="10.00">6. if i == k:</text>
<text text-anchor="start" x="292.14" y="-992.92" font-family="Times New Roman,serif" font-size="10.00" fill="darkorange">4,4</text>
</g>
<!-- 4&#45;&gt;6 -->
<g id="edge3" class="edge">
<title>4&#45;&gt;6</title>
<path fill="none" stroke="blue" d="M388.41,-1160.17C408.07,-1143.54 429.38,-1121.04 439.97,-1095.28 449.4,-1072.31 452.41,-1060.9 439.97,-1039.42 429.2,-1020.81 409.33,-1008.06 390.62,-999.64"/>
<polygon fill="blue" stroke="blue" points="392.09,-996.46 381.51,-995.87 389.41,-1002.93 392.09,-996.46"/>
<text text-anchor="middle" x="460.22" y="-1065" font-family="Times New Roman,serif" font-size="8.00">(i != j)</text>
<text text-anchor="start" x="439.98" y="-1087.64" font-family="Times New Roman,serif" font-size="8.00" fill="darkmagenta"> &#160;&#160;&#160;&#160;3,4 &#160;</text>
</g>
<!-- 3 -->
<g id="node3" class="node">
<title>3</title>
<ellipse fill="none" stroke="black" cx="403.97" cy="-37.25" rx="74.02" ry="18"/>
<text text-anchor="middle" x="403.97" y="-33.38" font-family="Times New Roman,serif" font-size="10.00">3. return type_code</text>
<text text-anchor="start" x="318.7" y="-45.75" font-family="Times New Roman,serif" font-size="10.00" fill="darkorange">4,4</text>
</g>
<!-- 5&#45;&gt;6 -->
<g id="edge4" class="edge">
<title>5&#45;&gt;6</title>
<path fill="none" stroke="#429e6a" d="M264.92,-1039.62C281.07,-1028.82 299.44,-1016.54 314.6,-1006.4"/>
<polygon fill="#429e6a" stroke="#429e6a" points="316.42,-1009.39 322.79,-1000.92 312.53,-1003.57 316.42,-1009.39"/>
<text text-anchor="start" x="267.5" y="-1012.24" font-family="Times New Roman,serif" font-size="8.00" fill="darkmagenta"> &#160;&#160;&#160;&#160;1,0 &#160;</text>
</g>
<!-- 7 -->
<g id="node6" class="node">
<title>7</title>
<ellipse fill="none" stroke="black" cx="222.97" cy="-881.49" rx="210.19" ry="27.93"/>
<text text-anchor="middle" x="222.97" y="-877.61" font-family="Times New Roman,serif" font-size="10.00">7. type_code = is_side_one_equal_three(type_code)</text>
<text text-anchor="start" x="1.53" y="-899.92" font-family="Times New Roman,serif" font-size="10.00" fill="darkorange">1,0</text>
</g>
<!-- 6&#45;&gt;7 -->
<g id="edge5" class="edge">
<title>6&#45;&gt;7</title>
<path fill="none" stroke="#429e6a" d="M327.02,-967.87C310.39,-954.22 285.62,-933.9 264.42,-916.5"/>
<polygon fill="#429e6a" stroke="#429e6a" points="266.71,-913.85 256.76,-910.22 262.27,-919.27 266.71,-913.85"/>
<text text-anchor="middle" x="316.84" y="-940.82" font-family="Times New Roman,serif" font-size="8.00">&quot;i == k&quot;</text>
<text text-anchor="middle" x="316.84" y="-930.32" font-family="Times New Roman,serif" font-size="8.00">c[8]</text>
<text text-anchor="start" x="264.24" y="-930.91" font-family="Times New Roman,serif" font-size="8.00" fill="darkmagenta"> &#160;&#160;&#160;&#160;1,0 &#160;</text>
</g>
<!-- 8 -->
<g id="node7" class="node">
<title>8</title>
<ellipse fill="none" stroke="black" cx="345.97" cy="-798.56" rx="42.58" ry="18"/>
<text text-anchor="middle" x="345.97" y="-794.68" font-family="Times New Roman,serif" font-size="10.00">8. if j == k:</text>
<text text-anchor="start" x="292.14" y="-807.06" font-family="Times New Roman,serif" font-size="10.00" fill="darkorange">4,4</text>
</g>
<!-- 6&#45;&gt;8 -->
<g id="edge6" class="edge">
<title>6&#45;&gt;8</title>
<path fill="none" stroke="blue" d="M374.09,-970.67C397.07,-958.55 427.95,-937.93 441.97,-909.42 452.93,-887.14 454.5,-874.99 441.97,-853.56 430.89,-834.61 410.46,-821.8 391.28,-813.43"/>
<polygon fill="blue" stroke="blue" points="392.81,-810.28 382.22,-809.79 390.2,-816.77 392.81,-810.28"/>
<text text-anchor="middle" x="462.34" y="-879.14" font-family="Times New Roman,serif" font-size="8.00">(i != k)</text>
<text text-anchor="start" x="414.98" y="-901.8" font-family="Times New Roman,serif" font-size="8.00" fill="darkmagenta"> &#160;&#160;&#160;&#160;3,4 &#160;</text>
</g>
<!-- 7&#45;&gt;8 -->
<g id="edge7" class="edge">
<title>7&#45;&gt;8</title>
<path fill="none" stroke="#429e6a" d="M263.58,-853.76C280,-842.96 298.67,-830.68 314.08,-820.54"/>
<polygon fill="#429e6a" stroke="#429e6a" points="315.99,-823.47 322.42,-815.05 312.14,-817.62 315.99,-823.47"/>
<text text-anchor="start" x="266.65" y="-826.38" font-family="Times New Roman,serif" font-size="8.00" fill="darkmagenta"> &#160;&#160;&#160;&#160;1,0 &#160;</text>
</g>
<!-- 9 -->
<g id="node8" class="node">
<title>9</title>
<ellipse fill="none" stroke="black" cx="221.97" cy="-685.13" rx="210.72" ry="27.93"/>
<text text-anchor="middle" x="221.97" y="-681.25" font-family="Times New Roman,serif" font-size="10.00">9. type_code = is_side_two_equal_three(type_code)</text>
<text text-anchor="start" x="0" y="-703.56" font-family="Times New Roman,serif" font-size="10.00" fill="darkorange">0,4</text>
</g>
<!-- 8&#45;&gt;9 -->
<g id="edge8" class="edge">
<title>8&#45;&gt;9</title>
<path fill="none" stroke="red" stroke-width="5" d="M328.47,-781.83C311.68,-766.74 285.7,-743.39 263.6,-723.54"/>
<polygon fill="red" stroke="red" stroke-width="5" points="266.81,-720.54 256.44,-717.11 260.96,-727.04 266.81,-720.54"/>
<text text-anchor="middle" x="325.47" y="-754.96" font-family="Times New Roman,serif" font-size="8.00">&quot;j == k&quot;</text>
<text text-anchor="middle" x="325.47" y="-744.46" font-family="Times New Roman,serif" font-size="8.00">c[9]</text>
<text text-anchor="middle" x="325.47" y="-733.96" font-family="Times New Roman,serif" font-size="8.00"> &#160;Score: 1.0</text>
<text text-anchor="start" x="262.95" y="-739.62" font-family="Times New Roman,serif" font-size="8.00" fill="darkmagenta"> &#160;&#160;&#160;&#160;0,4 &#160;</text>
</g>
<!-- 10 -->
<g id="node9" class="node">
<title>10</title>
<ellipse fill="none" stroke="black" cx="344.97" cy="-602.19" rx="80.01" ry="18"/>
<text text-anchor="middle" x="344.97" y="-598.32" font-family="Times New Roman,serif" font-size="10.00">10. if type_code == 0:</text>
<text text-anchor="start" x="253.71" y="-610.69" font-family="Times New Roman,serif" font-size="10.00" fill="darkorange">4,4</text>
</g>
<!-- 8&#45;&gt;10 -->
<g id="edge9" class="edge">
<title>8&#45;&gt;10</title>
<path fill="none" stroke="#429e6a" d="M371.49,-783.67C394.76,-769.41 427.61,-744.82 441.97,-713.06 452.19,-690.43 454.55,-678.6 441.97,-657.19 432.88,-641.72 417.57,-630.36 401.76,-622.17"/>
<polygon fill="#429e6a" stroke="#429e6a" points="403.27,-619.01 392.74,-617.88 400.27,-625.33 403.27,-619.01"/>
<text text-anchor="middle" x="462.34" y="-682.78" font-family="Times New Roman,serif" font-size="8.00">(j != k)</text>
<text text-anchor="start" x="414.98" y="-705.44" font-family="Times New Roman,serif" font-size="8.00" fill="darkmagenta"> &#160;&#160;&#160;&#160;4,0 &#160;</text>
</g>
<!-- 9&#45;&gt;10 -->
<g id="edge10" class="edge">
<title>9&#45;&gt;10</title>
<path fill="none" stroke="red" d="M262.58,-657.4C278.08,-647.2 295.59,-635.69 310.47,-625.9"/>
<polygon fill="red" stroke="red" points="312.12,-629 318.55,-620.58 308.27,-623.15 312.12,-629"/>
<text text-anchor="start" x="263.96" y="-631.13" font-family="Times New Roman,serif" font-size="8.00" fill="darkmagenta"> &#160;&#160;&#160;&#160;0,4 &#160;</text>
</g>
<!-- 11 -->
<g id="node10" class="node">
<title>11</title>
<ellipse fill="none" stroke="black" cx="218.97" cy="-499.26" rx="160.34" ry="27.93"/>
<text text-anchor="middle" x="218.97" y="-495.39" font-family="Times New Roman,serif" font-size="10.00">11. if i + j &lt;= k or j + k &lt;= i or i + k &lt;= j:</text>
<text text-anchor="start" x="47.38" y="-517.69" font-family="Times New Roman,serif" font-size="10.00" fill="darkorange">2,0</text>
</g>
<!-- 10&#45;&gt;11 -->
<g id="edge11" class="edge">
<title>10&#45;&gt;11</title>
<path fill="none" stroke="#429e6a" d="M324.16,-584.53C307.04,-570.81 282.21,-550.93 260.98,-533.92"/>
<polygon fill="#429e6a" stroke="#429e6a" points="263.31,-531.3 253.32,-527.78 258.93,-536.76 263.31,-531.3"/>
<text text-anchor="middle" x="331.72" y="-558.59" font-family="Times New Roman,serif" font-size="8.00">&quot;type_code == 0&quot;</text>
<text text-anchor="middle" x="331.72" y="-548.09" font-family="Times New Roman,serif" font-size="8.00">c[10]</text>
<text text-anchor="start" x="261.4" y="-548.28" font-family="Times New Roman,serif" font-size="8.00" fill="darkmagenta"> &#160;&#160;&#160;&#160;2,0 &#160;</text>
</g>
<!-- 13 -->
<g id="node11" class="node">
<title>13</title>
<ellipse fill="none" stroke="black" cx="471.97" cy="-499.26" rx="74.52" ry="18"/>
<text text-anchor="middle" x="471.97" y="-495.39" font-family="Times New Roman,serif" font-size="10.00">13. if type_code &gt; 3:</text>
<text text-anchor="start" x="386.2" y="-507.76" font-family="Times New Roman,serif" font-size="10.00" fill="darkorange">2,4</text>
</g>
<!-- 10&#45;&gt;13 -->
<g id="edge12" class="edge">
<title>10&#45;&gt;13</title>
<path fill="none" stroke="blue" d="M365.94,-584.53C386.71,-568.02 418.73,-542.58 442.14,-523.97"/>
<polygon fill="blue" stroke="blue" points="444.13,-526.86 449.78,-517.9 439.77,-521.38 444.13,-526.86"/>
<text text-anchor="middle" x="442.22" y="-553.34" font-family="Times New Roman,serif" font-size="8.00">(type_code != 0)</text>
<text text-anchor="start" x="381.45" y="-543.14" font-family="Times New Roman,serif" font-size="8.00" fill="darkmagenta"> &#160;&#160;&#160;&#160;2,4 &#160;</text>
</g>
<!-- 26 -->
<g id="node12" class="node">
<title>26</title>
<ellipse fill="none" stroke="black" cx="218.97" cy="-194.04" rx="150.79" ry="27.93"/>
<text text-anchor="middle" x="218.97" y="-190.17" font-family="Times New Roman,serif" font-size="10.00">26. type_code = display_type_code(4)</text>
<text text-anchor="start" x="56.93" y="-212.47" font-family="Times New Roman,serif" font-size="10.00" fill="darkorange">2,0</text>
</g>
<!-- 11&#45;&gt;26 -->
<g id="edge13" class="edge">
<title>11&#45;&gt;26</title>
<path fill="none" stroke="#429e6a" d="M218.97,-471.09C218.97,-417.01 218.97,-295.78 218.97,-233.53"/>
<polygon fill="#429e6a" stroke="#429e6a" points="222.47,-233.78 218.97,-223.78 215.47,-233.78 222.47,-233.78"/>
<text text-anchor="middle" x="281.97" y="-388.73" font-family="Times New Roman,serif" font-size="8.00">&quot;i + j &lt;= k or j + k &lt;= i or i + k &lt;= j&quot;</text>
<text text-anchor="middle" x="281.97" y="-378.23" font-family="Times New Roman,serif" font-size="8.00">c[11]</text>
<text text-anchor="start" x="191.97" y="-338.83" font-family="Times New Roman,serif" font-size="8.00" fill="darkmagenta"> &#160;&#160;&#160;&#160;2,0 &#160;</text>
</g>
<!-- 14 -->
<g id="node13" class="node">
<title>14</title>
<ellipse fill="none" stroke="black" cx="384.97" cy="-321.9" rx="150.79" ry="27.93"/>
<text text-anchor="middle" x="384.97" y="-318.03" font-family="Times New Roman,serif" font-size="10.00">14. type_code = display_type_code(3)</text>
<text text-anchor="start" x="222.93" y="-340.33" font-family="Times New Roman,serif" font-size="10.00" fill="darkorange">0,4</text>
</g>
<!-- 13&#45;&gt;14 -->
<g id="edge15" class="edge">
<title>13&#45;&gt;14</title>
<path fill="none" stroke="red" stroke-width="5" d="M461.8,-481.36C456.87,-473.01 450.96,-462.73 445.97,-453.33 430.51,-424.22 414.79,-390.48 403.18,-364.62"/>
<polygon fill="red" stroke="red" stroke-width="5" points="407.28,-363.08 399.22,-355.72 399.29,-366.63 407.28,-363.08"/>
<text text-anchor="middle" x="474.47" y="-445.73" font-family="Times New Roman,serif" font-size="8.00">&quot;type_code &gt; 3&quot;</text>
<text text-anchor="middle" x="474.47" y="-435.23" font-family="Times New Roman,serif" font-size="8.00">c[13]</text>
<text text-anchor="middle" x="474.47" y="-424.73" font-family="Times New Roman,serif" font-size="8.00"> &#160;Score: 1.0</text>
<text text-anchor="start" x="400.47" y="-409.16" font-family="Times New Roman,serif" font-size="8.00" fill="darkmagenta"> &#160;&#160;&#160;&#160;0,4 &#160;</text>
</g>
<!-- 16 -->
<g id="node14" class="node">
<title>16</title>
<ellipse fill="none" stroke="black" cx="558.97" cy="-385.83" rx="127.91" ry="18"/>
<text text-anchor="middle" x="558.97" y="-381.96" font-family="Times New Roman,serif" font-size="10.00">16. if type_code == 1 and i + j &gt; k:</text>
<text text-anchor="start" x="419.81" y="-394.33" font-family="Times New Roman,serif" font-size="10.00" fill="darkorange">2,0</text>
</g>
<!-- 13&#45;&gt;16 -->
<g id="edge16" class="edge">
<title>13&#45;&gt;16</title>
<path fill="none" stroke="#429e6a" d="M485.18,-481.34C499.36,-463.18 522.07,-434.1 538.55,-412.99"/>
<polygon fill="#429e6a" stroke="#429e6a" points="541.3,-415.15 544.7,-405.11 535.79,-410.84 541.3,-415.15"/>
<text text-anchor="middle" x="559.97" y="-435.23" font-family="Times New Roman,serif" font-size="8.00">(type_code &lt;= 3)</text>
<text text-anchor="start" x="515.47" y="-434.94" font-family="Times New Roman,serif" font-size="8.00" fill="darkmagenta"> &#160;&#160;&#160;&#160;2,0 &#160;</text>
</g>
<!-- 26&#45;&gt;3 -->
<g id="edge14" class="edge">
<title>26&#45;&gt;3</title>
<path fill="none" stroke="#429e6a" d="M250.77,-166.43C285.86,-137.07 341.81,-90.26 375.51,-62.07"/>
<polygon fill="#429e6a" stroke="#429e6a" points="377.39,-65.05 382.81,-55.95 372.9,-59.68 377.39,-65.05"/>
<text text-anchor="start" x="290.36" y="-103.11" font-family="Times New Roman,serif" font-size="8.00" fill="darkmagenta"> &#160;&#160;&#160;&#160;2,0 &#160;</text>
</g>
<!-- 14&#45;&gt;3 -->
<g id="edge17" class="edge">
<title>14&#45;&gt;3</title>
<path fill="none" stroke="red" d="M386.81,-293.54C390.41,-239.96 398.36,-121.66 402.04,-66.99"/>
<polygon fill="red" stroke="red" points="405.51,-67.45 402.69,-57.24 398.53,-66.98 405.51,-67.45"/>
<text text-anchor="start" x="374.55" y="-156.51" font-family="Times New Roman,serif" font-size="8.00" fill="darkmagenta"> &#160;&#160;&#160;&#160;0,4 &#160;</text>
</g>
<!-- 17 -->
<g id="node15" class="node">
<title>17</title>
<ellipse fill="none" stroke="black" cx="550.97" cy="-194.04" rx="150.79" ry="27.93"/>
<text text-anchor="middle" x="550.97" y="-190.17" font-family="Times New Roman,serif" font-size="10.00">17. type_code = display_type_code(2)</text>
<text text-anchor="start" x="388.93" y="-212.47" font-family="Times New Roman,serif" font-size="10.00" fill="darkorange">1,0</text>
</g>
<!-- 16&#45;&gt;17 -->
<g id="edge18" class="edge">
<title>16&#45;&gt;17</title>
<path fill="none" stroke="#429e6a" d="M558.24,-367.66C556.98,-337.59 554.33,-274.74 552.6,-233.75"/>
<polygon fill="#429e6a" stroke="#429e6a" points="556.1,-233.66 552.18,-223.81 549.11,-233.95 556.1,-233.66"/>
<text text-anchor="middle" x="609.47" y="-324.8" font-family="Times New Roman,serif" font-size="8.00">&quot;type_code == 1 and i + j &gt; k&quot;</text>
<text text-anchor="middle" x="609.47" y="-314.3" font-family="Times New Roman,serif" font-size="8.00">c[14]</text>
<text text-anchor="start" x="555.18" y="-287.34" font-family="Times New Roman,serif" font-size="8.00" fill="darkmagenta"> &#160;&#160;&#160;&#160;1,0 &#160;</text>
</g>
<!-- 19 -->
<g id="node16" class="node">
<title>19</title>
<ellipse fill="none" stroke="black" cx="719.97" cy="-257.97" rx="127.91" ry="18"/>
<text text-anchor="middle" x="719.97" y="-254.1" font-family="Times New Roman,serif" font-size="10.00">19. if type_code == 2 and i + k &gt; j:</text>
<text text-anchor="start" x="580.81" y="-266.47" font-family="Times New Roman,serif" font-size="10.00" fill="darkorange">1,0</text>
</g>
<!-- 16&#45;&gt;19 -->
<g id="edge19" class="edge">
<title>16&#45;&gt;19</title>
<path fill="none" stroke="#429e6a" d="M630,-370.44C643.55,-365.46 656.93,-358.78 667.97,-349.83 688.13,-333.5 701.98,-307.12 710.28,-286.99"/>
<polygon fill="#429e6a" stroke="#429e6a" points="713.54,-288.26 713.89,-277.67 707.02,-285.73 713.54,-288.26"/>
<text text-anchor="middle" x="767.84" y="-319.55" font-family="Times New Roman,serif" font-size="8.00">(not (type_code == 1 and i + j &gt; k))</text>
<text text-anchor="start" x="657.28" y="-325.46" font-family="Times New Roman,serif" font-size="8.00" fill="darkmagenta"> &#160;&#160;&#160;&#160;1,0 &#160;</text>
</g>
<!-- 17&#45;&gt;3 -->
<g id="edge20" class="edge">
<title>17&#45;&gt;3</title>
<path fill="none" stroke="#429e6a" d="M525.36,-166.08C497.78,-137.03 454.26,-91.21 427.51,-63.04"/>
<polygon fill="#429e6a" stroke="#429e6a" points="430.25,-60.84 420.82,-56 425.17,-65.66 430.25,-60.84"/>
<text text-anchor="start" x="445.4" y="-102.71" font-family="Times New Roman,serif" font-size="8.00" fill="darkmagenta"> &#160;&#160;&#160;&#160;1,0 &#160;</text>
</g>
<!-- 20 -->
<g id="node17" class="node">
<title>20</title>
<ellipse fill="none" stroke="black" cx="693.97" cy="-120.18" rx="150.79" ry="27.93"/>
<text text-anchor="middle" x="693.97" y="-116.31" font-family="Times New Roman,serif" font-size="10.00">20. type_code = display_type_code(2)</text>
<text text-anchor="start" x="531.93" y="-138.61" font-family="Times New Roman,serif" font-size="10.00" fill="darkorange">1,0</text>
</g>
<!-- 19&#45;&gt;20 -->
<g id="edge21" class="edge">
<title>19&#45;&gt;20</title>
<path fill="none" stroke="#429e6a" d="M716.78,-239.54C713.41,-221.24 707.91,-191.63 702.97,-166.11 702.55,-163.94 702.11,-161.72 701.67,-159.47"/>
<polygon fill="#429e6a" stroke="#429e6a" points="705.12,-158.87 699.74,-149.74 698.26,-160.23 705.12,-158.87"/>
<text text-anchor="middle" x="765.47" y="-196.94" font-family="Times New Roman,serif" font-size="8.00">&quot;type_code == 2 and i + k &gt; j&quot;</text>
<text text-anchor="middle" x="765.47" y="-186.44" font-family="Times New Roman,serif" font-size="8.00">c[15]</text>
<text text-anchor="start" x="701.52" y="-175.78" font-family="Times New Roman,serif" font-size="8.00" fill="darkmagenta"> &#160;&#160;&#160;&#160;1,0 &#160;</text>
</g>
<!-- 20&#45;&gt;3 -->
<g id="edge22" class="edge">
<title>20&#45;&gt;3</title>
<path fill="none" stroke="#429e6a" d="M612.03,-96.31C564.26,-82.98 505.16,-66.49 462.17,-54.49"/>
<polygon fill="#429e6a" stroke="#429e6a" points="463.36,-51.19 452.78,-51.87 461.47,-57.93 463.36,-51.19"/>
<text text-anchor="start" x="504.64" y="-66.28" font-family="Times New Roman,serif" font-size="8.00" fill="darkmagenta"> &#160;&#160;&#160;&#160;1,0 &#160;</text>
</g>
</g>
</svg>
