<?xml version="1.0" encoding="UTF-8" standalone="no"?>
<!DOCTYPE svg PUBLIC "-//W3C//DTD SVG 1.1//EN"
 "http://www.w3.org/Graphics/SVG/1.1/DTD/svg11.dtd">
<!-- Generated by graphviz version 10.0.1 (20240210.2158)
 -->
<!-- Title: clustertrityp Pages: 1 -->
<svg width="1544pt" height="1515pt"
 viewBox="0.00 0.00 1543.83 1514.75" xmlns="http://www.w3.org/2000/svg" xmlns:xlink="http://www.w3.org/1999/xlink">
<g id="graph0" class="graph" transform="scale(1 1) rotate(0) translate(4 1510.75)">
<title>clustertrityp</title>
<polygon fill="white" stroke="none" points="-4,4 -4,-1510.75 1539.83,-1510.75 1539.83,4 -4,4"/>
<text text-anchor="middle" x="767.91" y="-5.75" font-family="Times New Roman,serif" font-size="10.00">trityp</text>
<!-- 1 -->
<g id="node1" class="node">
<title>1</title>
<ellipse fill="none" stroke="black" cx="249.04" cy="-1467.57" rx="123.21" ry="27.93"/>
<text text-anchor="middle" x="249.04" y="-1463.69" font-family="Times New Roman,serif" font-size="10.00">1. if i == 0 or j == 0 or k == 0:</text>
<text text-anchor="start" x="114.58" y="-1486" font-family="Times New Roman,serif" font-size="10.00" fill="darkorange">4,4</text>
</g>
<!-- 2 -->
<g id="node2" class="node">
<title>2</title>
<ellipse fill="none" stroke="black" cx="162.04" cy="-1258.57" rx="150.79" ry="27.93"/>
<text text-anchor="middle" x="162.04" y="-1254.7" font-family="Times New Roman,serif" font-size="10.00">2. type_code = display_type_code(3)</text>
<text text-anchor="start" x="0" y="-1277" font-family="Times New Roman,serif" font-size="10.00" fill="darkorange">0,0</text>
</g>
<!-- 1&#45;&gt;2 -->
<g id="edge1" class="edge">
<title>1&#45;&gt;2</title>
<path fill="none" stroke="black" d="M210.69,-1440.78C204.51,-1435.12 198.76,-1428.68 194.54,-1421.64 171.75,-1383.59 164.63,-1332.42 162.57,-1297.84"/>
<polygon fill="black" stroke="black" points="166.09,-1298.12 162.12,-1288.3 159.1,-1298.45 166.09,-1298.12"/>
<text text-anchor="middle" x="242.29" y="-1414.04" font-family="Times New Roman,serif" font-size="8.00">&quot;i == 0 or j == 0 or k == 0&quot;</text>
<text text-anchor="middle" x="242.29" y="-1403.54" font-family="Times New Roman,serif" font-size="8.00">c[5]</text>
<text text-anchor="start" x="145.87" y="-1359.57" font-family="Times New Roman,serif" font-size="8.00" fill="darkmagenta"> &#160;&#160;&#160;&#160;0,0 &#160;</text>
</g>
<!-- 4 -->
<g id="node3" class="node">
<title>4</title>
<ellipse fill="none" stroke="black" cx="366.04" cy="-1343.57" rx="69.12" ry="39.07"/>
<text text-anchor="middle" x="366.04" y="-1345.32" font-family="Times New Roman,serif" font-size="10.00">4. type_code = 0</text>
<text text-anchor="middle" x="366.04" y="-1334.07" font-family="Times New Roman,serif" font-size="10.00">if i == j:</text>
<text text-anchor="start" x="285.67" y="-1373.14" font-family="Times New Roman,serif" font-size="10.00" fill="darkorange">4,4</text>
</g>
<!-- 1&#45;&gt;4 -->
<g id="edge2" class="edge">
<title>1&#45;&gt;4</title>
<path fill="none" stroke="blue" d="M274.72,-1439.79C289.77,-1424.1 309.1,-1403.94 326.1,-1386.21"/>
<polygon fill="blue" stroke="blue" points="328.28,-1388.99 332.68,-1379.35 323.23,-1384.15 328.28,-1388.99"/>
<text text-anchor="middle" x="371.41" y="-1414.04" font-family="Times New Roman,serif" font-size="8.00">&quot;(not (i == 0 or j == 0 or k == 0))&quot;</text>
<text text-anchor="middle" x="371.41" y="-1403.54" font-family="Times New Roman,serif" font-size="8.00">c[6]</text>
<text text-anchor="start" x="290.75" y="-1390.89" font-family="Times New Roman,serif" font-size="8.00" fill="darkmagenta"> &#160;&#160;&#160;&#160;4,4 &#160;</text>
</g>
<!-- 3 -->
<g id="node4" class="node">
<title>3</title>
<ellipse fill="none" stroke="black" cx="829.04" cy="-37.25" rx="74.02" ry="18"/>
<text text-anchor="middle" x="829.04" y="-33.38" font-family="Times New Roman,serif" font-size="10.00">3. return type_code</text>
<text text-anchor="start" x="743.77" y="-45.75" font-family="Times New Roman,serif" font-size="10.00" fill="darkorange">4,4</text>
</g>
<!-- 2&#45;&gt;3 -->
<g id="edge3" class="edge">
<title>2&#45;&gt;3</title>
<path fill="none" stroke="black" d="M151.04,-1230.22C142.48,-1206.46 132.04,-1170.9 132.04,-1138.78 132.04,-1138.78 132.04,-1138.78 132.04,-119.18 132.04,-104.53 138.31,-99.5 151.04,-92.25 201.47,-63.52 574.34,-47.07 744.64,-40.98"/>
<polygon fill="black" stroke="black" points="744.66,-44.48 754.53,-40.63 744.42,-37.49 744.66,-44.48"/>
<text text-anchor="start" x="105.04" y="-1003.73" font-family="Times New Roman,serif" font-size="8.00" fill="darkmagenta"> &#160;&#160;&#160;&#160;0,0 &#160;</text>
</g>
<!-- 5 -->
<g id="node5" class="node">
<title>5</title>
<ellipse fill="none" stroke="black" cx="366.04" cy="-1184.71" rx="205.95" ry="27.93"/>
<text text-anchor="middle" x="366.04" y="-1180.83" font-family="Times New Roman,serif" font-size="10.00">5. type_code = is_side_one_equal_two(type_code)</text>
<text text-anchor="start" x="148.84" y="-1203.14" font-family="Times New Roman,serif" font-size="10.00" fill="darkorange">1,0</text>
</g>
<!-- 4&#45;&gt;5 -->
<g id="edge4" class="edge">
<title>4&#45;&gt;5</title>
<path fill="none" stroke="#429e6a" d="M366.04,-1304.2C366.04,-1279.88 366.04,-1248.53 366.04,-1224.19"/>
<polygon fill="#429e6a" stroke="#429e6a" points="369.54,-1224.38 366.04,-1214.38 362.54,-1224.38 369.54,-1224.38"/>
<text text-anchor="middle" x="378.79" y="-1261.47" font-family="Times New Roman,serif" font-size="8.00">&quot;i == j&quot;</text>
<text text-anchor="middle" x="378.79" y="-1250.97" font-family="Times New Roman,serif" font-size="8.00">c[7]</text>
<text text-anchor="start" x="339.04" y="-1250.74" font-family="Times New Roman,serif" font-size="8.00" fill="darkmagenta"> &#160;&#160;&#160;&#160;1,0 &#160;</text>
</g>
<!-- 6 -->
<g id="node6" class="node">
<title>6</title>
<ellipse fill="none" stroke="black" cx="607.04" cy="-1101.78" rx="42.58" ry="18"/>
<text text-anchor="middle" x="607.04" y="-1097.9" font-family="Times New Roman,serif" font-size="10.00">6. if i == k:</text>
<text text-anchor="start" x="553.21" y="-1110.28" font-family="Times New Roman,serif" font-size="10.00" fill="darkorange">4,4</text>
</g>
<!-- 4&#45;&gt;6 -->
<g id="edge5" class="edge">
<title>4&#45;&gt;6</title>
<path fill="none" stroke="blue" d="M424.33,-1322.19C473.52,-1301.97 542,-1266.21 581.04,-1212.64 598.34,-1188.9 604.3,-1155.3 606.26,-1131.53"/>
<polygon fill="blue" stroke="blue" points="609.75,-1131.8 606.87,-1121.6 602.76,-1131.37 609.75,-1131.8"/>
<text text-anchor="middle" x="613.29" y="-1182.36" font-family="Times New Roman,serif" font-size="8.00">(i != j)</text>
<text text-anchor="start" x="515.8" y="-1245.55" font-family="Times New Roman,serif" font-size="8.00" fill="darkmagenta"> &#160;&#160;&#160;&#160;3,4 &#160;</text>
</g>
<!-- 5&#45;&gt;6 -->
<g id="edge6" class="edge">
<title>5&#45;&gt;6</title>
<path fill="none" stroke="#429e6a" d="M441.63,-1158.32C481.87,-1144.81 529.89,-1128.69 563.8,-1117.3"/>
<polygon fill="#429e6a" stroke="#429e6a" points="564.49,-1120.76 572.85,-1114.26 562.26,-1114.12 564.49,-1120.76"/>
<text text-anchor="start" x="481.08" y="-1128.41" font-family="Times New Roman,serif" font-size="8.00" fill="darkmagenta"> &#160;&#160;&#160;&#160;1,0 &#160;</text>
</g>
<!-- 7 -->
<g id="node7" class="node">
<title>7</title>
<ellipse fill="none" stroke="black" cx="396.04" cy="-998.85" rx="210.19" ry="27.93"/>
<text text-anchor="middle" x="396.04" y="-994.97" font-family="Times New Roman,serif" font-size="10.00">7. type_code = is_side_one_equal_three(type_code)</text>
<text text-anchor="start" x="174.6" y="-1017.28" font-family="Times New Roman,serif" font-size="10.00" fill="darkorange">1,0</text>
</g>
<!-- 6&#45;&gt;7 -->
<g id="edge7" class="edge">
<title>6&#45;&gt;7</title>
<path fill="none" stroke="#429e6a" d="M579.46,-1087.58C549.55,-1073.28 500.78,-1049.95 461.04,-1030.94"/>
<polygon fill="#429e6a" stroke="#429e6a" points="462.78,-1027.9 452.25,-1026.74 459.76,-1034.21 462.78,-1027.9"/>
<text text-anchor="middle" x="545.91" y="-1058.18" font-family="Times New Roman,serif" font-size="8.00">&quot;i == k&quot;</text>
<text text-anchor="middle" x="545.91" y="-1047.68" font-family="Times New Roman,serif" font-size="8.00">c[8]</text>
<text text-anchor="start" x="488.06" y="-1049.18" font-family="Times New Roman,serif" font-size="8.00" fill="darkmagenta"> &#160;&#160;&#160;&#160;1,0 &#160;</text>
</g>
<!-- 8 -->
<g id="node8" class="node">
<title>8</title>
<ellipse fill="none" stroke="black" cx="639.04" cy="-915.92" rx="42.58" ry="18"/>
<text text-anchor="middle" x="639.04" y="-912.04" font-family="Times New Roman,serif" font-size="10.00">8. if j == k:</text>
<text text-anchor="start" x="585.21" y="-924.42" font-family="Times New Roman,serif" font-size="10.00" fill="darkorange">4,4</text>
</g>
<!-- 6&#45;&gt;8 -->
<g id="edge8" class="edge">
<title>6&#45;&gt;8</title>
<path fill="none" stroke="blue" d="M610.05,-1083.48C615.57,-1051.79 627.34,-984.14 634.06,-945.51"/>
<polygon fill="blue" stroke="blue" points="637.49,-946.25 635.75,-935.79 630.59,-945.05 637.49,-946.25"/>
<text text-anchor="middle" x="641.41" y="-996.5" font-family="Times New Roman,serif" font-size="8.00">(i != k)</text>
<text text-anchor="start" x="622.97" y="-1001.65" font-family="Times New Roman,serif" font-size="8.00" fill="darkmagenta"> &#160;&#160;&#160;&#160;3,4 &#160;</text>
</g>
<!-- 7&#45;&gt;8 -->
<g id="edge9" class="edge">
<title>7&#45;&gt;8</title>
<path fill="none" stroke="#429e6a" d="M472.26,-972.46C512.95,-958.91 561.55,-942.72 595.76,-931.33"/>
<polygon fill="#429e6a" stroke="#429e6a" points="596.52,-934.77 604.9,-928.29 594.3,-928.13 596.52,-934.77"/>
<text text-anchor="start" x="512.46" y="-942.48" font-family="Times New Roman,serif" font-size="8.00" fill="darkmagenta"> &#160;&#160;&#160;&#160;1,0 &#160;</text>
</g>
<!-- 9 -->
<g id="node9" class="node">
<title>9</title>
<ellipse fill="none" stroke="black" cx="393.04" cy="-802.49" rx="210.72" ry="27.93"/>
<text text-anchor="middle" x="393.04" y="-798.61" font-family="Times New Roman,serif" font-size="10.00">9. type_code = is_side_two_equal_three(type_code)</text>
<text text-anchor="start" x="171.07" y="-820.92" font-family="Times New Roman,serif" font-size="10.00" fill="darkorange">0,4</text>
</g>
<!-- 8&#45;&gt;9 -->
<g id="edge10" class="edge">
<title>8&#45;&gt;9</title>
<path fill="none" stroke="red" stroke-width="5" d="M610.82,-902.13C575.59,-886.18 514.05,-858.3 465.35,-836.24"/>
<polygon fill="red" stroke="red" stroke-width="5" points="467.29,-832.32 456.38,-832.18 463.68,-840.29 467.29,-832.32"/>
<text text-anchor="middle" x="578.54" y="-872.32" font-family="Times New Roman,serif" font-size="8.00">&quot;j == k&quot;</text>
<text text-anchor="middle" x="578.54" y="-861.82" font-family="Times New Roman,serif" font-size="8.00">c[9]</text>
<text text-anchor="middle" x="578.54" y="-851.32" font-family="Times New Roman,serif" font-size="8.00"> &#160;Score: 1.0</text>
<text text-anchor="start" x="503.6" y="-858.2" font-family="Times New Roman,serif" font-size="8.00" fill="darkmagenta"> &#160;&#160;&#160;&#160;0,4 &#160;</text>
</g>
<!-- 10 -->
<g id="node10" class="node">
<title>10</title>
<ellipse fill="none" stroke="black" cx="635.04" cy="-719.56" rx="80.01" ry="18"/>
<text text-anchor="middle" x="635.04" y="-715.68" font-family="Times New Roman,serif" font-size="10.00">10. if type_code == 0:</text>
<text text-anchor="start" x="543.78" y="-728.06" font-family="Times New Roman,serif" font-size="10.00" fill="darkorange">4,4</text>
</g>
<!-- 8&#45;&gt;10 -->
<g id="edge11" class="edge">
<title>8&#45;&gt;10</title>
<path fill="none" stroke="#429e6a" d="M638.68,-897.67C638,-864.26 636.48,-790.39 635.63,-749.39"/>
<polygon fill="#429e6a" stroke="#429e6a" points="639.14,-749.48 635.43,-739.56 632.14,-749.63 639.14,-749.48"/>
<text text-anchor="middle" x="649.41" y="-800.14" font-family="Times New Roman,serif" font-size="8.00">(j != k)</text>
<text text-anchor="start" x="610.04" y="-810.3" font-family="Times New Roman,serif" font-size="8.00" fill="darkmagenta"> &#160;&#160;&#160;&#160;4,0 &#160;</text>
</g>
<!-- 9&#45;&gt;10 -->
<g id="edge12" class="edge">
<title>9&#45;&gt;10</title>
<path fill="none" stroke="red" d="M469.28,-775.99C505.5,-763.88 547.95,-749.68 580.83,-738.69"/>
<polygon fill="red" stroke="red" points="581.78,-742.06 590.15,-735.57 579.56,-735.42 581.78,-742.06"/>
<text text-anchor="start" x="503.36" y="-747.96" font-family="Times New Roman,serif" font-size="8.00" fill="darkmagenta"> &#160;&#160;&#160;&#160;0,4 &#160;</text>
</g>
<!-- 11 -->
<g id="node11" class="node">
<title>11</title>
<ellipse fill="none" stroke="black" cx="622.04" cy="-267.9" rx="160.34" ry="27.93"/>
<text text-anchor="middle" x="622.04" y="-264.03" font-family="Times New Roman,serif" font-size="10.00">11. if i + j &lt;= k or j + k &lt;= i or i + k &lt;= j:</text>
<text text-anchor="start" x="450.45" y="-286.33" font-family="Times New Roman,serif" font-size="10.00" fill="darkorange">2,0</text>
</g>
<!-- 10&#45;&gt;11 -->
<g id="edge13" class="edge">
<title>10&#45;&gt;11</title>
<path fill="none" stroke="#429e6a" d="M634.36,-701.29C633.78,-684.99 633.04,-659.86 633.04,-638.06 633.04,-638.06 633.04,-638.06 633.04,-404.69 633.04,-371.83 629.8,-334.64 626.84,-307.5"/>
<polygon fill="#429e6a" stroke="#429e6a" points="630.33,-307.21 625.72,-297.66 623.37,-307.99 630.33,-307.21"/>
<text text-anchor="middle" x="663.79" y="-536.46" font-family="Times New Roman,serif" font-size="8.00">&quot;type_code == 0&quot;</text>
<text text-anchor="middle" x="663.79" y="-525.96" font-family="Times New Roman,serif" font-size="8.00">c[10]</text>
<text text-anchor="start" x="606.04" y="-397.09" font-family="Times New Roman,serif" font-size="8.00" fill="darkmagenta"> &#160;&#160;&#160;&#160;2,0 &#160;</text>
</g>
<!-- 13 -->
<g id="node12" class="node">
<title>13</title>
<ellipse fill="none" stroke="black" cx="806.04" cy="-637.06" rx="74.52" ry="18"/>
<text text-anchor="middle" x="806.04" y="-633.18" font-family="Times New Roman,serif" font-size="10.00">13. if type_code &gt; 3:</text>
<text text-anchor="start" x="720.27" y="-645.56" font-family="Times New Roman,serif" font-size="10.00" fill="darkorange">2,4</text>
</g>
<!-- 10&#45;&gt;13 -->
<g id="edge14" class="edge">
<title>10&#45;&gt;13</title>
<path fill="none" stroke="blue" d="M668.42,-702.84C695.34,-690.17 733.41,-672.25 762.69,-658.46"/>
<polygon fill="blue" stroke="blue" points="764.11,-661.66 771.67,-654.24 761.13,-655.33 764.11,-661.66"/>
<text text-anchor="middle" x="759.29" y="-675.96" font-family="Times New Roman,serif" font-size="8.00">(type_code != 0)</text>
<text text-anchor="start" x="693.49" y="-670.73" font-family="Times New Roman,serif" font-size="8.00" fill="darkmagenta"> &#160;&#160;&#160;&#160;2,4 &#160;</text>
</g>
<!-- 26 -->
<g id="node13" class="node">
<title>26</title>
<ellipse fill="none" stroke="black" cx="311.04" cy="-120.18" rx="150.79" ry="27.93"/>
<text text-anchor="middle" x="311.04" y="-116.31" font-family="Times New Roman,serif" font-size="10.00">26. type_code = display_type_code(4)</text>
<text text-anchor="start" x="149" y="-138.61" font-family="Times New Roman,serif" font-size="10.00" fill="darkorange">2,0</text>
</g>
<!-- 11&#45;&gt;26 -->
<g id="edge15" class="edge">
<title>11&#45;&gt;26</title>
<path fill="none" stroke="#429e6a" d="M546.77,-242.82C529.24,-236.57 510.81,-229.47 494.04,-221.97 448.64,-201.67 399.38,-174.2 363.41,-153.07"/>
<polygon fill="#429e6a" stroke="#429e6a" points="365.33,-150.14 354.94,-148.06 361.77,-156.16 365.33,-150.14"/>
<text text-anchor="middle" x="557.04" y="-196.94" font-family="Times New Roman,serif" font-size="8.00">&quot;i + j &lt;= k or j + k &lt;= i or i + k &lt;= j&quot;</text>
<text text-anchor="middle" x="557.04" y="-186.44" font-family="Times New Roman,serif" font-size="8.00">c[11]</text>
<text text-anchor="start" x="421.17" y="-192.27" font-family="Times New Roman,serif" font-size="8.00" fill="darkmagenta"> &#160;&#160;&#160;&#160;2,0 &#160;</text>
</g>
<!-- 28 -->
<g id="node14" class="node">
<title>28</title>
<ellipse fill="none" stroke="black" cx="631.04" cy="-120.18" rx="150.79" ry="27.93"/>
<text text-anchor="middle" x="631.04" y="-116.31" font-family="Times New Roman,serif" font-size="10.00">28. type_code = display_type_code(1)</text>
<text text-anchor="start" x="469" y="-138.61" font-family="Times New Roman,serif" font-size="10.00" fill="darkorange">0,0</text>
</g>
<!-- 11&#45;&gt;28 -->
<g id="edge16" class="edge">
<title>11&#45;&gt;28</title>
<path fill="none" stroke="black" d="M623.73,-239.49C625.12,-217 627.1,-184.89 628.65,-159.8"/>
<polygon fill="black" stroke="black" points="632.14,-160.17 629.26,-149.98 625.15,-159.74 632.14,-160.17"/>
<text text-anchor="middle" x="704.16" y="-196.94" font-family="Times New Roman,serif" font-size="8.00">&quot;(not (i + j &lt;= k or j + k &lt;= i or i + k &lt;= j))&quot;</text>
<text text-anchor="middle" x="704.16" y="-186.44" font-family="Times New Roman,serif" font-size="8.00">c[12]</text>
<text text-anchor="start" x="599.54" y="-175.95" font-family="Times New Roman,serif" font-size="8.00" fill="darkmagenta"> &#160;&#160;&#160;&#160;0,0 &#160;</text>
</g>
<!-- 14 -->
<g id="node15" class="node">
<title>14</title>
<ellipse fill="none" stroke="black" cx="806.04" cy="-469.63" rx="150.79" ry="27.93"/>
<text text-anchor="middle" x="806.04" y="-465.75" font-family="Times New Roman,serif" font-size="10.00">14. type_code = display_type_code(3)</text>
<text text-anchor="start" x="644" y="-488.06" font-family="Times New Roman,serif" font-size="10.00" fill="darkorange">0,4</text>
</g>
<!-- 13&#45;&gt;14 -->
<g id="edge19" class="edge">
<title>13&#45;&gt;14</title>
<path fill="none" stroke="red" stroke-width="5" d="M806.04,-618.66C806.04,-594.04 806.04,-548.21 806.04,-514.03"/>
<polygon fill="red" stroke="red" stroke-width="5" points="810.41,-514.11 806.04,-504.11 801.66,-514.11 810.41,-514.11"/>
<text text-anchor="middle" x="834.54" y="-593.46" font-family="Times New Roman,serif" font-size="8.00">&quot;type_code &gt; 3&quot;</text>
<text text-anchor="middle" x="834.54" y="-582.96" font-family="Times New Roman,serif" font-size="8.00">c[13]</text>
<text text-anchor="middle" x="834.54" y="-572.46" font-family="Times New Roman,serif" font-size="8.00"> &#160;Score: 1.0</text>
<text text-anchor="start" x="779.04" y="-550.75" font-family="Times New Roman,serif" font-size="8.00" fill="darkmagenta"> &#160;&#160;&#160;&#160;0,4 &#160;</text>
</g>
<!-- 16 -->
<g id="node16" class="node">
<title>16</title>
<ellipse fill="none" stroke="black" cx="980.04" cy="-533.56" rx="127.91" ry="18"/>
<text text-anchor="middle" x="980.04" y="-529.68" font-family="Times New Roman,serif" font-size="10.00">16. if type_code == 1 and i + j &gt; k:</text>
<text text-anchor="start" x="840.88" y="-542.06" font-family="Times New Roman,serif" font-size="10.00" fill="darkorange">2,0</text>
</g>
<!-- 13&#45;&gt;16 -->
<g id="edge20" class="edge">
<title>13&#45;&gt;16</title>
<path fill="none" stroke="#429e6a" d="M834.01,-620.09C844.4,-614.14 856.27,-607.31 867.04,-601.06 892.02,-586.54 920,-570.08 941.87,-557.16"/>
<polygon fill="#429e6a" stroke="#429e6a" points="943.63,-560.18 950.46,-552.08 940.07,-554.16 943.63,-560.18"/>
<text text-anchor="middle" x="949.04" y="-582.96" font-family="Times New Roman,serif" font-size="8.00">(type_code &lt;= 3)</text>
<text text-anchor="start" x="865.88" y="-578.38" font-family="Times New Roman,serif" font-size="8.00" fill="darkmagenta"> &#160;&#160;&#160;&#160;2,0 &#160;</text>
</g>
<!-- 26&#45;&gt;3 -->
<g id="edge17" class="edge">
<title>26&#45;&gt;3</title>
<path fill="none" stroke="#429e6a" d="M420.31,-100.53C437.28,-97.71 454.63,-94.87 471.04,-92.25 569.43,-76.55 683.24,-59.59 755.65,-48.95"/>
<polygon fill="#429e6a" stroke="#429e6a" points="756.02,-52.43 765.4,-47.51 755,-45.5 756.02,-52.43"/>
<text text-anchor="start" x="566.59" y="-65.58" font-family="Times New Roman,serif" font-size="8.00" fill="darkmagenta"> &#160;&#160;&#160;&#160;2,0 &#160;</text>
</g>
<!-- 28&#45;&gt;3 -->
<g id="edge18" class="edge">
<title>28&#45;&gt;3</title>
<path fill="none" stroke="black" d="M692.06,-94.24C721.05,-82.39 755.16,-68.45 782.09,-57.44"/>
<polygon fill="black" stroke="black" points="783.08,-60.82 791.01,-53.8 780.43,-54.34 783.08,-60.82"/>
<text text-anchor="start" x="715.21" y="-66.14" font-family="Times New Roman,serif" font-size="8.00" fill="darkmagenta"> &#160;&#160;&#160;&#160;0,0 &#160;</text>
</g>
<!-- 14&#45;&gt;3 -->
<g id="edge21" class="edge">
<title>14&#45;&gt;3</title>
<path fill="none" stroke="red" d="M807.39,-441.63C808.55,-416.15 810.04,-376.87 810.04,-342.76 810.04,-342.76 810.04,-342.76 810.04,-119.18 810.04,-101.35 814.46,-81.89 819.04,-66.52"/>
<polygon fill="red" stroke="red" points="822.34,-67.69 822.04,-57.1 815.67,-65.56 822.34,-67.69"/>
<text text-anchor="start" x="783.04" y="-307.22" font-family="Times New Roman,serif" font-size="8.00" fill="darkmagenta"> &#160;&#160;&#160;&#160;0,4 &#160;</text>
</g>
<!-- 17 -->
<g id="node17" class="node">
<title>17</title>
<ellipse fill="none" stroke="black" cx="976.04" cy="-341.76" rx="150.79" ry="27.93"/>
<text text-anchor="middle" x="976.04" y="-337.89" font-family="Times New Roman,serif" font-size="10.00">17. type_code = display_type_code(2)</text>
<text text-anchor="start" x="814" y="-360.19" font-family="Times New Roman,serif" font-size="10.00" fill="darkorange">1,0</text>
</g>
<!-- 16&#45;&gt;17 -->
<g id="edge22" class="edge">
<title>16&#45;&gt;17</title>
<path fill="none" stroke="#429e6a" d="M979.68,-515.38C979.04,-485.31 977.72,-422.46 976.86,-381.47"/>
<polygon fill="#429e6a" stroke="#429e6a" points="980.36,-381.46 976.65,-371.54 973.36,-381.61 980.36,-381.46"/>
<text text-anchor="middle" x="1031.54" y="-472.53" font-family="Times New Roman,serif" font-size="8.00">&quot;type_code == 1 and i + j &gt; k&quot;</text>
<text text-anchor="middle" x="1031.54" y="-462.03" font-family="Times New Roman,serif" font-size="8.00">c[14]</text>
<text text-anchor="start" x="978.15" y="-435.07" font-family="Times New Roman,serif" font-size="8.00" fill="darkmagenta"> &#160;&#160;&#160;&#160;1,0 &#160;</text>
</g>
<!-- 19 -->
<g id="node18" class="node">
<title>19</title>
<ellipse fill="none" stroke="black" cx="1150.04" cy="-405.69" rx="127.91" ry="18"/>
<text text-anchor="middle" x="1150.04" y="-401.82" font-family="Times New Roman,serif" font-size="10.00">19. if type_code == 2 and i + k &gt; j:</text>
<text text-anchor="start" x="1010.88" y="-414.19" font-family="Times New Roman,serif" font-size="10.00" fill="darkorange">1,0</text>
</g>
<!-- 16&#45;&gt;19 -->
<g id="edge23" class="edge">
<title>16&#45;&gt;19</title>
<path fill="none" stroke="#429e6a" d="M1049.16,-518.05C1063.22,-513.06 1077.29,-506.4 1089.04,-497.56 1110.92,-481.09 1127.49,-454.37 1137.8,-434.16"/>
<polygon fill="#429e6a" stroke="#429e6a" points="1140.86,-435.88 1142.09,-425.35 1134.57,-432.81 1140.86,-435.88"/>
<text text-anchor="middle" x="1193.91" y="-467.28" font-family="Times New Roman,serif" font-size="8.00">(not (type_code == 1 and i + j &gt; k))</text>
<text text-anchor="start" x="1079.88" y="-473.27" font-family="Times New Roman,serif" font-size="8.00" fill="darkmagenta"> &#160;&#160;&#160;&#160;1,0 &#160;</text>
</g>
<!-- 17&#45;&gt;3 -->
<g id="edge24" class="edge">
<title>17&#45;&gt;3</title>
<path fill="none" stroke="#429e6a" d="M941.57,-314.09C915.79,-292.19 881.86,-258.86 863.04,-221.97 837.24,-171.39 830.82,-104.08 829.35,-66.57"/>
<polygon fill="#429e6a" stroke="#429e6a" points="832.86,-66.9 829.07,-57.01 825.86,-67.11 832.86,-66.9"/>
<text text-anchor="start" x="825.07" y="-188.97" font-family="Times New Roman,serif" font-size="8.00" fill="darkmagenta"> &#160;&#160;&#160;&#160;1,0 &#160;</text>
</g>
<!-- 20 -->
<g id="node19" class="node">
<title>20</title>
<ellipse fill="none" stroke="black" cx="1023.04" cy="-194.04" rx="150.79" ry="27.93"/>
<text text-anchor="middle" x="1023.04" y="-190.17" font-family="Times New Roman,serif" font-size="10.00">20. type_code = display_type_code(2)</text>
<text text-anchor="start" x="861" y="-212.47" font-family="Times New Roman,serif" font-size="10.00" fill="darkorange">1,0</text>
</g>
<!-- 19&#45;&gt;20 -->
<g id="edge25" class="edge">
<title>19&#45;&gt;20</title>
<path fill="none" stroke="#429e6a" d="M1148.37,-387.42C1145.98,-368.46 1140.42,-337.58 1128.04,-313.83 1111.38,-281.88 1084.29,-251.54 1061.81,-229.52"/>
<polygon fill="#429e6a" stroke="#429e6a" points="1064.49,-227.24 1054.85,-222.85 1059.64,-232.3 1064.49,-227.24"/>
<text text-anchor="middle" x="1197.54" y="-344.66" font-family="Times New Roman,serif" font-size="8.00">&quot;type_code == 2 and i + k &gt; j&quot;</text>
<text text-anchor="middle" x="1197.54" y="-334.16" font-family="Times New Roman,serif" font-size="8.00">c[15]</text>
<text text-anchor="start" x="1089.48" y="-286.66" font-family="Times New Roman,serif" font-size="8.00" fill="darkmagenta"> &#160;&#160;&#160;&#160;1,0 &#160;</text>
</g>
<!-- 22 -->
<g id="node20" class="node">
<title>22</title>
<ellipse fill="none" stroke="black" cx="1306.04" cy="-267.9" rx="127.91" ry="18"/>
<text text-anchor="middle" x="1306.04" y="-264.03" font-family="Times New Roman,serif" font-size="10.00">22. if type_code == 3 and j + k &gt; i:</text>
<text text-anchor="start" x="1166.88" y="-276.4" font-family="Times New Roman,serif" font-size="10.00" fill="darkorange">0,0</text>
</g>
<!-- 19&#45;&gt;22 -->
<g id="edge26" class="edge">
<title>19&#45;&gt;22</title>
<path fill="none" stroke="black" d="M1222.8,-390.58C1235.91,-385.58 1248.68,-378.83 1259.04,-369.69 1280.62,-350.67 1293,-319.64 1299.58,-297.03"/>
<polygon fill="black" stroke="black" points="1302.92,-298.11 1302.12,-287.54 1296.16,-296.3 1302.92,-298.11"/>
<text text-anchor="middle" x="1354.91" y="-339.41" font-family="Times New Roman,serif" font-size="8.00">(not (type_code == 2 and i + k &gt; j))</text>
<text text-anchor="start" x="1250.43" y="-340.21" font-family="Times New Roman,serif" font-size="8.00" fill="darkmagenta"> &#160;&#160;&#160;&#160;0,0 &#160;</text>
</g>
<!-- 20&#45;&gt;3 -->
<g id="edge27" class="edge">
<title>20&#45;&gt;3</title>
<path fill="none" stroke="#429e6a" d="M940.87,-170.22C928.02,-164.35 915.54,-157.08 905.04,-148.11 875.86,-123.2 884.91,-104.06 862.04,-73.25 859.55,-69.9 856.78,-66.53 853.93,-63.27"/>
<polygon fill="#429e6a" stroke="#429e6a" points="856.7,-61.11 847.36,-56.1 851.54,-65.84 856.7,-61.11"/>
<text text-anchor="start" x="855.61" y="-109.12" font-family="Times New Roman,serif" font-size="8.00" fill="darkmagenta"> &#160;&#160;&#160;&#160;1,0 &#160;</text>
</g>
<!-- 23 -->
<g id="node21" class="node">
<title>23</title>
<ellipse fill="none" stroke="black" cx="1065.04" cy="-120.18" rx="150.79" ry="27.93"/>
<text text-anchor="middle" x="1065.04" y="-116.31" font-family="Times New Roman,serif" font-size="10.00">23. type_code = display_type_code(2)</text>
<text text-anchor="start" x="903" y="-138.61" font-family="Times New Roman,serif" font-size="10.00" fill="darkorange">0,0</text>
</g>
<!-- 22&#45;&gt;23 -->
<g id="edge28" class="edge">
<title>22&#45;&gt;23</title>
<path fill="none" stroke="black" d="M1266.39,-250.48C1251.49,-243.13 1235.02,-233.5 1222.04,-221.97 1199.4,-201.87 1206.91,-184.74 1183.04,-166.11 1174.7,-159.61 1165.32,-153.96 1155.57,-149.07"/>
<polygon fill="black" stroke="black" points="1157.23,-145.98 1146.69,-144.9 1154.25,-152.32 1157.23,-145.98"/>
<text text-anchor="middle" x="1274.54" y="-196.94" font-family="Times New Roman,serif" font-size="8.00">&quot;type_code == 3 and j + k &gt; i&quot;</text>
<text text-anchor="middle" x="1274.54" y="-186.44" font-family="Times New Roman,serif" font-size="8.00">c[16]</text>
<text text-anchor="start" x="1177.87" y="-190.18" font-family="Times New Roman,serif" font-size="8.00" fill="darkmagenta"> &#160;&#160;&#160;&#160;0,0 &#160;</text>
</g>
<!-- 25 -->
<g id="node22" class="node">
<title>25</title>
<ellipse fill="none" stroke="black" cx="1385.04" cy="-120.18" rx="150.79" ry="27.93"/>
<text text-anchor="middle" x="1385.04" y="-116.31" font-family="Times New Roman,serif" font-size="10.00">25. type_code = display_type_code(4)</text>
<text text-anchor="start" x="1223" y="-138.61" font-family="Times New Roman,serif" font-size="10.00" fill="darkorange">0,0</text>
</g>
<!-- 22&#45;&gt;25 -->
<g id="edge29" class="edge">
<title>22&#45;&gt;25</title>
<path fill="none" stroke="black" d="M1315.41,-249.61C1327.55,-227.22 1349.03,-187.6 1364.94,-158.26"/>
<polygon fill="black" stroke="black" points="1367.89,-160.15 1369.58,-149.69 1361.74,-156.81 1367.89,-160.15"/>
<text text-anchor="middle" x="1424.66" y="-196.94" font-family="Times New Roman,serif" font-size="8.00">&quot;(not (type_code == 3 and j + k &gt; i))&quot;</text>
<text text-anchor="middle" x="1424.66" y="-186.44" font-family="Times New Roman,serif" font-size="8.00">c[17]</text>
<text text-anchor="start" x="1329.24" y="-181.11" font-family="Times New Roman,serif" font-size="8.00" fill="darkmagenta"> &#160;&#160;&#160;&#160;0,0 &#160;</text>
</g>
<!-- 23&#45;&gt;3 -->
<g id="edge30" class="edge">
<title>23&#45;&gt;3</title>
<path fill="none" stroke="black" d="M994.87,-95.12C958.34,-82.59 914.44,-67.53 880.98,-56.06"/>
<polygon fill="black" stroke="black" points="882.54,-52.9 871.94,-52.96 880.27,-59.52 882.54,-52.9"/>
<text text-anchor="start" x="905.62" y="-66.17" font-family="Times New Roman,serif" font-size="8.00" fill="darkmagenta"> &#160;&#160;&#160;&#160;0,0 &#160;</text>
</g>
<!-- 25&#45;&gt;3 -->
<g id="edge31" class="edge">
<title>25&#45;&gt;3</title>
<path fill="none" stroke="black" d="M1276.67,-100.47C1259.41,-97.63 1241.75,-94.79 1225.04,-92.25 1113.89,-75.32 984.8,-58.19 905.01,-47.89"/>
<polygon fill="black" stroke="black" points="905.47,-44.42 895.1,-46.62 904.58,-51.37 905.47,-44.42"/>
<text text-anchor="start" x="1058.54" y="-64.44" font-family="Times New Roman,serif" font-size="8.00" fill="darkmagenta"> &#160;&#160;&#160;&#160;0,0 &#160;</text>
</g>
</g>
</svg>
