<?xml version="1.0" encoding="UTF-8" standalone="no"?>
<!DOCTYPE svg PUBLIC "-//W3C//DTD SVG 1.1//EN"
 "http://www.w3.org/Graphics/SVG/1.1/DTD/svg11.dtd">
<!-- Generated by graphviz version 10.0.1 (20240210.2158)
 -->
<!-- Title: clusternext_palindrome Pages: 1 -->
<svg width="816pt" height="959pt"
 viewBox="0.00 0.00 815.71 959.31" xmlns="http://www.w3.org/2000/svg" xmlns:xlink="http://www.w3.org/1999/xlink">
<g id="graph0" class="graph" transform="scale(1 1) rotate(0) translate(4 955.31)">
<title>clusternext_palindrome</title>
<polygon fill="white" stroke="none" points="-4,4 -4,-955.31 811.71,-955.31 811.71,4 -4,4"/>
<text text-anchor="middle" x="403.86" y="-5.75" font-family="Times New Roman,serif" font-size="10.00">next_palindrome</text>
<!-- 1 -->
<g id="node1" class="node">
<title>1</title>
<ellipse fill="none" stroke="black" cx="389.22" cy="-889.85" rx="78.13" ry="50.21"/>
<text text-anchor="middle" x="389.22" y="-897.23" font-family="Times New Roman,serif" font-size="10.00">1. n = len(digit_list)</text>
<text text-anchor="middle" x="389.22" y="-885.98" font-family="Times New Roman,serif" font-size="10.00">mid = n // 2</text>
<text text-anchor="middle" x="389.22" y="-874.73" font-family="Times New Roman,serif" font-size="10.00">if n % 2 == 0:</text>
<text text-anchor="start" x="290.84" y="-930.56" font-family="Times New Roman,serif" font-size="10.00" fill="darkorange">15,15</text>
</g>
<!-- 2 -->
<g id="node2" class="node">
<title>2</title>
<ellipse fill="none" stroke="black" cx="187.22" cy="-710.81" rx="171.47" ry="50.21"/>
<text text-anchor="middle" x="187.22" y="-718.18" font-family="Times New Roman,serif" font-size="10.00">2. left_side = digit_list[:mid]</text>
<text text-anchor="middle" x="187.22" y="-706.93" font-family="Times New Roman,serif" font-size="10.00">left_side_reverse = left_side[::&#45;1]</text>
<text text-anchor="middle" x="187.22" y="-695.68" font-family="Times New Roman,serif" font-size="10.00">candidate = left_side + left_side_reverse</text>
<text text-anchor="start" x="0" y="-751.51" font-family="Times New Roman,serif" font-size="10.00" fill="darkorange">15,1</text>
</g>
<!-- 1&#45;&gt;2 -->
<g id="edge1" class="edge">
<title>1&#45;&gt;2</title>
<path fill="none" stroke="blue" d="M343.38,-848.68C315.51,-824.25 279.54,-792.73 249.16,-766.09"/>
<polygon fill="blue" stroke="blue" points="251.71,-763.68 241.88,-759.72 247.1,-768.94 251.71,-763.68"/>
<text text-anchor="middle" x="336.1" y="-808.8" font-family="Times New Roman,serif" font-size="8.00">&quot;n % 2 == 0&quot;</text>
<text text-anchor="middle" x="336.1" y="-798.3" font-family="Times New Roman,serif" font-size="8.00">c[1]</text>
<text text-anchor="start" x="260.75" y="-796.26" font-family="Times New Roman,serif" font-size="8.00" fill="darkmagenta"> &#160;&#160;&#160;&#160;15,1 &#160;</text>
</g>
<!-- 4 -->
<g id="node3" class="node">
<title>4</title>
<ellipse fill="none" stroke="black" cx="592.22" cy="-710.81" rx="215.49" ry="61.34"/>
<text text-anchor="middle" x="592.22" y="-723.81" font-family="Times New Roman,serif" font-size="10.00">4. left_side = digit_list[:mid]</text>
<text text-anchor="middle" x="592.22" y="-712.56" font-family="Times New Roman,serif" font-size="10.00">middle = digit_list[mid]</text>
<text text-anchor="middle" x="592.22" y="-701.31" font-family="Times New Roman,serif" font-size="10.00">left_side_reverse = left_side[::&#45;1]</text>
<text text-anchor="middle" x="592.22" y="-690.06" font-family="Times New Roman,serif" font-size="10.00">candidate = left_side + [middle] + left_side_reverse</text>
<text text-anchor="start" x="360.98" y="-762.65" font-family="Times New Roman,serif" font-size="10.00" fill="darkorange">0,14</text>
</g>
<!-- 1&#45;&gt;4 -->
<g id="edge2" class="edge">
<title>1&#45;&gt;4</title>
<path fill="none" stroke="red" stroke-width="5" d="M435.03,-848.9C458.36,-828.56 487.36,-803.26 514.08,-779.96"/>
<polygon fill="red" stroke="red" stroke-width="5" points="516.81,-783.38 521.47,-773.51 511.06,-776.79 516.81,-783.38"/>
<text text-anchor="middle" x="521.35" y="-814.05" font-family="Times New Roman,serif" font-size="8.00">&quot;(n % 2 != 0)&quot;</text>
<text text-anchor="middle" x="521.35" y="-803.55" font-family="Times New Roman,serif" font-size="8.00">c[2]</text>
<text text-anchor="middle" x="521.35" y="-793.05" font-family="Times New Roman,serif" font-size="8.00"> &#160;Score: 0.97</text>
<text text-anchor="start" x="449.1" y="-801.56" font-family="Times New Roman,serif" font-size="8.00" fill="darkmagenta"> &#160;&#160;&#160;&#160;0,14 &#160;</text>
</g>
<!-- 3 -->
<g id="node4" class="node">
<title>3</title>
<ellipse fill="none" stroke="black" cx="389.22" cy="-594.47" rx="97.47" ry="18"/>
<text text-anchor="middle" x="389.22" y="-590.59" font-family="Times New Roman,serif" font-size="10.00">3. if candidate &gt; digit_list:</text>
<text text-anchor="start" x="271.5" y="-602.97" font-family="Times New Roman,serif" font-size="10.00" fill="darkorange">15,15</text>
</g>
<!-- 2&#45;&gt;3 -->
<g id="edge3" class="edge">
<title>2&#45;&gt;3</title>
<path fill="none" stroke="blue" d="M265.03,-665.76C294.21,-649.25 326.11,-631.19 350.27,-617.51"/>
<polygon fill="blue" stroke="blue" points="351.83,-620.65 358.81,-612.68 348.38,-614.56 351.83,-620.65"/>
<text text-anchor="start" x="281.11" y="-631.23" font-family="Times New Roman,serif" font-size="8.00" fill="darkmagenta"> &#160;&#160;&#160;&#160;15,1 &#160;</text>
</g>
<!-- 4&#45;&gt;3 -->
<g id="edge14" class="edge">
<title>4&#45;&gt;3</title>
<path fill="none" stroke="red" d="M495.77,-655.48C472.02,-642.1 447.89,-628.51 428.61,-617.65"/>
<polygon fill="red" stroke="red" points="430.47,-614.68 420.04,-612.82 427.03,-620.78 430.47,-614.68"/>
<text text-anchor="start" x="425.82" y="-626.22" font-family="Times New Roman,serif" font-size="8.00" fill="darkmagenta"> &#160;&#160;&#160;&#160;0,14 &#160;</text>
</g>
<!-- 5 -->
<g id="node5" class="node">
<title>5</title>
<ellipse fill="none" stroke="black" cx="338.22" cy="-481.04" rx="74.42" ry="27.93"/>
<text text-anchor="middle" x="338.22" y="-477.16" font-family="Times New Roman,serif" font-size="10.00">5. return candidate</text>
<text text-anchor="start" x="252.55" y="-499.47" font-family="Times New Roman,serif" font-size="10.00" fill="darkorange">2,3</text>
</g>
<!-- 3&#45;&gt;5 -->
<g id="edge4" class="edge">
<title>3&#45;&gt;5</title>
<path fill="none" stroke="blue" stroke-width="2.57" d="M381.25,-576.06C374.56,-561.44 364.75,-539.99 356.18,-521.27"/>
<polygon fill="blue" stroke="blue" stroke-width="2.57" points="359.46,-520.04 352.12,-512.4 353.1,-522.95 359.46,-520.04"/>
<text text-anchor="middle" x="412.6" y="-550.87" font-family="Times New Roman,serif" font-size="8.00">&quot;candidate &gt; digit_list&quot;</text>
<text text-anchor="middle" x="412.6" y="-540.37" font-family="Times New Roman,serif" font-size="8.00">c[3]</text>
<text text-anchor="middle" x="412.6" y="-529.87" font-family="Times New Roman,serif" font-size="8.00"> &#160;Score: 0.38</text>
<text text-anchor="start" x="338.9" y="-534.92" font-family="Times New Roman,serif" font-size="8.00" fill="darkmagenta"> &#160;&#160;&#160;&#160;2,3 &#160;</text>
</g>
<!-- 6 -->
<g id="node6" class="node">
<title>6</title>
<ellipse fill="none" stroke="black" cx="547.22" cy="-481.04" rx="116.93" ry="18"/>
<text text-anchor="middle" x="547.22" y="-477.16" font-family="Times New Roman,serif" font-size="10.00">6. for i in range(mid &#45; 1, &#45;1, &#45;1):</text>
<text text-anchor="start" x="430.29" y="-489.54" font-family="Times New Roman,serif" font-size="10.00" fill="darkorange">13,12</text>
</g>
<!-- 3&#45;&gt;6 -->
<g id="edge5" class="edge">
<title>3&#45;&gt;6</title>
<path fill="none" stroke="blue" d="M423.79,-577.23C434.46,-571.73 446.08,-565.26 456.22,-558.47 479.5,-542.88 503.68,-522.33 521.27,-506.46"/>
<polygon fill="blue" stroke="blue" points="523.19,-509.44 528.22,-500.11 518.47,-504.27 523.19,-509.44"/>
<text text-anchor="middle" x="536.1" y="-540.37" font-family="Times New Roman,serif" font-size="8.00">(candidate &lt;= digit_list)</text>
<text text-anchor="start" x="452.43" y="-523.55" font-family="Times New Roman,serif" font-size="8.00" fill="darkmagenta"> &#160;&#160;&#160;&#160;13,12 &#160;</text>
</g>
<!-- 8 -->
<g id="node7" class="node">
<title>8</title>
<ellipse fill="none" stroke="black" cx="330.22" cy="-368.18" rx="79.2" ry="27.93"/>
<text text-anchor="middle" x="330.22" y="-364.3" font-family="Times New Roman,serif" font-size="10.00">8. if digit_list[i] &lt; 9:</text>
<text text-anchor="start" x="230.78" y="-386.61" font-family="Times New Roman,serif" font-size="10.00" fill="darkorange">13,12</text>
</g>
<!-- 6&#45;&gt;8 -->
<g id="edge6" class="edge">
<title>6&#45;&gt;8</title>
<path fill="none" stroke="blue" d="M514.73,-463.44C480.29,-445.84 425.31,-417.76 384.31,-396.81"/>
<polygon fill="blue" stroke="blue" points="386.06,-393.77 375.56,-392.34 382.87,-400.01 386.06,-393.77"/>
<text text-anchor="middle" x="498.72" y="-427.51" font-family="Times New Roman,serif" font-size="8.00">&quot;range(mid &#45; 1, &#45;1, &#45;1)&quot;</text>
<text text-anchor="middle" x="498.72" y="-417.01" font-family="Times New Roman,serif" font-size="8.00">c[4]</text>
<text text-anchor="start" x="408.35" y="-419.88" font-family="Times New Roman,serif" font-size="8.00" fill="darkmagenta"> &#160;&#160;&#160;&#160;13,12 &#160;</text>
</g>
<!-- 9 -->
<g id="node8" class="node">
<title>9</title>
<ellipse fill="none" stroke="black" cx="547.22" cy="-368.18" rx="119.43" ry="18"/>
<text text-anchor="middle" x="547.22" y="-364.3" font-family="Times New Roman,serif" font-size="10.00">9. return [1] + [0] * (n &#45; 1) + [1]</text>
<text text-anchor="start" x="416.55" y="-376.68" font-family="Times New Roman,serif" font-size="10.00" fill="darkorange">0,0</text>
</g>
<!-- 6&#45;&gt;9 -->
<g id="edge7" class="edge">
<title>6&#45;&gt;9</title>
<path fill="none" stroke="black" d="M547.22,-462.72C547.22,-445.31 547.22,-418.17 547.22,-397.61"/>
<polygon fill="black" stroke="black" points="550.72,-397.89 547.22,-387.89 543.72,-397.89 550.72,-397.89"/>
<text text-anchor="start" x="547.22" y="-416.69" font-family="Times New Roman,serif" font-size="8.00" fill="darkmagenta"> &#160;&#160;&#160;&#160;0,0 &#160;</text>
</g>
<!-- 10 -->
<g id="node9" class="node">
<title>10</title>
<ellipse fill="none" stroke="black" cx="330.22" cy="-244.18" rx="74.95" ry="39.07"/>
<text text-anchor="middle" x="330.22" y="-245.93" font-family="Times New Roman,serif" font-size="10.00">10. digit_list[i] += 1</text>
<text text-anchor="middle" x="330.22" y="-234.68" font-family="Times New Roman,serif" font-size="10.00">if i != n &#45; i &#45; 1:</text>
<text text-anchor="start" x="235.02" y="-273.75" font-family="Times New Roman,serif" font-size="10.00" fill="darkorange">13,12</text>
</g>
<!-- 8&#45;&gt;10 -->
<g id="edge8" class="edge">
<title>8&#45;&gt;10</title>
<path fill="none" stroke="blue" d="M330.22,-339.8C330.22,-326.59 330.22,-310.31 330.22,-295.01"/>
<polygon fill="blue" stroke="blue" points="333.72,-295.08 330.22,-285.08 326.72,-295.08 333.72,-295.08"/>
<text text-anchor="middle" x="359.85" y="-314.65" font-family="Times New Roman,serif" font-size="8.00">&quot;digit_list[i] &lt; 9&quot;</text>
<text text-anchor="middle" x="359.85" y="-304.15" font-family="Times New Roman,serif" font-size="8.00">c[5]</text>
<text text-anchor="start" x="294.22" y="-304.1" font-family="Times New Roman,serif" font-size="8.00" fill="darkmagenta"> &#160;&#160;&#160;&#160;13,12 &#160;</text>
</g>
<!-- 11 -->
<g id="node10" class="node">
<title>11</title>
<ellipse fill="none" stroke="black" cx="607.22" cy="-244.18" rx="95.64" ry="27.93"/>
<text text-anchor="middle" x="607.22" y="-245.93" font-family="Times New Roman,serif" font-size="10.00">11. digit_list[i] = 0</text>
<text text-anchor="middle" x="607.22" y="-234.68" font-family="Times New Roman,serif" font-size="10.00">digit_list[n &#45; i &#45; 1] = 0</text>
<text text-anchor="start" x="500.33" y="-262.61" font-family="Times New Roman,serif" font-size="10.00" fill="darkorange">0,0</text>
</g>
<!-- 8&#45;&gt;11 -->
<g id="edge9" class="edge">
<title>8&#45;&gt;11</title>
<path fill="none" stroke="black" d="M378.79,-345.79C425,-325.43 494.74,-294.72 545,-272.58"/>
<polygon fill="black" stroke="black" points="546.29,-275.84 554.03,-268.61 543.47,-269.43 546.29,-275.84"/>
<text text-anchor="middle" x="507.35" y="-309.4" font-family="Times New Roman,serif" font-size="8.00">(digit_list[i] &gt;= 9)</text>
<text text-anchor="start" x="439.95" y="-299.36" font-family="Times New Roman,serif" font-size="8.00" fill="darkmagenta"> &#160;&#160;&#160;&#160;0,0 &#160;</text>
</g>
<!-- 12 -->
<g id="node11" class="node">
<title>12</title>
<ellipse fill="none" stroke="black" cx="246.22" cy="-120.18" rx="132.76" ry="27.93"/>
<text text-anchor="middle" x="246.22" y="-116.31" font-family="Times New Roman,serif" font-size="10.00">12. digit_list[n &#45; i &#45; 1] = digit_list[i]</text>
<text text-anchor="start" x="93.21" y="-138.61" font-family="Times New Roman,serif" font-size="10.00" fill="darkorange">13,12</text>
</g>
<!-- 10&#45;&gt;12 -->
<g id="edge10" class="edge">
<title>10&#45;&gt;12</title>
<path fill="none" stroke="blue" d="M305.25,-206.91C294.51,-191.32 281.99,-173.14 271.25,-157.54"/>
<polygon fill="blue" stroke="blue" points="274.24,-155.7 265.69,-149.45 268.48,-159.67 274.24,-155.7"/>
<text text-anchor="middle" x="315.22" y="-179.51" font-family="Times New Roman,serif" font-size="8.00">&quot;i != n &#45; i &#45; 1&quot;</text>
<text text-anchor="middle" x="315.22" y="-169.01" font-family="Times New Roman,serif" font-size="8.00">c[6]</text>
<text text-anchor="start" x="248.99" y="-169.88" font-family="Times New Roman,serif" font-size="8.00" fill="darkmagenta"> &#160;&#160;&#160;&#160;13,12 &#160;</text>
</g>
<!-- 13 -->
<g id="node12" class="node">
<title>13</title>
<ellipse fill="none" stroke="black" cx="330.22" cy="-37.25" rx="279.1" ry="18"/>
<text text-anchor="middle" x="330.22" y="-33.38" font-family="Times New Roman,serif" font-size="10.00">13. return digit_list[:mid] + [digit_list[mid]] * (n % 2) + digit_list[mid &#45; 1::&#45;1]</text>
<text text-anchor="start" x="30.87" y="-45.75" font-family="Times New Roman,serif" font-size="10.00" fill="darkorange">13,12</text>
</g>
<!-- 10&#45;&gt;13 -->
<g id="edge11" class="edge">
<title>10&#45;&gt;13</title>
<path fill="none" stroke="black" d="M358.15,-207.91C369.89,-190.87 382.21,-169.52 388.22,-148.11 394.94,-124.21 398.13,-115.01 388.22,-92.25 383.31,-80.97 374.75,-70.98 365.7,-62.76"/>
<polygon fill="black" stroke="black" points="368.03,-60.15 358.12,-56.4 363.54,-65.51 368.03,-60.15"/>
<text text-anchor="middle" x="419.22" y="-117.83" font-family="Times New Roman,serif" font-size="8.00">(i == n &#45; i &#45; 1)</text>
<text text-anchor="start" x="390.29" y="-133.16" font-family="Times New Roman,serif" font-size="8.00" fill="darkmagenta"> &#160;&#160;&#160;&#160;0,0 &#160;</text>
</g>
<!-- 11&#45;&gt;6 -->
<g id="edge13" class="edge">
<title>11&#45;&gt;6</title>
<path fill="none" stroke="black" d="M633.94,-271.36C661.71,-301.9 698.17,-353.62 675.22,-396.11 659.6,-425.03 629.19,-445.6 601.93,-459.13"/>
<polygon fill="black" stroke="black" points="600.59,-455.89 593.04,-463.33 603.58,-462.22 600.59,-455.89"/>
<text text-anchor="start" x="640.8" y="-400.22" font-family="Times New Roman,serif" font-size="8.00" fill="darkmagenta"> &#160;&#160;&#160;&#160;0,0 &#160;</text>
</g>
<!-- 12&#45;&gt;13 -->
<g id="edge12" class="edge">
<title>12&#45;&gt;13</title>
<path fill="none" stroke="blue" d="M273.73,-92.68C283.5,-83.27 294.46,-72.71 304.11,-63.41"/>
<polygon fill="blue" stroke="blue" points="306.33,-66.13 311.1,-56.67 301.47,-61.09 306.33,-66.13"/>
<text text-anchor="start" x="257.07" y="-66.44" font-family="Times New Roman,serif" font-size="8.00" fill="darkmagenta"> &#160;&#160;&#160;&#160;13,12 &#160;</text>
</g>
</g>
</svg>
